%TF.GenerationSoftware,KiCad,Pcbnew,9.0.6*%
%TF.CreationDate,2025-12-18T20:09:52-08:00*%
%TF.ProjectId,hdmi,68646d69-2e6b-4696-9361-645f70636258,rev?*%
%TF.SameCoordinates,Original*%
%TF.FileFunction,Legend,Bot*%
%TF.FilePolarity,Positive*%
%FSLAX46Y46*%
G04 Gerber Fmt 4.6, Leading zero omitted, Abs format (unit mm)*
G04 Created by KiCad (PCBNEW 9.0.6) date 2025-12-18 20:09:52*
%MOMM*%
%LPD*%
G01*
G04 APERTURE LIST*
%ADD10C,0.100000*%
%ADD11C,0.150000*%
%ADD12C,0.120000*%
G04 APERTURE END LIST*
D10*
X117579961Y-96172306D02*
X117627580Y-96267544D01*
X117627580Y-96267544D02*
X117627580Y-96410401D01*
X117627580Y-96410401D02*
X117579961Y-96553258D01*
X117579961Y-96553258D02*
X117484723Y-96648496D01*
X117484723Y-96648496D02*
X117389485Y-96696115D01*
X117389485Y-96696115D02*
X117199009Y-96743734D01*
X117199009Y-96743734D02*
X117056152Y-96743734D01*
X117056152Y-96743734D02*
X116865676Y-96696115D01*
X116865676Y-96696115D02*
X116770438Y-96648496D01*
X116770438Y-96648496D02*
X116675200Y-96553258D01*
X116675200Y-96553258D02*
X116627580Y-96410401D01*
X116627580Y-96410401D02*
X116627580Y-96315163D01*
X116627580Y-96315163D02*
X116675200Y-96172306D01*
X116675200Y-96172306D02*
X116722819Y-96124687D01*
X116722819Y-96124687D02*
X117056152Y-96124687D01*
X117056152Y-96124687D02*
X117056152Y-96315163D01*
X116627580Y-95696115D02*
X117627580Y-95696115D01*
X117627580Y-95696115D02*
X116627580Y-95124687D01*
X116627580Y-95124687D02*
X117627580Y-95124687D01*
X116627580Y-94648496D02*
X117627580Y-94648496D01*
X117627580Y-94648496D02*
X117627580Y-94410401D01*
X117627580Y-94410401D02*
X117579961Y-94267544D01*
X117579961Y-94267544D02*
X117484723Y-94172306D01*
X117484723Y-94172306D02*
X117389485Y-94124687D01*
X117389485Y-94124687D02*
X117199009Y-94077068D01*
X117199009Y-94077068D02*
X117056152Y-94077068D01*
X117056152Y-94077068D02*
X116865676Y-94124687D01*
X116865676Y-94124687D02*
X116770438Y-94172306D01*
X116770438Y-94172306D02*
X116675200Y-94267544D01*
X116675200Y-94267544D02*
X116627580Y-94410401D01*
X116627580Y-94410401D02*
X116627580Y-94648496D01*
X121237524Y-85833332D02*
X120237524Y-85499999D01*
X120237524Y-85499999D02*
X121237524Y-85166666D01*
X120237524Y-84833332D02*
X121237524Y-84833332D01*
X121237524Y-84833332D02*
X121237524Y-84595237D01*
X121237524Y-84595237D02*
X121189905Y-84452380D01*
X121189905Y-84452380D02*
X121094667Y-84357142D01*
X121094667Y-84357142D02*
X120999429Y-84309523D01*
X120999429Y-84309523D02*
X120808953Y-84261904D01*
X120808953Y-84261904D02*
X120666096Y-84261904D01*
X120666096Y-84261904D02*
X120475620Y-84309523D01*
X120475620Y-84309523D02*
X120380382Y-84357142D01*
X120380382Y-84357142D02*
X120285144Y-84452380D01*
X120285144Y-84452380D02*
X120237524Y-84595237D01*
X120237524Y-84595237D02*
X120237524Y-84833332D01*
X120237524Y-83833332D02*
X121237524Y-83833332D01*
X121237524Y-83833332D02*
X121237524Y-83595237D01*
X121237524Y-83595237D02*
X121189905Y-83452380D01*
X121189905Y-83452380D02*
X121094667Y-83357142D01*
X121094667Y-83357142D02*
X120999429Y-83309523D01*
X120999429Y-83309523D02*
X120808953Y-83261904D01*
X120808953Y-83261904D02*
X120666096Y-83261904D01*
X120666096Y-83261904D02*
X120475620Y-83309523D01*
X120475620Y-83309523D02*
X120380382Y-83357142D01*
X120380382Y-83357142D02*
X120285144Y-83452380D01*
X120285144Y-83452380D02*
X120237524Y-83595237D01*
X120237524Y-83595237D02*
X120237524Y-83833332D01*
X119627580Y-85976189D02*
X119627580Y-85357142D01*
X119627580Y-85357142D02*
X119246628Y-85690475D01*
X119246628Y-85690475D02*
X119246628Y-85547618D01*
X119246628Y-85547618D02*
X119199009Y-85452380D01*
X119199009Y-85452380D02*
X119151390Y-85404761D01*
X119151390Y-85404761D02*
X119056152Y-85357142D01*
X119056152Y-85357142D02*
X118818057Y-85357142D01*
X118818057Y-85357142D02*
X118722819Y-85404761D01*
X118722819Y-85404761D02*
X118675200Y-85452380D01*
X118675200Y-85452380D02*
X118627580Y-85547618D01*
X118627580Y-85547618D02*
X118627580Y-85833332D01*
X118627580Y-85833332D02*
X118675200Y-85928570D01*
X118675200Y-85928570D02*
X118722819Y-85976189D01*
X118722819Y-84928570D02*
X118675200Y-84880951D01*
X118675200Y-84880951D02*
X118627580Y-84928570D01*
X118627580Y-84928570D02*
X118675200Y-84976189D01*
X118675200Y-84976189D02*
X118722819Y-84928570D01*
X118722819Y-84928570D02*
X118627580Y-84928570D01*
X119627580Y-84547618D02*
X119627580Y-83928571D01*
X119627580Y-83928571D02*
X119246628Y-84261904D01*
X119246628Y-84261904D02*
X119246628Y-84119047D01*
X119246628Y-84119047D02*
X119199009Y-84023809D01*
X119199009Y-84023809D02*
X119151390Y-83976190D01*
X119151390Y-83976190D02*
X119056152Y-83928571D01*
X119056152Y-83928571D02*
X118818057Y-83928571D01*
X118818057Y-83928571D02*
X118722819Y-83976190D01*
X118722819Y-83976190D02*
X118675200Y-84023809D01*
X118675200Y-84023809D02*
X118627580Y-84119047D01*
X118627580Y-84119047D02*
X118627580Y-84404761D01*
X118627580Y-84404761D02*
X118675200Y-84499999D01*
X118675200Y-84499999D02*
X118722819Y-84547618D01*
X119627580Y-83642856D02*
X118627580Y-83309523D01*
X118627580Y-83309523D02*
X119627580Y-82976190D01*
X116722819Y-85124687D02*
X116675200Y-85172306D01*
X116675200Y-85172306D02*
X116627580Y-85315163D01*
X116627580Y-85315163D02*
X116627580Y-85410401D01*
X116627580Y-85410401D02*
X116675200Y-85553258D01*
X116675200Y-85553258D02*
X116770438Y-85648496D01*
X116770438Y-85648496D02*
X116865676Y-85696115D01*
X116865676Y-85696115D02*
X117056152Y-85743734D01*
X117056152Y-85743734D02*
X117199009Y-85743734D01*
X117199009Y-85743734D02*
X117389485Y-85696115D01*
X117389485Y-85696115D02*
X117484723Y-85648496D01*
X117484723Y-85648496D02*
X117579961Y-85553258D01*
X117579961Y-85553258D02*
X117627580Y-85410401D01*
X117627580Y-85410401D02*
X117627580Y-85315163D01*
X117627580Y-85315163D02*
X117579961Y-85172306D01*
X117579961Y-85172306D02*
X117532342Y-85124687D01*
X117151390Y-84696115D02*
X117151390Y-84362782D01*
X116627580Y-84219925D02*
X116627580Y-84696115D01*
X116627580Y-84696115D02*
X117627580Y-84696115D01*
X117627580Y-84696115D02*
X117627580Y-84219925D01*
X116722819Y-83219925D02*
X116675200Y-83267544D01*
X116675200Y-83267544D02*
X116627580Y-83410401D01*
X116627580Y-83410401D02*
X116627580Y-83505639D01*
X116627580Y-83505639D02*
X116675200Y-83648496D01*
X116675200Y-83648496D02*
X116770438Y-83743734D01*
X116770438Y-83743734D02*
X116865676Y-83791353D01*
X116865676Y-83791353D02*
X117056152Y-83838972D01*
X117056152Y-83838972D02*
X117199009Y-83838972D01*
X117199009Y-83838972D02*
X117389485Y-83791353D01*
X117389485Y-83791353D02*
X117484723Y-83743734D01*
X117484723Y-83743734D02*
X117579961Y-83648496D01*
X117579961Y-83648496D02*
X117627580Y-83505639D01*
X117627580Y-83505639D02*
X117627580Y-83410401D01*
X117627580Y-83410401D02*
X117579961Y-83267544D01*
X117579961Y-83267544D02*
X117532342Y-83219925D01*
D11*
X124258094Y-94484819D02*
X124258094Y-93484819D01*
X124258094Y-93484819D02*
X124019999Y-93484819D01*
X124019999Y-93484819D02*
X123877142Y-93532438D01*
X123877142Y-93532438D02*
X123781904Y-93627676D01*
X123781904Y-93627676D02*
X123734285Y-93722914D01*
X123734285Y-93722914D02*
X123686666Y-93913390D01*
X123686666Y-93913390D02*
X123686666Y-94056247D01*
X123686666Y-94056247D02*
X123734285Y-94246723D01*
X123734285Y-94246723D02*
X123781904Y-94341961D01*
X123781904Y-94341961D02*
X123877142Y-94437200D01*
X123877142Y-94437200D02*
X124019999Y-94484819D01*
X124019999Y-94484819D02*
X124258094Y-94484819D01*
X123305713Y-93580057D02*
X123258094Y-93532438D01*
X123258094Y-93532438D02*
X123162856Y-93484819D01*
X123162856Y-93484819D02*
X122924761Y-93484819D01*
X122924761Y-93484819D02*
X122829523Y-93532438D01*
X122829523Y-93532438D02*
X122781904Y-93580057D01*
X122781904Y-93580057D02*
X122734285Y-93675295D01*
X122734285Y-93675295D02*
X122734285Y-93770533D01*
X122734285Y-93770533D02*
X122781904Y-93913390D01*
X122781904Y-93913390D02*
X123353332Y-94484819D01*
X123353332Y-94484819D02*
X122734285Y-94484819D01*
X121833333Y-94954819D02*
X121833333Y-95669104D01*
X121833333Y-95669104D02*
X121880952Y-95811961D01*
X121880952Y-95811961D02*
X121976190Y-95907200D01*
X121976190Y-95907200D02*
X122119047Y-95954819D01*
X122119047Y-95954819D02*
X122214285Y-95954819D01*
X121452380Y-94954819D02*
X120833333Y-94954819D01*
X120833333Y-94954819D02*
X121166666Y-95335771D01*
X121166666Y-95335771D02*
X121023809Y-95335771D01*
X121023809Y-95335771D02*
X120928571Y-95383390D01*
X120928571Y-95383390D02*
X120880952Y-95431009D01*
X120880952Y-95431009D02*
X120833333Y-95526247D01*
X120833333Y-95526247D02*
X120833333Y-95764342D01*
X120833333Y-95764342D02*
X120880952Y-95859580D01*
X120880952Y-95859580D02*
X120928571Y-95907200D01*
X120928571Y-95907200D02*
X121023809Y-95954819D01*
X121023809Y-95954819D02*
X121309523Y-95954819D01*
X121309523Y-95954819D02*
X121404761Y-95907200D01*
X121404761Y-95907200D02*
X121452380Y-95859580D01*
X123666666Y-89384819D02*
X123999999Y-88908628D01*
X124238094Y-89384819D02*
X124238094Y-88384819D01*
X124238094Y-88384819D02*
X123857142Y-88384819D01*
X123857142Y-88384819D02*
X123761904Y-88432438D01*
X123761904Y-88432438D02*
X123714285Y-88480057D01*
X123714285Y-88480057D02*
X123666666Y-88575295D01*
X123666666Y-88575295D02*
X123666666Y-88718152D01*
X123666666Y-88718152D02*
X123714285Y-88813390D01*
X123714285Y-88813390D02*
X123761904Y-88861009D01*
X123761904Y-88861009D02*
X123857142Y-88908628D01*
X123857142Y-88908628D02*
X124238094Y-88908628D01*
X123285713Y-88480057D02*
X123238094Y-88432438D01*
X123238094Y-88432438D02*
X123142856Y-88384819D01*
X123142856Y-88384819D02*
X122904761Y-88384819D01*
X122904761Y-88384819D02*
X122809523Y-88432438D01*
X122809523Y-88432438D02*
X122761904Y-88480057D01*
X122761904Y-88480057D02*
X122714285Y-88575295D01*
X122714285Y-88575295D02*
X122714285Y-88670533D01*
X122714285Y-88670533D02*
X122761904Y-88813390D01*
X122761904Y-88813390D02*
X123333332Y-89384819D01*
X123333332Y-89384819D02*
X122714285Y-89384819D01*
X134583333Y-93854819D02*
X134583333Y-94569104D01*
X134583333Y-94569104D02*
X134630952Y-94711961D01*
X134630952Y-94711961D02*
X134726190Y-94807200D01*
X134726190Y-94807200D02*
X134869047Y-94854819D01*
X134869047Y-94854819D02*
X134964285Y-94854819D01*
X134154761Y-93950057D02*
X134107142Y-93902438D01*
X134107142Y-93902438D02*
X134011904Y-93854819D01*
X134011904Y-93854819D02*
X133773809Y-93854819D01*
X133773809Y-93854819D02*
X133678571Y-93902438D01*
X133678571Y-93902438D02*
X133630952Y-93950057D01*
X133630952Y-93950057D02*
X133583333Y-94045295D01*
X133583333Y-94045295D02*
X133583333Y-94140533D01*
X133583333Y-94140533D02*
X133630952Y-94283390D01*
X133630952Y-94283390D02*
X134202380Y-94854819D01*
X134202380Y-94854819D02*
X133583333Y-94854819D01*
D12*
%TO.C,D2*%
X122035000Y-91865000D02*
X122035000Y-93335000D01*
X122035000Y-93335000D02*
X124320000Y-93335000D01*
X124320000Y-91865000D02*
X122035000Y-91865000D01*
%TO.C,J3*%
X116040000Y-87140000D02*
X116450000Y-87140000D01*
X116040000Y-87860000D02*
X116450000Y-87860000D01*
X116040000Y-89680000D02*
X116450000Y-89680000D01*
X116040000Y-90400000D02*
X116450000Y-90400000D01*
X116040000Y-92220000D02*
X116450000Y-92220000D01*
X116040000Y-92940000D02*
X116450000Y-92940000D01*
X118550000Y-87140000D02*
X118990000Y-87140000D01*
X118550000Y-87860000D02*
X118990000Y-87860000D01*
X118550000Y-89680000D02*
X118990000Y-89680000D01*
X118550000Y-90400000D02*
X118990000Y-90400000D01*
X118550000Y-92220000D02*
X118930000Y-92220000D01*
X118550000Y-92940000D02*
X118930000Y-92940000D01*
X120040000Y-93910000D02*
X121150000Y-93910000D01*
X121150000Y-93910000D02*
X121150000Y-92580000D01*
%TO.C,R2*%
X123737258Y-86977500D02*
X123262742Y-86977500D01*
X123737258Y-88022500D02*
X123262742Y-88022500D01*
%TO.C,J2*%
X126630000Y-101300000D02*
X126630000Y-98600000D01*
X128100000Y-96880000D02*
X129150000Y-96880000D01*
X129150000Y-96880000D02*
X129150000Y-95550000D01*
X138850000Y-96880000D02*
X140400000Y-96880000D01*
X141870000Y-98600000D02*
X141870000Y-101300000D01*
%TD*%
M02*
