%TF.GenerationSoftware,KiCad,Pcbnew,9.0.6*%
%TF.CreationDate,2025-12-18T20:09:52-08:00*%
%TF.ProjectId,hdmi,68646d69-2e6b-4696-9361-645f70636258,rev?*%
%TF.SameCoordinates,Original*%
%TF.FileFunction,Legend,Top*%
%TF.FilePolarity,Positive*%
%FSLAX46Y46*%
G04 Gerber Fmt 4.6, Leading zero omitted, Abs format (unit mm)*
G04 Created by KiCad (PCBNEW 9.0.6) date 2025-12-18 20:09:52*
%MOMM*%
%LPD*%
G01*
G04 APERTURE LIST*
%ADD10C,0.026400*%
%ADD11C,0.100000*%
%ADD12C,0.150000*%
%ADD13C,0.120000*%
G04 APERTURE END LIST*
D10*
X146037829Y-87801191D02*
X146047482Y-87801908D01*
X146057146Y-87803104D01*
X146066819Y-87804778D01*
X146076503Y-87806931D01*
X146086196Y-87809562D01*
X146095900Y-87812671D01*
X146105614Y-87816258D01*
X146115337Y-87820324D01*
X146125071Y-87824869D01*
X146134815Y-87829891D01*
X146144569Y-87835392D01*
X146164107Y-87847829D01*
X146183685Y-87862180D01*
X146203303Y-87878444D01*
X146222962Y-87896621D01*
X146242660Y-87916711D01*
X146262399Y-87938715D01*
X146282178Y-87962633D01*
X146301997Y-87988463D01*
X146321856Y-88016208D01*
X146341755Y-88045865D01*
X146361374Y-88077787D01*
X146380389Y-88111076D01*
X146398803Y-88145732D01*
X146416614Y-88181755D01*
X146433822Y-88219144D01*
X146450429Y-88257900D01*
X146466432Y-88298022D01*
X146481834Y-88339511D01*
X146496633Y-88382367D01*
X146510829Y-88426590D01*
X146524423Y-88472179D01*
X146537415Y-88519136D01*
X146549805Y-88567458D01*
X146561592Y-88617148D01*
X146572776Y-88668204D01*
X146583358Y-88720627D01*
X146624482Y-88736912D01*
X146733738Y-88780176D01*
X146877732Y-88841366D01*
X147015340Y-88904195D01*
X147146563Y-88968665D01*
X147271401Y-89034774D01*
X147389853Y-89102524D01*
X147501920Y-89171913D01*
X147607601Y-89242943D01*
X147706897Y-89315613D01*
X147799807Y-89389922D01*
X147886332Y-89465872D01*
X147966471Y-89543462D01*
X148040225Y-89622692D01*
X148107594Y-89703562D01*
X148168577Y-89786072D01*
X148223175Y-89870222D01*
X148241849Y-89901578D01*
X148259319Y-89933168D01*
X148275583Y-89964993D01*
X148290644Y-89997052D01*
X148304499Y-90029345D01*
X148317149Y-90061873D01*
X148328595Y-90094635D01*
X148338836Y-90127631D01*
X148347872Y-90160862D01*
X148355703Y-90194326D01*
X148362329Y-90228025D01*
X148367751Y-90261959D01*
X148371968Y-90296126D01*
X148374980Y-90330528D01*
X148376787Y-90365164D01*
X148377389Y-90400035D01*
X148375703Y-90461420D01*
X148371928Y-90520617D01*
X148366064Y-90577628D01*
X148358112Y-90632453D01*
X148348072Y-90685091D01*
X148335944Y-90735542D01*
X148321727Y-90783806D01*
X148305422Y-90829883D01*
X148287029Y-90873774D01*
X148266547Y-90915478D01*
X148243978Y-90954995D01*
X148219319Y-90992326D01*
X148192573Y-91027470D01*
X148163738Y-91060427D01*
X148132814Y-91091197D01*
X148099803Y-91119781D01*
X148065044Y-91147017D01*
X148028880Y-91172497D01*
X147991310Y-91196219D01*
X147952335Y-91218184D01*
X147911954Y-91238391D01*
X147870168Y-91256842D01*
X147826975Y-91273535D01*
X147782378Y-91288471D01*
X147736374Y-91301650D01*
X147688965Y-91313072D01*
X147640151Y-91322737D01*
X147589931Y-91330644D01*
X147538305Y-91336794D01*
X147485273Y-91341187D01*
X147430836Y-91343823D01*
X147374994Y-91344702D01*
X147318027Y-91344253D01*
X147258931Y-91341656D01*
X147197707Y-91336911D01*
X147134355Y-91330019D01*
X147068874Y-91320979D01*
X147001264Y-91309792D01*
X146931526Y-91296457D01*
X146859660Y-91280974D01*
X146785665Y-91263344D01*
X146709541Y-91243565D01*
X146631289Y-91221639D01*
X146550909Y-91197566D01*
X146468400Y-91171345D01*
X146383762Y-91142976D01*
X146208102Y-91079795D01*
X145943367Y-90983579D01*
X145704334Y-90894860D01*
X145649155Y-90874945D01*
X145596705Y-90857686D01*
X145546987Y-90843082D01*
X145500000Y-90831133D01*
X145455743Y-90821839D01*
X145434639Y-90818188D01*
X145414218Y-90815201D01*
X145394479Y-90812877D01*
X145375423Y-90811218D01*
X145357050Y-90810222D01*
X145339359Y-90809890D01*
X145305705Y-90810203D01*
X145274140Y-90811140D01*
X145244662Y-90812702D01*
X145217273Y-90814888D01*
X145191972Y-90817700D01*
X145168760Y-90821136D01*
X145147636Y-90825197D01*
X145128600Y-90829883D01*
X145124172Y-90831186D01*
X145119885Y-90832597D01*
X145115739Y-90834115D01*
X145111733Y-90835740D01*
X145107867Y-90837473D01*
X145104142Y-90839313D01*
X145100558Y-90841261D01*
X145097114Y-90843316D01*
X145093811Y-90845478D01*
X145090649Y-90847748D01*
X145087626Y-90850125D01*
X145084745Y-90852610D01*
X145082004Y-90855201D01*
X145079404Y-90857901D01*
X145076944Y-90860707D01*
X145074625Y-90863621D01*
X145072446Y-90866643D01*
X145070408Y-90869771D01*
X145068510Y-90873008D01*
X145066753Y-90876351D01*
X145065137Y-90879802D01*
X145063661Y-90883360D01*
X145062326Y-90887026D01*
X145061131Y-90890799D01*
X145060077Y-90894680D01*
X145059163Y-90898668D01*
X145058390Y-90902763D01*
X145057757Y-90906965D01*
X145057265Y-90911275D01*
X145056914Y-90915693D01*
X145056633Y-90924850D01*
X145057155Y-90933641D01*
X145058721Y-90943144D01*
X145061332Y-90953360D01*
X145064986Y-90964289D01*
X145069685Y-90975930D01*
X145075428Y-90988284D01*
X145090046Y-91015130D01*
X145108841Y-91044827D01*
X145131812Y-91077374D01*
X145158961Y-91112772D01*
X145190285Y-91151020D01*
X145225787Y-91192119D01*
X145265465Y-91236068D01*
X145309320Y-91282868D01*
X145357351Y-91332518D01*
X145409559Y-91385019D01*
X145465944Y-91440371D01*
X145526506Y-91498573D01*
X145591244Y-91559626D01*
X145603693Y-91570677D01*
X145615340Y-91581337D01*
X145626183Y-91591607D01*
X145636223Y-91601486D01*
X145645460Y-91610975D01*
X145653893Y-91620073D01*
X145661524Y-91628781D01*
X145668351Y-91637098D01*
X145674375Y-91645025D01*
X145679596Y-91652562D01*
X145684013Y-91659708D01*
X145687628Y-91666463D01*
X145690439Y-91672828D01*
X145692447Y-91678802D01*
X145693652Y-91684386D01*
X145694053Y-91689580D01*
X145693822Y-91694808D01*
X145693130Y-91699869D01*
X145691975Y-91704765D01*
X145690359Y-91709495D01*
X145688280Y-91714059D01*
X145685740Y-91718457D01*
X145682738Y-91722688D01*
X145679274Y-91726754D01*
X145675349Y-91730654D01*
X145670961Y-91734388D01*
X145666112Y-91737957D01*
X145660801Y-91741359D01*
X145655028Y-91744595D01*
X145648793Y-91747665D01*
X145642096Y-91750569D01*
X145634938Y-91753308D01*
X145627317Y-91755880D01*
X145619235Y-91758286D01*
X145610691Y-91760527D01*
X145601685Y-91762601D01*
X145592217Y-91764510D01*
X145582288Y-91766252D01*
X145571896Y-91767829D01*
X145561043Y-91769239D01*
X145549728Y-91770484D01*
X145537951Y-91771563D01*
X145525712Y-91772476D01*
X145513012Y-91773222D01*
X145499849Y-91773803D01*
X145486225Y-91774218D01*
X145472139Y-91774467D01*
X145457591Y-91774550D01*
X145441306Y-91774140D01*
X145424579Y-91772910D01*
X145407411Y-91770860D01*
X145389801Y-91767990D01*
X145371749Y-91764300D01*
X145353255Y-91759790D01*
X145334319Y-91754460D01*
X145314942Y-91748309D01*
X145295123Y-91741339D01*
X145274862Y-91733549D01*
X145254160Y-91724939D01*
X145233016Y-91715508D01*
X145211430Y-91705258D01*
X145189402Y-91694188D01*
X145166932Y-91682298D01*
X145144021Y-91669587D01*
X145121632Y-91656213D01*
X145099443Y-91642331D01*
X145077456Y-91627942D01*
X145055669Y-91613045D01*
X145034083Y-91597640D01*
X145012698Y-91581728D01*
X144991513Y-91565308D01*
X144970529Y-91548380D01*
X144949747Y-91530945D01*
X144929165Y-91513002D01*
X144908783Y-91494551D01*
X144888603Y-91475593D01*
X144868623Y-91456127D01*
X144848844Y-91436154D01*
X144829266Y-91415673D01*
X144809889Y-91394684D01*
X144791456Y-91373910D01*
X144773424Y-91352824D01*
X144755793Y-91331425D01*
X144738565Y-91309714D01*
X144721738Y-91287690D01*
X144705312Y-91265355D01*
X144689288Y-91242706D01*
X144673666Y-91219746D01*
X144658445Y-91196473D01*
X144643626Y-91172887D01*
X144629209Y-91148989D01*
X144615193Y-91124779D01*
X144601579Y-91100257D01*
X144588366Y-91075422D01*
X144575555Y-91050274D01*
X144563146Y-91024814D01*
X144551319Y-90999238D01*
X144540254Y-90973739D01*
X144529953Y-90948318D01*
X144520415Y-90922975D01*
X144511640Y-90897711D01*
X144503629Y-90872525D01*
X144496380Y-90847416D01*
X144489894Y-90822386D01*
X144484171Y-90797434D01*
X144479211Y-90772560D01*
X144475014Y-90747764D01*
X144471581Y-90723046D01*
X144468910Y-90698406D01*
X144467003Y-90673845D01*
X144465858Y-90649361D01*
X144465476Y-90624956D01*
X144466059Y-90588796D01*
X144467806Y-90554043D01*
X144470717Y-90520696D01*
X144473359Y-90500000D01*
X146609061Y-90500000D01*
X146708658Y-90529286D01*
X146801829Y-90554668D01*
X146888575Y-90576145D01*
X146968895Y-90593717D01*
X147042789Y-90607384D01*
X147110258Y-90617146D01*
X147171302Y-90623003D01*
X147225919Y-90624956D01*
X147225920Y-90624956D01*
X147280075Y-90623686D01*
X147330737Y-90619879D01*
X147377905Y-90613534D01*
X147421579Y-90604650D01*
X147461760Y-90593229D01*
X147480539Y-90586566D01*
X147498446Y-90579269D01*
X147515479Y-90571337D01*
X147531638Y-90562771D01*
X147546924Y-90553570D01*
X147561337Y-90543734D01*
X147574875Y-90533264D01*
X147587541Y-90522160D01*
X147599333Y-90510421D01*
X147610251Y-90498047D01*
X147620297Y-90485039D01*
X147629468Y-90471397D01*
X147637766Y-90457119D01*
X147645191Y-90442208D01*
X147651742Y-90426661D01*
X147657419Y-90410481D01*
X147662224Y-90393665D01*
X147666154Y-90376215D01*
X147669211Y-90358131D01*
X147671395Y-90339412D01*
X147672705Y-90320058D01*
X147673142Y-90300070D01*
X147672018Y-90259186D01*
X147668644Y-90219005D01*
X147663022Y-90179527D01*
X147655150Y-90140752D01*
X147645030Y-90102679D01*
X147632661Y-90065309D01*
X147618043Y-90028643D01*
X147601175Y-89992679D01*
X147582059Y-89957418D01*
X147560694Y-89922860D01*
X147537080Y-89889004D01*
X147511217Y-89855852D01*
X147483105Y-89823402D01*
X147452744Y-89791656D01*
X147420134Y-89760612D01*
X147385275Y-89730271D01*
X147349171Y-89701317D01*
X147311541Y-89673182D01*
X147272385Y-89645867D01*
X147231703Y-89619373D01*
X147189494Y-89593698D01*
X147145760Y-89568844D01*
X147100500Y-89544809D01*
X147053713Y-89521595D01*
X147005400Y-89499200D01*
X146955562Y-89477626D01*
X146904197Y-89456871D01*
X146851306Y-89436937D01*
X146796889Y-89417823D01*
X146740946Y-89399528D01*
X146683477Y-89382054D01*
X146624482Y-89365400D01*
X146609061Y-90500000D01*
X144473359Y-90500000D01*
X144474794Y-90488754D01*
X144480034Y-90458218D01*
X144486440Y-90429087D01*
X144494010Y-90401363D01*
X144502745Y-90375044D01*
X144512644Y-90350131D01*
X144523709Y-90326624D01*
X144535937Y-90304522D01*
X144549331Y-90283826D01*
X144563889Y-90264536D01*
X144579611Y-90246652D01*
X144596499Y-90230173D01*
X144614551Y-90215100D01*
X144634370Y-90201785D01*
X144655273Y-90189328D01*
X144677261Y-90177731D01*
X144700333Y-90166992D01*
X144724489Y-90157113D01*
X144749729Y-90148093D01*
X144776054Y-90139932D01*
X144803464Y-90132629D01*
X144831957Y-90126186D01*
X144861535Y-90120602D01*
X144892197Y-90115878D01*
X144923944Y-90112012D01*
X144956775Y-90109005D01*
X144990690Y-90106857D01*
X145025689Y-90105569D01*
X145061773Y-90105139D01*
X145100688Y-90106018D01*
X145142896Y-90108654D01*
X145188398Y-90113047D01*
X145237192Y-90119197D01*
X145289280Y-90127104D01*
X145344661Y-90136769D01*
X145465302Y-90161369D01*
X145599115Y-90192999D01*
X145746101Y-90231657D01*
X145906259Y-90277344D01*
X146079590Y-90330060D01*
X146093084Y-90008611D01*
X146102722Y-89734020D01*
X146108505Y-89506288D01*
X146110433Y-89325414D01*
X146110433Y-89255439D01*
X145966901Y-89234352D01*
X145821602Y-89216077D01*
X145674536Y-89200614D01*
X145525702Y-89187962D01*
X145375102Y-89178122D01*
X145222735Y-89171093D01*
X145068600Y-89166876D01*
X144912699Y-89165470D01*
X144878683Y-89164670D01*
X144846033Y-89162268D01*
X144814749Y-89158266D01*
X144784829Y-89152662D01*
X144756276Y-89145458D01*
X144729087Y-89136652D01*
X144703264Y-89126246D01*
X144678807Y-89114238D01*
X144655715Y-89100630D01*
X144633988Y-89085420D01*
X144613627Y-89068610D01*
X144594631Y-89050198D01*
X144577001Y-89030186D01*
X144560736Y-89008573D01*
X144545837Y-88985358D01*
X144532303Y-88960543D01*
X144509492Y-88913372D01*
X144487323Y-88866826D01*
X144465798Y-88820904D01*
X144444914Y-88775608D01*
X144439935Y-88764928D01*
X144435276Y-88754131D01*
X144430939Y-88743217D01*
X144426923Y-88732186D01*
X144423228Y-88721037D01*
X144419855Y-88709772D01*
X144416802Y-88698389D01*
X144414072Y-88686889D01*
X144411662Y-88675272D01*
X144409574Y-88663538D01*
X144407807Y-88651687D01*
X144406361Y-88639718D01*
X144405236Y-88627633D01*
X144404433Y-88615430D01*
X144403951Y-88603110D01*
X144403790Y-88590673D01*
X144404242Y-88575297D01*
X144405598Y-88560410D01*
X144407857Y-88546011D01*
X144411019Y-88532100D01*
X144415086Y-88518677D01*
X144420055Y-88505742D01*
X144425929Y-88493295D01*
X144432706Y-88481336D01*
X144440386Y-88469866D01*
X144448971Y-88458883D01*
X144458458Y-88448389D01*
X144468850Y-88438383D01*
X144480145Y-88428865D01*
X144492344Y-88419835D01*
X144505446Y-88411293D01*
X144519452Y-88403239D01*
X144534361Y-88395673D01*
X144550174Y-88388596D01*
X144566891Y-88382006D01*
X144584511Y-88375905D01*
X144603035Y-88370292D01*
X144622462Y-88365167D01*
X144642793Y-88360529D01*
X144664028Y-88356381D01*
X144686166Y-88352720D01*
X144709208Y-88349547D01*
X144733153Y-88346862D01*
X144758002Y-88344666D01*
X144783755Y-88342958D01*
X144810411Y-88341737D01*
X144837971Y-88341005D01*
X144866435Y-88340761D01*
X144925289Y-88341562D01*
X144986192Y-88343963D01*
X145049143Y-88347966D01*
X145114142Y-88353569D01*
X145250285Y-88369579D01*
X145394620Y-88391993D01*
X145547148Y-88420811D01*
X145707868Y-88456033D01*
X145876782Y-88497659D01*
X146053888Y-88545689D01*
X146041036Y-88438851D01*
X146028185Y-88338262D01*
X146015334Y-88243920D01*
X146002483Y-88155826D01*
X145996459Y-88115684D01*
X145991238Y-88077729D01*
X145986820Y-88041960D01*
X145983206Y-88008378D01*
X145980395Y-87976983D01*
X145978387Y-87947775D01*
X145977182Y-87920753D01*
X145976780Y-87895918D01*
X145976981Y-87884418D01*
X145977583Y-87873660D01*
X145978587Y-87863644D01*
X145979993Y-87854370D01*
X145981800Y-87845838D01*
X145984009Y-87838048D01*
X145986619Y-87830999D01*
X145989631Y-87824693D01*
X145993045Y-87819129D01*
X145994902Y-87816625D01*
X145996860Y-87814306D01*
X145998918Y-87812173D01*
X146001077Y-87810225D01*
X146003336Y-87808463D01*
X146005695Y-87806887D01*
X146008155Y-87805496D01*
X146010715Y-87804290D01*
X146013376Y-87803270D01*
X146016137Y-87802435D01*
X146018998Y-87801786D01*
X146021960Y-87801322D01*
X146025022Y-87801044D01*
X146028185Y-87800951D01*
X146037829Y-87801191D01*
G36*
X146037829Y-87801191D02*
G01*
X146047482Y-87801908D01*
X146057146Y-87803104D01*
X146066819Y-87804778D01*
X146076503Y-87806931D01*
X146086196Y-87809562D01*
X146095900Y-87812671D01*
X146105614Y-87816258D01*
X146115337Y-87820324D01*
X146125071Y-87824869D01*
X146134815Y-87829891D01*
X146144569Y-87835392D01*
X146164107Y-87847829D01*
X146183685Y-87862180D01*
X146203303Y-87878444D01*
X146222962Y-87896621D01*
X146242660Y-87916711D01*
X146262399Y-87938715D01*
X146282178Y-87962633D01*
X146301997Y-87988463D01*
X146321856Y-88016208D01*
X146341755Y-88045865D01*
X146361374Y-88077787D01*
X146380389Y-88111076D01*
X146398803Y-88145732D01*
X146416614Y-88181755D01*
X146433822Y-88219144D01*
X146450429Y-88257900D01*
X146466432Y-88298022D01*
X146481834Y-88339511D01*
X146496633Y-88382367D01*
X146510829Y-88426590D01*
X146524423Y-88472179D01*
X146537415Y-88519136D01*
X146549805Y-88567458D01*
X146561592Y-88617148D01*
X146572776Y-88668204D01*
X146583358Y-88720627D01*
X146624482Y-88736912D01*
X146733738Y-88780176D01*
X146877732Y-88841366D01*
X147015340Y-88904195D01*
X147146563Y-88968665D01*
X147271401Y-89034774D01*
X147389853Y-89102524D01*
X147501920Y-89171913D01*
X147607601Y-89242943D01*
X147706897Y-89315613D01*
X147799807Y-89389922D01*
X147886332Y-89465872D01*
X147966471Y-89543462D01*
X148040225Y-89622692D01*
X148107594Y-89703562D01*
X148168577Y-89786072D01*
X148223175Y-89870222D01*
X148241849Y-89901578D01*
X148259319Y-89933168D01*
X148275583Y-89964993D01*
X148290644Y-89997052D01*
X148304499Y-90029345D01*
X148317149Y-90061873D01*
X148328595Y-90094635D01*
X148338836Y-90127631D01*
X148347872Y-90160862D01*
X148355703Y-90194326D01*
X148362329Y-90228025D01*
X148367751Y-90261959D01*
X148371968Y-90296126D01*
X148374980Y-90330528D01*
X148376787Y-90365164D01*
X148377389Y-90400035D01*
X148375703Y-90461420D01*
X148371928Y-90520617D01*
X148366064Y-90577628D01*
X148358112Y-90632453D01*
X148348072Y-90685091D01*
X148335944Y-90735542D01*
X148321727Y-90783806D01*
X148305422Y-90829883D01*
X148287029Y-90873774D01*
X148266547Y-90915478D01*
X148243978Y-90954995D01*
X148219319Y-90992326D01*
X148192573Y-91027470D01*
X148163738Y-91060427D01*
X148132814Y-91091197D01*
X148099803Y-91119781D01*
X148065044Y-91147017D01*
X148028880Y-91172497D01*
X147991310Y-91196219D01*
X147952335Y-91218184D01*
X147911954Y-91238391D01*
X147870168Y-91256842D01*
X147826975Y-91273535D01*
X147782378Y-91288471D01*
X147736374Y-91301650D01*
X147688965Y-91313072D01*
X147640151Y-91322737D01*
X147589931Y-91330644D01*
X147538305Y-91336794D01*
X147485273Y-91341187D01*
X147430836Y-91343823D01*
X147374994Y-91344702D01*
X147318027Y-91344253D01*
X147258931Y-91341656D01*
X147197707Y-91336911D01*
X147134355Y-91330019D01*
X147068874Y-91320979D01*
X147001264Y-91309792D01*
X146931526Y-91296457D01*
X146859660Y-91280974D01*
X146785665Y-91263344D01*
X146709541Y-91243565D01*
X146631289Y-91221639D01*
X146550909Y-91197566D01*
X146468400Y-91171345D01*
X146383762Y-91142976D01*
X146208102Y-91079795D01*
X145943367Y-90983579D01*
X145704334Y-90894860D01*
X145649155Y-90874945D01*
X145596705Y-90857686D01*
X145546987Y-90843082D01*
X145500000Y-90831133D01*
X145455743Y-90821839D01*
X145434639Y-90818188D01*
X145414218Y-90815201D01*
X145394479Y-90812877D01*
X145375423Y-90811218D01*
X145357050Y-90810222D01*
X145339359Y-90809890D01*
X145305705Y-90810203D01*
X145274140Y-90811140D01*
X145244662Y-90812702D01*
X145217273Y-90814888D01*
X145191972Y-90817700D01*
X145168760Y-90821136D01*
X145147636Y-90825197D01*
X145128600Y-90829883D01*
X145124172Y-90831186D01*
X145119885Y-90832597D01*
X145115739Y-90834115D01*
X145111733Y-90835740D01*
X145107867Y-90837473D01*
X145104142Y-90839313D01*
X145100558Y-90841261D01*
X145097114Y-90843316D01*
X145093811Y-90845478D01*
X145090649Y-90847748D01*
X145087626Y-90850125D01*
X145084745Y-90852610D01*
X145082004Y-90855201D01*
X145079404Y-90857901D01*
X145076944Y-90860707D01*
X145074625Y-90863621D01*
X145072446Y-90866643D01*
X145070408Y-90869771D01*
X145068510Y-90873008D01*
X145066753Y-90876351D01*
X145065137Y-90879802D01*
X145063661Y-90883360D01*
X145062326Y-90887026D01*
X145061131Y-90890799D01*
X145060077Y-90894680D01*
X145059163Y-90898668D01*
X145058390Y-90902763D01*
X145057757Y-90906965D01*
X145057265Y-90911275D01*
X145056914Y-90915693D01*
X145056633Y-90924850D01*
X145057155Y-90933641D01*
X145058721Y-90943144D01*
X145061332Y-90953360D01*
X145064986Y-90964289D01*
X145069685Y-90975930D01*
X145075428Y-90988284D01*
X145090046Y-91015130D01*
X145108841Y-91044827D01*
X145131812Y-91077374D01*
X145158961Y-91112772D01*
X145190285Y-91151020D01*
X145225787Y-91192119D01*
X145265465Y-91236068D01*
X145309320Y-91282868D01*
X145357351Y-91332518D01*
X145409559Y-91385019D01*
X145465944Y-91440371D01*
X145526506Y-91498573D01*
X145591244Y-91559626D01*
X145603693Y-91570677D01*
X145615340Y-91581337D01*
X145626183Y-91591607D01*
X145636223Y-91601486D01*
X145645460Y-91610975D01*
X145653893Y-91620073D01*
X145661524Y-91628781D01*
X145668351Y-91637098D01*
X145674375Y-91645025D01*
X145679596Y-91652562D01*
X145684013Y-91659708D01*
X145687628Y-91666463D01*
X145690439Y-91672828D01*
X145692447Y-91678802D01*
X145693652Y-91684386D01*
X145694053Y-91689580D01*
X145693822Y-91694808D01*
X145693130Y-91699869D01*
X145691975Y-91704765D01*
X145690359Y-91709495D01*
X145688280Y-91714059D01*
X145685740Y-91718457D01*
X145682738Y-91722688D01*
X145679274Y-91726754D01*
X145675349Y-91730654D01*
X145670961Y-91734388D01*
X145666112Y-91737957D01*
X145660801Y-91741359D01*
X145655028Y-91744595D01*
X145648793Y-91747665D01*
X145642096Y-91750569D01*
X145634938Y-91753308D01*
X145627317Y-91755880D01*
X145619235Y-91758286D01*
X145610691Y-91760527D01*
X145601685Y-91762601D01*
X145592217Y-91764510D01*
X145582288Y-91766252D01*
X145571896Y-91767829D01*
X145561043Y-91769239D01*
X145549728Y-91770484D01*
X145537951Y-91771563D01*
X145525712Y-91772476D01*
X145513012Y-91773222D01*
X145499849Y-91773803D01*
X145486225Y-91774218D01*
X145472139Y-91774467D01*
X145457591Y-91774550D01*
X145441306Y-91774140D01*
X145424579Y-91772910D01*
X145407411Y-91770860D01*
X145389801Y-91767990D01*
X145371749Y-91764300D01*
X145353255Y-91759790D01*
X145334319Y-91754460D01*
X145314942Y-91748309D01*
X145295123Y-91741339D01*
X145274862Y-91733549D01*
X145254160Y-91724939D01*
X145233016Y-91715508D01*
X145211430Y-91705258D01*
X145189402Y-91694188D01*
X145166932Y-91682298D01*
X145144021Y-91669587D01*
X145121632Y-91656213D01*
X145099443Y-91642331D01*
X145077456Y-91627942D01*
X145055669Y-91613045D01*
X145034083Y-91597640D01*
X145012698Y-91581728D01*
X144991513Y-91565308D01*
X144970529Y-91548380D01*
X144949747Y-91530945D01*
X144929165Y-91513002D01*
X144908783Y-91494551D01*
X144888603Y-91475593D01*
X144868623Y-91456127D01*
X144848844Y-91436154D01*
X144829266Y-91415673D01*
X144809889Y-91394684D01*
X144791456Y-91373910D01*
X144773424Y-91352824D01*
X144755793Y-91331425D01*
X144738565Y-91309714D01*
X144721738Y-91287690D01*
X144705312Y-91265355D01*
X144689288Y-91242706D01*
X144673666Y-91219746D01*
X144658445Y-91196473D01*
X144643626Y-91172887D01*
X144629209Y-91148989D01*
X144615193Y-91124779D01*
X144601579Y-91100257D01*
X144588366Y-91075422D01*
X144575555Y-91050274D01*
X144563146Y-91024814D01*
X144551319Y-90999238D01*
X144540254Y-90973739D01*
X144529953Y-90948318D01*
X144520415Y-90922975D01*
X144511640Y-90897711D01*
X144503629Y-90872525D01*
X144496380Y-90847416D01*
X144489894Y-90822386D01*
X144484171Y-90797434D01*
X144479211Y-90772560D01*
X144475014Y-90747764D01*
X144471581Y-90723046D01*
X144468910Y-90698406D01*
X144467003Y-90673845D01*
X144465858Y-90649361D01*
X144465476Y-90624956D01*
X144466059Y-90588796D01*
X144467806Y-90554043D01*
X144470717Y-90520696D01*
X144473359Y-90500000D01*
X146609061Y-90500000D01*
X146708658Y-90529286D01*
X146801829Y-90554668D01*
X146888575Y-90576145D01*
X146968895Y-90593717D01*
X147042789Y-90607384D01*
X147110258Y-90617146D01*
X147171302Y-90623003D01*
X147225919Y-90624956D01*
X147225920Y-90624956D01*
X147280075Y-90623686D01*
X147330737Y-90619879D01*
X147377905Y-90613534D01*
X147421579Y-90604650D01*
X147461760Y-90593229D01*
X147480539Y-90586566D01*
X147498446Y-90579269D01*
X147515479Y-90571337D01*
X147531638Y-90562771D01*
X147546924Y-90553570D01*
X147561337Y-90543734D01*
X147574875Y-90533264D01*
X147587541Y-90522160D01*
X147599333Y-90510421D01*
X147610251Y-90498047D01*
X147620297Y-90485039D01*
X147629468Y-90471397D01*
X147637766Y-90457119D01*
X147645191Y-90442208D01*
X147651742Y-90426661D01*
X147657419Y-90410481D01*
X147662224Y-90393665D01*
X147666154Y-90376215D01*
X147669211Y-90358131D01*
X147671395Y-90339412D01*
X147672705Y-90320058D01*
X147673142Y-90300070D01*
X147672018Y-90259186D01*
X147668644Y-90219005D01*
X147663022Y-90179527D01*
X147655150Y-90140752D01*
X147645030Y-90102679D01*
X147632661Y-90065309D01*
X147618043Y-90028643D01*
X147601175Y-89992679D01*
X147582059Y-89957418D01*
X147560694Y-89922860D01*
X147537080Y-89889004D01*
X147511217Y-89855852D01*
X147483105Y-89823402D01*
X147452744Y-89791656D01*
X147420134Y-89760612D01*
X147385275Y-89730271D01*
X147349171Y-89701317D01*
X147311541Y-89673182D01*
X147272385Y-89645867D01*
X147231703Y-89619373D01*
X147189494Y-89593698D01*
X147145760Y-89568844D01*
X147100500Y-89544809D01*
X147053713Y-89521595D01*
X147005400Y-89499200D01*
X146955562Y-89477626D01*
X146904197Y-89456871D01*
X146851306Y-89436937D01*
X146796889Y-89417823D01*
X146740946Y-89399528D01*
X146683477Y-89382054D01*
X146624482Y-89365400D01*
X146609061Y-90500000D01*
X144473359Y-90500000D01*
X144474794Y-90488754D01*
X144480034Y-90458218D01*
X144486440Y-90429087D01*
X144494010Y-90401363D01*
X144502745Y-90375044D01*
X144512644Y-90350131D01*
X144523709Y-90326624D01*
X144535937Y-90304522D01*
X144549331Y-90283826D01*
X144563889Y-90264536D01*
X144579611Y-90246652D01*
X144596499Y-90230173D01*
X144614551Y-90215100D01*
X144634370Y-90201785D01*
X144655273Y-90189328D01*
X144677261Y-90177731D01*
X144700333Y-90166992D01*
X144724489Y-90157113D01*
X144749729Y-90148093D01*
X144776054Y-90139932D01*
X144803464Y-90132629D01*
X144831957Y-90126186D01*
X144861535Y-90120602D01*
X144892197Y-90115878D01*
X144923944Y-90112012D01*
X144956775Y-90109005D01*
X144990690Y-90106857D01*
X145025689Y-90105569D01*
X145061773Y-90105139D01*
X145100688Y-90106018D01*
X145142896Y-90108654D01*
X145188398Y-90113047D01*
X145237192Y-90119197D01*
X145289280Y-90127104D01*
X145344661Y-90136769D01*
X145465302Y-90161369D01*
X145599115Y-90192999D01*
X145746101Y-90231657D01*
X145906259Y-90277344D01*
X146079590Y-90330060D01*
X146093084Y-90008611D01*
X146102722Y-89734020D01*
X146108505Y-89506288D01*
X146110433Y-89325414D01*
X146110433Y-89255439D01*
X145966901Y-89234352D01*
X145821602Y-89216077D01*
X145674536Y-89200614D01*
X145525702Y-89187962D01*
X145375102Y-89178122D01*
X145222735Y-89171093D01*
X145068600Y-89166876D01*
X144912699Y-89165470D01*
X144878683Y-89164670D01*
X144846033Y-89162268D01*
X144814749Y-89158266D01*
X144784829Y-89152662D01*
X144756276Y-89145458D01*
X144729087Y-89136652D01*
X144703264Y-89126246D01*
X144678807Y-89114238D01*
X144655715Y-89100630D01*
X144633988Y-89085420D01*
X144613627Y-89068610D01*
X144594631Y-89050198D01*
X144577001Y-89030186D01*
X144560736Y-89008573D01*
X144545837Y-88985358D01*
X144532303Y-88960543D01*
X144509492Y-88913372D01*
X144487323Y-88866826D01*
X144465798Y-88820904D01*
X144444914Y-88775608D01*
X144439935Y-88764928D01*
X144435276Y-88754131D01*
X144430939Y-88743217D01*
X144426923Y-88732186D01*
X144423228Y-88721037D01*
X144419855Y-88709772D01*
X144416802Y-88698389D01*
X144414072Y-88686889D01*
X144411662Y-88675272D01*
X144409574Y-88663538D01*
X144407807Y-88651687D01*
X144406361Y-88639718D01*
X144405236Y-88627633D01*
X144404433Y-88615430D01*
X144403951Y-88603110D01*
X144403790Y-88590673D01*
X144404242Y-88575297D01*
X144405598Y-88560410D01*
X144407857Y-88546011D01*
X144411019Y-88532100D01*
X144415086Y-88518677D01*
X144420055Y-88505742D01*
X144425929Y-88493295D01*
X144432706Y-88481336D01*
X144440386Y-88469866D01*
X144448971Y-88458883D01*
X144458458Y-88448389D01*
X144468850Y-88438383D01*
X144480145Y-88428865D01*
X144492344Y-88419835D01*
X144505446Y-88411293D01*
X144519452Y-88403239D01*
X144534361Y-88395673D01*
X144550174Y-88388596D01*
X144566891Y-88382006D01*
X144584511Y-88375905D01*
X144603035Y-88370292D01*
X144622462Y-88365167D01*
X144642793Y-88360529D01*
X144664028Y-88356381D01*
X144686166Y-88352720D01*
X144709208Y-88349547D01*
X144733153Y-88346862D01*
X144758002Y-88344666D01*
X144783755Y-88342958D01*
X144810411Y-88341737D01*
X144837971Y-88341005D01*
X144866435Y-88340761D01*
X144925289Y-88341562D01*
X144986192Y-88343963D01*
X145049143Y-88347966D01*
X145114142Y-88353569D01*
X145250285Y-88369579D01*
X145394620Y-88391993D01*
X145547148Y-88420811D01*
X145707868Y-88456033D01*
X145876782Y-88497659D01*
X146053888Y-88545689D01*
X146041036Y-88438851D01*
X146028185Y-88338262D01*
X146015334Y-88243920D01*
X146002483Y-88155826D01*
X145996459Y-88115684D01*
X145991238Y-88077729D01*
X145986820Y-88041960D01*
X145983206Y-88008378D01*
X145980395Y-87976983D01*
X145978387Y-87947775D01*
X145977182Y-87920753D01*
X145976780Y-87895918D01*
X145976981Y-87884418D01*
X145977583Y-87873660D01*
X145978587Y-87863644D01*
X145979993Y-87854370D01*
X145981800Y-87845838D01*
X145984009Y-87838048D01*
X145986619Y-87830999D01*
X145989631Y-87824693D01*
X145993045Y-87819129D01*
X145994902Y-87816625D01*
X145996860Y-87814306D01*
X145998918Y-87812173D01*
X146001077Y-87810225D01*
X146003336Y-87808463D01*
X146005695Y-87806887D01*
X146008155Y-87805496D01*
X146010715Y-87804290D01*
X146013376Y-87803270D01*
X146016137Y-87802435D01*
X146018998Y-87801786D01*
X146021960Y-87801322D01*
X146025022Y-87801044D01*
X146028185Y-87800951D01*
X146037829Y-87801191D01*
G37*
D11*
X145413295Y-101256265D02*
X145413295Y-101732455D01*
X145127580Y-101161027D02*
X146127580Y-101494360D01*
X146127580Y-101494360D02*
X145127580Y-101827693D01*
X146127580Y-102018170D02*
X145127580Y-102351503D01*
X145127580Y-102351503D02*
X146127580Y-102684836D01*
X145127580Y-103589598D02*
X145603771Y-103256265D01*
X145127580Y-103018170D02*
X146127580Y-103018170D01*
X146127580Y-103018170D02*
X146127580Y-103399122D01*
X146127580Y-103399122D02*
X146079961Y-103494360D01*
X146079961Y-103494360D02*
X146032342Y-103541979D01*
X146032342Y-103541979D02*
X145937104Y-103589598D01*
X145937104Y-103589598D02*
X145794247Y-103589598D01*
X145794247Y-103589598D02*
X145699009Y-103541979D01*
X145699009Y-103541979D02*
X145651390Y-103494360D01*
X145651390Y-103494360D02*
X145603771Y-103399122D01*
X145603771Y-103399122D02*
X145603771Y-103018170D01*
X153023239Y-86690476D02*
X153023239Y-87166666D01*
X152737524Y-86595238D02*
X153737524Y-86928571D01*
X153737524Y-86928571D02*
X152737524Y-87261904D01*
X152737524Y-87595238D02*
X153404191Y-87595238D01*
X153308953Y-87595238D02*
X153356572Y-87642857D01*
X153356572Y-87642857D02*
X153404191Y-87738095D01*
X153404191Y-87738095D02*
X153404191Y-87880952D01*
X153404191Y-87880952D02*
X153356572Y-87976190D01*
X153356572Y-87976190D02*
X153261334Y-88023809D01*
X153261334Y-88023809D02*
X152737524Y-88023809D01*
X153261334Y-88023809D02*
X153356572Y-88071428D01*
X153356572Y-88071428D02*
X153404191Y-88166666D01*
X153404191Y-88166666D02*
X153404191Y-88309523D01*
X153404191Y-88309523D02*
X153356572Y-88404762D01*
X153356572Y-88404762D02*
X153261334Y-88452381D01*
X153261334Y-88452381D02*
X152737524Y-88452381D01*
X152737524Y-88928571D02*
X153404191Y-88928571D01*
X153737524Y-88928571D02*
X153689905Y-88880952D01*
X153689905Y-88880952D02*
X153642286Y-88928571D01*
X153642286Y-88928571D02*
X153689905Y-88976190D01*
X153689905Y-88976190D02*
X153737524Y-88928571D01*
X153737524Y-88928571D02*
X153642286Y-88928571D01*
X153404191Y-89261904D02*
X153404191Y-89642856D01*
X153737524Y-89404761D02*
X152880382Y-89404761D01*
X152880382Y-89404761D02*
X152785144Y-89452380D01*
X152785144Y-89452380D02*
X152737524Y-89547618D01*
X152737524Y-89547618D02*
X152737524Y-89642856D01*
X153404191Y-89880952D02*
X152737524Y-90119047D01*
X153404191Y-90357142D02*
X152737524Y-90119047D01*
X152737524Y-90119047D02*
X152499429Y-90023809D01*
X152499429Y-90023809D02*
X152451810Y-89976190D01*
X152451810Y-89976190D02*
X152404191Y-89880952D01*
X153261334Y-91833333D02*
X153261334Y-91500000D01*
X152737524Y-91500000D02*
X153737524Y-91500000D01*
X153737524Y-91500000D02*
X153737524Y-91976190D01*
X152737524Y-92357143D02*
X153404191Y-92357143D01*
X153737524Y-92357143D02*
X153689905Y-92309524D01*
X153689905Y-92309524D02*
X153642286Y-92357143D01*
X153642286Y-92357143D02*
X153689905Y-92404762D01*
X153689905Y-92404762D02*
X153737524Y-92357143D01*
X153737524Y-92357143D02*
X153642286Y-92357143D01*
X153404191Y-92833333D02*
X152737524Y-92833333D01*
X153308953Y-92833333D02*
X153356572Y-92880952D01*
X153356572Y-92880952D02*
X153404191Y-92976190D01*
X153404191Y-92976190D02*
X153404191Y-93119047D01*
X153404191Y-93119047D02*
X153356572Y-93214285D01*
X153356572Y-93214285D02*
X153261334Y-93261904D01*
X153261334Y-93261904D02*
X152737524Y-93261904D01*
X152127580Y-88476191D02*
X151127580Y-88809524D01*
X151127580Y-88809524D02*
X152127580Y-89142857D01*
X151127580Y-90000000D02*
X151127580Y-89428572D01*
X151127580Y-89714286D02*
X152127580Y-89714286D01*
X152127580Y-89714286D02*
X151984723Y-89619048D01*
X151984723Y-89619048D02*
X151889485Y-89523810D01*
X151889485Y-89523810D02*
X151841866Y-89428572D01*
X151222819Y-90428572D02*
X151175200Y-90476191D01*
X151175200Y-90476191D02*
X151127580Y-90428572D01*
X151127580Y-90428572D02*
X151175200Y-90380953D01*
X151175200Y-90380953D02*
X151222819Y-90428572D01*
X151222819Y-90428572D02*
X151127580Y-90428572D01*
X152127580Y-91095238D02*
X152127580Y-91190476D01*
X152127580Y-91190476D02*
X152079961Y-91285714D01*
X152079961Y-91285714D02*
X152032342Y-91333333D01*
X152032342Y-91333333D02*
X151937104Y-91380952D01*
X151937104Y-91380952D02*
X151746628Y-91428571D01*
X151746628Y-91428571D02*
X151508533Y-91428571D01*
X151508533Y-91428571D02*
X151318057Y-91380952D01*
X151318057Y-91380952D02*
X151222819Y-91333333D01*
X151222819Y-91333333D02*
X151175200Y-91285714D01*
X151175200Y-91285714D02*
X151127580Y-91190476D01*
X151127580Y-91190476D02*
X151127580Y-91095238D01*
X151127580Y-91095238D02*
X151175200Y-91000000D01*
X151175200Y-91000000D02*
X151222819Y-90952381D01*
X151222819Y-90952381D02*
X151318057Y-90904762D01*
X151318057Y-90904762D02*
X151508533Y-90857143D01*
X151508533Y-90857143D02*
X151746628Y-90857143D01*
X151746628Y-90857143D02*
X151937104Y-90904762D01*
X151937104Y-90904762D02*
X152032342Y-90952381D01*
X152032342Y-90952381D02*
X152079961Y-91000000D01*
X152079961Y-91000000D02*
X152127580Y-91095238D01*
X146127580Y-77161027D02*
X146127580Y-77732455D01*
X145127580Y-77446741D02*
X146127580Y-77446741D01*
X146127580Y-77922932D02*
X145127580Y-78256265D01*
X145127580Y-78256265D02*
X146127580Y-78589598D01*
D12*
X123333333Y-86524819D02*
X123000000Y-86048628D01*
X122761905Y-86524819D02*
X122761905Y-85524819D01*
X122761905Y-85524819D02*
X123142857Y-85524819D01*
X123142857Y-85524819D02*
X123238095Y-85572438D01*
X123238095Y-85572438D02*
X123285714Y-85620057D01*
X123285714Y-85620057D02*
X123333333Y-85715295D01*
X123333333Y-85715295D02*
X123333333Y-85858152D01*
X123333333Y-85858152D02*
X123285714Y-85953390D01*
X123285714Y-85953390D02*
X123238095Y-86001009D01*
X123238095Y-86001009D02*
X123142857Y-86048628D01*
X123142857Y-86048628D02*
X122761905Y-86048628D01*
X124285714Y-86524819D02*
X123714286Y-86524819D01*
X124000000Y-86524819D02*
X124000000Y-85524819D01*
X124000000Y-85524819D02*
X123904762Y-85667676D01*
X123904762Y-85667676D02*
X123809524Y-85762914D01*
X123809524Y-85762914D02*
X123714286Y-85810533D01*
X134583333Y-86145180D02*
X134583333Y-85430895D01*
X134583333Y-85430895D02*
X134630952Y-85288038D01*
X134630952Y-85288038D02*
X134726190Y-85192800D01*
X134726190Y-85192800D02*
X134869047Y-85145180D01*
X134869047Y-85145180D02*
X134964285Y-85145180D01*
X133583333Y-85145180D02*
X134154761Y-85145180D01*
X133869047Y-85145180D02*
X133869047Y-86145180D01*
X133869047Y-86145180D02*
X133964285Y-86002323D01*
X133964285Y-86002323D02*
X134059523Y-85907085D01*
X134059523Y-85907085D02*
X134154761Y-85859466D01*
X122731905Y-92034819D02*
X122731905Y-91034819D01*
X122731905Y-91034819D02*
X122970000Y-91034819D01*
X122970000Y-91034819D02*
X123112857Y-91082438D01*
X123112857Y-91082438D02*
X123208095Y-91177676D01*
X123208095Y-91177676D02*
X123255714Y-91272914D01*
X123255714Y-91272914D02*
X123303333Y-91463390D01*
X123303333Y-91463390D02*
X123303333Y-91606247D01*
X123303333Y-91606247D02*
X123255714Y-91796723D01*
X123255714Y-91796723D02*
X123208095Y-91891961D01*
X123208095Y-91891961D02*
X123112857Y-91987200D01*
X123112857Y-91987200D02*
X122970000Y-92034819D01*
X122970000Y-92034819D02*
X122731905Y-92034819D01*
X124255714Y-92034819D02*
X123684286Y-92034819D01*
X123970000Y-92034819D02*
X123970000Y-91034819D01*
X123970000Y-91034819D02*
X123874762Y-91177676D01*
X123874762Y-91177676D02*
X123779524Y-91272914D01*
X123779524Y-91272914D02*
X123684286Y-91320533D01*
D13*
%TO.C,R1*%
X123262742Y-86977500D02*
X123737258Y-86977500D01*
X123262742Y-88022500D02*
X123737258Y-88022500D01*
%TO.C,J1*%
X126630000Y-81400000D02*
X126630000Y-78700000D01*
X129150000Y-83120000D02*
X128100000Y-83120000D01*
X129150000Y-84450000D02*
X129150000Y-83120000D01*
X140400000Y-83120000D02*
X138850000Y-83120000D01*
X141870000Y-78700000D02*
X141870000Y-81400000D01*
%TO.C,D1*%
X122035000Y-89305000D02*
X122035000Y-90775000D01*
X122035000Y-90775000D02*
X124320000Y-90775000D01*
X124320000Y-89305000D02*
X122035000Y-89305000D01*
%TD*%
M02*
