%TF.GenerationSoftware,KiCad,Pcbnew,9.0.6*%
%TF.CreationDate,2025-12-18T20:09:51-08:00*%
%TF.ProjectId,hdmi,68646d69-2e6b-4696-9361-645f70636258,rev?*%
%TF.SameCoordinates,Original*%
%TF.FileFunction,Copper,L4,Bot*%
%TF.FilePolarity,Positive*%
%FSLAX46Y46*%
G04 Gerber Fmt 4.6, Leading zero omitted, Abs format (unit mm)*
G04 Created by KiCad (PCBNEW 9.0.6) date 2025-12-18 20:09:51*
%MOMM*%
%LPD*%
G01*
G04 APERTURE LIST*
G04 Aperture macros list*
%AMRoundRect*
0 Rectangle with rounded corners*
0 $1 Rounding radius*
0 $2 $3 $4 $5 $6 $7 $8 $9 X,Y pos of 4 corners*
0 Add a 4 corners polygon primitive as box body*
4,1,4,$2,$3,$4,$5,$6,$7,$8,$9,$2,$3,0*
0 Add four circle primitives for the rounded corners*
1,1,$1+$1,$2,$3*
1,1,$1+$1,$4,$5*
1,1,$1+$1,$6,$7*
1,1,$1+$1,$8,$9*
0 Add four rect primitives between the rounded corners*
20,1,$1+$1,$2,$3,$4,$5,0*
20,1,$1+$1,$4,$5,$6,$7,0*
20,1,$1+$1,$6,$7,$8,$9,0*
20,1,$1+$1,$8,$9,$2,$3,0*%
G04 Aperture macros list end*
%TA.AperFunction,ComponentPad*%
%ADD10C,5.000000*%
%TD*%
%TA.AperFunction,ComponentPad*%
%ADD11C,1.800000*%
%TD*%
%TA.AperFunction,SMDPad,CuDef*%
%ADD12RoundRect,0.218750X-0.218750X-0.256250X0.218750X-0.256250X0.218750X0.256250X-0.218750X0.256250X0*%
%TD*%
%TA.AperFunction,ComponentPad*%
%ADD13R,1.700000X1.700000*%
%TD*%
%TA.AperFunction,ComponentPad*%
%ADD14C,1.700000*%
%TD*%
%TA.AperFunction,SMDPad,CuDef*%
%ADD15RoundRect,0.200000X-0.200000X-0.275000X0.200000X-0.275000X0.200000X0.275000X-0.200000X0.275000X0*%
%TD*%
%TA.AperFunction,SMDPad,CuDef*%
%ADD16R,0.300000X1.900000*%
%TD*%
%TA.AperFunction,ViaPad*%
%ADD17C,0.600000*%
%TD*%
%TA.AperFunction,Conductor*%
%ADD18C,0.300000*%
%TD*%
G04 APERTURE END LIST*
D10*
%TO.P,H2,1,1*%
%TO.N,GND*%
X150000000Y-80000000D03*
%TD*%
%TO.P,H4,1,1*%
%TO.N,GND*%
X150000000Y-100000000D03*
%TD*%
%TO.P,H1,1,1*%
%TO.N,GND*%
X120000000Y-80000000D03*
%TD*%
D11*
%TO.P,J1,SH,SH*%
%TO.N,GND*%
X142100000Y-77600000D03*
X141500000Y-82500000D03*
X127000000Y-82500000D03*
X126400000Y-77600000D03*
%TD*%
D10*
%TO.P,H3,1,1*%
%TO.N,GND*%
X120000000Y-100000000D03*
%TD*%
D12*
%TO.P,D2,1,K*%
%TO.N,Net-(D2-K)*%
X122732500Y-92600000D03*
%TO.P,D2,2,A*%
%TO.N,Net-(D2-A)*%
X124307500Y-92600000D03*
%TD*%
D13*
%TO.P,J3,1,Pin_1*%
%TO.N,unconnected-(J3-Pin_1-Pad1)*%
X120040000Y-92580000D03*
D14*
%TO.P,J3,2,Pin_2*%
%TO.N,GND*%
X117500000Y-92580000D03*
%TO.P,J3,3,Pin_3*%
%TO.N,unconnected-(J3-Pin_3-Pad3)*%
X120040000Y-90040000D03*
%TO.P,J3,4,Pin_4*%
%TO.N,Net-(D2-K)*%
X117500000Y-90040000D03*
%TO.P,J3,5,Pin_5*%
%TO.N,VDD*%
X120040000Y-87500000D03*
%TO.P,J3,6,Pin_6*%
%TO.N,Net-(D1-K)*%
X117500000Y-87500000D03*
%TD*%
D15*
%TO.P,R2,1*%
%TO.N,VDD*%
X122675000Y-87500000D03*
%TO.P,R2,2*%
%TO.N,Net-(D2-A)*%
X124325000Y-87500000D03*
%TD*%
D16*
%TO.P,J2,1,D2+*%
%TO.N,/D2+*%
X129500000Y-96500000D03*
%TO.P,J2,2,D2S*%
%TO.N,GND*%
X130000000Y-96500000D03*
%TO.P,J2,3,D2-*%
%TO.N,/D2-*%
X130500000Y-96500000D03*
%TO.P,J2,4,D1+*%
%TO.N,/D1+*%
X131000000Y-96500000D03*
%TO.P,J2,5,D1S*%
%TO.N,GND*%
X131500000Y-96500000D03*
%TO.P,J2,6,D1-*%
%TO.N,/D1-*%
X132000000Y-96500000D03*
%TO.P,J2,7,D0+*%
%TO.N,/D0+*%
X132500000Y-96500000D03*
%TO.P,J2,8,D0S*%
%TO.N,GND*%
X133000000Y-96500000D03*
%TO.P,J2,9,D0-*%
%TO.N,/D0-*%
X133500000Y-96500000D03*
%TO.P,J2,10,CK+*%
%TO.N,/CK+*%
X134000000Y-96500000D03*
%TO.P,J2,11,CKS*%
%TO.N,GND*%
X134500000Y-96500000D03*
%TO.P,J2,12,CK-*%
%TO.N,/CK-*%
X135000000Y-96500000D03*
%TO.P,J2,13,CEC*%
%TO.N,Net-(D2-K)*%
X135500000Y-96500000D03*
%TO.P,J2,14,UTILITY*%
%TO.N,Net-(J1-UTILITY)*%
X136000000Y-96500000D03*
%TO.P,J2,15,SCL*%
%TO.N,Net-(J1-SCL)*%
X136500000Y-96500000D03*
%TO.P,J2,16,SDA*%
%TO.N,Net-(J1-SDA)*%
X137000000Y-96500000D03*
%TO.P,J2,17,GND*%
%TO.N,GND*%
X137500000Y-96500000D03*
%TO.P,J2,18,+5V*%
%TO.N,Net-(J1-+5V)*%
X138000000Y-96500000D03*
%TO.P,J2,19,HPD*%
%TO.N,Net-(J1-HPD)*%
X138500000Y-96500000D03*
D11*
%TO.P,J2,SH,SH*%
%TO.N,GND*%
X142100000Y-102400000D03*
X141500000Y-97500000D03*
X127000000Y-97500000D03*
X126400000Y-102400000D03*
%TD*%
D17*
%TO.N,Net-(J1-HPD)*%
X138600000Y-92500000D03*
%TO.N,Net-(J1-SDA)*%
X137200000Y-90000000D03*
%TO.N,Net-(J1-UTILITY)*%
X135900000Y-85750000D03*
%TO.N,Net-(J1-SCL)*%
X136600000Y-92500000D03*
%TO.N,/D0+*%
X132600000Y-85750000D03*
%TO.N,/D1+*%
X131100000Y-94250000D03*
%TO.N,/D2+*%
X129600000Y-85750000D03*
%TO.N,/D1-*%
X131900000Y-94250000D03*
%TO.N,/D0-*%
X133400000Y-85750000D03*
%TO.N,/D2-*%
X130400000Y-85750000D03*
%TO.N,/CK+*%
X134100000Y-94250000D03*
%TO.N,/CK-*%
X134900000Y-94250000D03*
%TO.N,GND*%
X132500000Y-100000000D03*
X129000000Y-89500000D03*
X150000000Y-87000000D03*
X145500000Y-81000000D03*
X130000000Y-80000000D03*
X130000000Y-82000000D03*
X150000000Y-90000000D03*
X148000000Y-93000000D03*
X129000000Y-92500000D03*
X150000000Y-95000000D03*
X145500000Y-99000000D03*
X129000000Y-90500000D03*
X141500000Y-88000000D03*
X145500000Y-85000000D03*
X130000000Y-98000000D03*
X145500000Y-95000000D03*
X150000000Y-86000000D03*
X150000000Y-91000000D03*
X150000000Y-92000000D03*
X145500000Y-97000000D03*
X133000000Y-98000000D03*
X145500000Y-87000000D03*
X139250000Y-89000000D03*
X129000000Y-91500000D03*
X150000000Y-93000000D03*
X129000000Y-88500000D03*
X137500000Y-82000000D03*
X148000000Y-87000000D03*
X141500000Y-92000000D03*
X134500000Y-98000000D03*
X145500000Y-83000000D03*
X141500000Y-85000000D03*
X120000000Y-95000000D03*
X141500000Y-87000000D03*
X150000000Y-94000000D03*
X132500000Y-80000000D03*
X150000000Y-85000000D03*
X141500000Y-94000000D03*
X141500000Y-93000000D03*
X141500000Y-90000000D03*
X120000000Y-85000000D03*
X139250000Y-88000000D03*
X150000000Y-89000000D03*
X143500000Y-87000000D03*
X130000000Y-100000000D03*
X139250000Y-90000000D03*
X139250000Y-86000000D03*
X141500000Y-89000000D03*
X141500000Y-95000000D03*
X131500000Y-82000000D03*
X150000000Y-88000000D03*
X137500000Y-100000000D03*
X141500000Y-91000000D03*
X139250000Y-87000000D03*
X134500000Y-82000000D03*
X139250000Y-91000000D03*
X143500000Y-93000000D03*
X129000000Y-86500000D03*
X143500000Y-90000000D03*
X135000000Y-80000000D03*
X129000000Y-87500000D03*
X137500000Y-80000000D03*
X129000000Y-94500000D03*
X137500000Y-98000000D03*
X133000000Y-82000000D03*
X129000000Y-93500000D03*
X141500000Y-86000000D03*
X135000000Y-100000000D03*
X131500000Y-98000000D03*
X139250000Y-94000000D03*
X145500000Y-93000000D03*
%TO.N,Net-(J1-+5V)*%
X138000000Y-87500000D03*
%TD*%
D18*
%TO.N,Net-(J1-HPD)*%
X138600000Y-92500000D02*
X138500000Y-92600000D01*
X138500000Y-92600000D02*
X138500000Y-96500000D01*
%TO.N,Net-(J1-SDA)*%
X137200000Y-90000000D02*
X137200000Y-95050000D01*
X137200000Y-95050000D02*
X137000000Y-95250000D01*
X137000000Y-95250000D02*
X137000000Y-96500000D01*
%TO.N,Net-(J1-UTILITY)*%
X136000000Y-85850000D02*
X136000000Y-96500000D01*
X135900000Y-85750000D02*
X136000000Y-85850000D01*
%TO.N,Net-(J1-SCL)*%
X136500000Y-92600000D02*
X136500000Y-96500000D01*
X136600000Y-92500000D02*
X136500000Y-92600000D01*
%TO.N,/D0+*%
X132600000Y-85750000D02*
X132750000Y-85900000D01*
X132500000Y-95074999D02*
X132500000Y-96500000D01*
X132750000Y-94824999D02*
X132500000Y-95074999D01*
X132750000Y-85900000D02*
X132750000Y-94824999D01*
%TO.N,/D1+*%
X131000000Y-96500000D02*
X131000000Y-95074999D01*
X131000000Y-95074999D02*
X131250000Y-94824999D01*
X131250000Y-94824999D02*
X131250000Y-94400000D01*
X131250000Y-94400000D02*
X131100000Y-94250000D01*
%TO.N,/D2+*%
X129750000Y-94824999D02*
X129500000Y-95074999D01*
X129600000Y-85750000D02*
X129750000Y-85900000D01*
X129500000Y-95074999D02*
X129500000Y-96500000D01*
X129750000Y-85900000D02*
X129750000Y-94824999D01*
%TO.N,/D1-*%
X132000000Y-96500000D02*
X132000000Y-95074999D01*
X131750000Y-94400000D02*
X131900000Y-94250000D01*
X131750000Y-94824999D02*
X131750000Y-94400000D01*
X132000000Y-95074999D02*
X131750000Y-94824999D01*
%TO.N,/D0-*%
X133250000Y-94824999D02*
X133500000Y-95074999D01*
X133500000Y-95074999D02*
X133500000Y-96500000D01*
X133250000Y-85900000D02*
X133250000Y-94824999D01*
X133400000Y-85750000D02*
X133250000Y-85900000D01*
%TO.N,/D2-*%
X130500000Y-95074999D02*
X130500000Y-96500000D01*
X130250000Y-94824999D02*
X130500000Y-95074999D01*
X130400000Y-85750000D02*
X130250000Y-85900000D01*
X130250000Y-85900000D02*
X130250000Y-94824999D01*
%TO.N,/CK+*%
X134250000Y-94400000D02*
X134100000Y-94250000D01*
X134000000Y-95074999D02*
X134250000Y-94824999D01*
X134000000Y-96500000D02*
X134000000Y-95074999D01*
X134250000Y-94824999D02*
X134250000Y-94400000D01*
%TO.N,/CK-*%
X134750000Y-94400000D02*
X134900000Y-94250000D01*
X135000000Y-95074999D02*
X134750000Y-94824999D01*
X135000000Y-96500000D02*
X135000000Y-95074999D01*
X134750000Y-94824999D02*
X134750000Y-94400000D01*
%TO.N,GND*%
X134500000Y-96500000D02*
X134500000Y-98000000D01*
X131500000Y-96500000D02*
X131500000Y-98000000D01*
X133000000Y-96500000D02*
X133000000Y-98000000D01*
X130000000Y-96500000D02*
X130000000Y-98000000D01*
X137500000Y-96500000D02*
X137500000Y-98000000D01*
%TO.N,Net-(J1-+5V)*%
X138000000Y-87500000D02*
X138000000Y-96500000D01*
%TO.N,Net-(D2-A)*%
X124307500Y-87517500D02*
X124325000Y-87500000D01*
X124307500Y-92600000D02*
X124307500Y-87517500D01*
%TO.N,Net-(D2-K)*%
X118889000Y-91429000D02*
X117500000Y-90040000D01*
X122732500Y-94930971D02*
X122732500Y-92600000D01*
X126502529Y-98701000D02*
X122732500Y-94930971D01*
X135500000Y-96500000D02*
X135500000Y-97849943D01*
X122732500Y-92600000D02*
X121561500Y-91429000D01*
X134648943Y-98701000D02*
X126502529Y-98701000D01*
X135500000Y-97849943D02*
X134648943Y-98701000D01*
X121561500Y-91429000D02*
X118889000Y-91429000D01*
%TO.N,VDD*%
X122675000Y-87500000D02*
X120040000Y-87500000D01*
%TD*%
M02*
