%TF.GenerationSoftware,KiCad,Pcbnew,9.0.6*%
%TF.CreationDate,2025-12-18T20:09:51-08:00*%
%TF.ProjectId,hdmi,68646d69-2e6b-4696-9361-645f70636258,rev?*%
%TF.SameCoordinates,Original*%
%TF.FileFunction,Copper,L2,Inr*%
%TF.FilePolarity,Positive*%
%FSLAX46Y46*%
G04 Gerber Fmt 4.6, Leading zero omitted, Abs format (unit mm)*
G04 Created by KiCad (PCBNEW 9.0.6) date 2025-12-18 20:09:51*
%MOMM*%
%LPD*%
G01*
G04 APERTURE LIST*
%TA.AperFunction,ComponentPad*%
%ADD10C,5.000000*%
%TD*%
%TA.AperFunction,ComponentPad*%
%ADD11C,1.800000*%
%TD*%
%TA.AperFunction,ComponentPad*%
%ADD12R,1.700000X1.700000*%
%TD*%
%TA.AperFunction,ComponentPad*%
%ADD13C,1.700000*%
%TD*%
%TA.AperFunction,ViaPad*%
%ADD14C,0.600000*%
%TD*%
G04 APERTURE END LIST*
D10*
%TO.N,GND*%
%TO.C,H2*%
X150000000Y-80000000D03*
%TD*%
%TO.N,GND*%
%TO.C,H4*%
X150000000Y-100000000D03*
%TD*%
%TO.N,GND*%
%TO.C,H1*%
X120000000Y-80000000D03*
%TD*%
D11*
%TO.N,GND*%
%TO.C,J1*%
X142100000Y-77600000D03*
X141500000Y-82500000D03*
X127000000Y-82500000D03*
X126400000Y-77600000D03*
%TD*%
D10*
%TO.N,GND*%
%TO.C,H3*%
X120000000Y-100000000D03*
%TD*%
D12*
%TO.N,unconnected-(J3-Pin_1-Pad1)*%
%TO.C,J3*%
X120040000Y-92580000D03*
D13*
%TO.N,GND*%
X117500000Y-92580000D03*
%TO.N,unconnected-(J3-Pin_3-Pad3)*%
X120040000Y-90040000D03*
%TO.N,Net-(D2-K)*%
X117500000Y-90040000D03*
%TO.N,VDD*%
X120040000Y-87500000D03*
%TO.N,Net-(D1-K)*%
X117500000Y-87500000D03*
%TD*%
D11*
%TO.N,GND*%
%TO.C,J2*%
X142100000Y-102400000D03*
X141500000Y-97500000D03*
X127000000Y-97500000D03*
X126400000Y-102400000D03*
%TD*%
D14*
%TO.N,Net-(J1-HPD)*%
X138600000Y-92500000D03*
%TO.N,Net-(J1-SDA)*%
X137200000Y-90000000D03*
%TO.N,Net-(J1-UTILITY)*%
X135900000Y-85750000D03*
%TO.N,Net-(J1-SCL)*%
X136600000Y-92500000D03*
%TO.N,/D0+*%
X132600000Y-85750000D03*
%TO.N,/D1+*%
X131100000Y-94250000D03*
%TO.N,/D2+*%
X129600000Y-85750000D03*
%TO.N,/D1-*%
X131900000Y-94250000D03*
%TO.N,/D0-*%
X133400000Y-85750000D03*
%TO.N,/D2-*%
X130400000Y-85750000D03*
%TO.N,/CK+*%
X134100000Y-94250000D03*
%TO.N,/CK-*%
X134900000Y-94250000D03*
%TO.N,GND*%
X132500000Y-100000000D03*
X129000000Y-89500000D03*
X150000000Y-87000000D03*
X145500000Y-81000000D03*
X130000000Y-80000000D03*
X130000000Y-82000000D03*
X150000000Y-90000000D03*
X148000000Y-93000000D03*
X129000000Y-92500000D03*
X150000000Y-95000000D03*
X145500000Y-99000000D03*
X129000000Y-90500000D03*
X141500000Y-88000000D03*
X145500000Y-85000000D03*
X130000000Y-98000000D03*
X145500000Y-95000000D03*
X150000000Y-86000000D03*
X150000000Y-91000000D03*
X150000000Y-92000000D03*
X145500000Y-97000000D03*
X133000000Y-98000000D03*
X145500000Y-87000000D03*
X139250000Y-89000000D03*
X129000000Y-91500000D03*
X150000000Y-93000000D03*
X129000000Y-88500000D03*
X137500000Y-82000000D03*
X148000000Y-87000000D03*
X141500000Y-92000000D03*
X134500000Y-98000000D03*
X145500000Y-83000000D03*
X141500000Y-85000000D03*
X120000000Y-95000000D03*
X141500000Y-87000000D03*
X150000000Y-94000000D03*
X132500000Y-80000000D03*
X150000000Y-85000000D03*
X141500000Y-94000000D03*
X141500000Y-93000000D03*
X141500000Y-90000000D03*
X120000000Y-85000000D03*
X139250000Y-88000000D03*
X150000000Y-89000000D03*
X143500000Y-87000000D03*
X130000000Y-100000000D03*
X139250000Y-90000000D03*
X139250000Y-86000000D03*
X141500000Y-89000000D03*
X141500000Y-95000000D03*
X131500000Y-82000000D03*
X150000000Y-88000000D03*
X137500000Y-100000000D03*
X141500000Y-91000000D03*
X139250000Y-87000000D03*
X134500000Y-82000000D03*
X139250000Y-91000000D03*
X143500000Y-93000000D03*
X129000000Y-86500000D03*
X143500000Y-90000000D03*
X135000000Y-80000000D03*
X129000000Y-87500000D03*
X137500000Y-80000000D03*
X129000000Y-94500000D03*
X137500000Y-98000000D03*
X133000000Y-82000000D03*
X129000000Y-93500000D03*
X141500000Y-86000000D03*
X135000000Y-100000000D03*
X131500000Y-98000000D03*
X139250000Y-94000000D03*
X145500000Y-93000000D03*
%TO.N,Net-(J1-+5V)*%
X138000000Y-87500000D03*
%TD*%
%TA.AperFunction,Conductor*%
%TO.N,GND*%
G36*
X154442539Y-75520185D02*
G01*
X154488294Y-75572989D01*
X154499500Y-75624500D01*
X154499500Y-104375500D01*
X154479815Y-104442539D01*
X154427011Y-104488294D01*
X154375500Y-104499500D01*
X115624500Y-104499500D01*
X115557461Y-104479815D01*
X115511706Y-104427011D01*
X115500500Y-104375500D01*
X115500500Y-99831519D01*
X117000000Y-99831519D01*
X117000000Y-100168480D01*
X117037725Y-100503297D01*
X117037727Y-100503313D01*
X117112705Y-100831814D01*
X117112709Y-100831826D01*
X117223995Y-101149862D01*
X117370191Y-101453440D01*
X117549461Y-101738747D01*
X117708397Y-101938048D01*
X118956320Y-100690125D01*
X119046554Y-100814320D01*
X119185680Y-100953446D01*
X119309873Y-101043678D01*
X118061950Y-102291601D01*
X118261252Y-102450538D01*
X118546559Y-102629808D01*
X118850137Y-102776004D01*
X119168173Y-102887290D01*
X119168185Y-102887294D01*
X119496686Y-102962272D01*
X119496702Y-102962274D01*
X119831519Y-102999999D01*
X119831521Y-103000000D01*
X120168479Y-103000000D01*
X120168480Y-102999999D01*
X120503297Y-102962274D01*
X120503313Y-102962272D01*
X120831814Y-102887294D01*
X120831826Y-102887290D01*
X121149862Y-102776004D01*
X121453440Y-102629808D01*
X121738747Y-102450538D01*
X121938047Y-102291600D01*
X121938047Y-102291599D01*
X121936266Y-102289818D01*
X125000000Y-102289818D01*
X125000000Y-102510181D01*
X125034473Y-102727835D01*
X125102567Y-102937410D01*
X125202611Y-103133756D01*
X125248932Y-103197513D01*
X125798958Y-102647487D01*
X125823978Y-102707890D01*
X125895112Y-102814351D01*
X125985649Y-102904888D01*
X126092110Y-102976022D01*
X126152510Y-103001041D01*
X125602485Y-103551065D01*
X125602485Y-103551066D01*
X125666243Y-103597388D01*
X125862589Y-103697432D01*
X126072164Y-103765526D01*
X126289819Y-103800000D01*
X126510181Y-103800000D01*
X126727835Y-103765526D01*
X126937410Y-103697432D01*
X127133760Y-103597386D01*
X127197513Y-103551066D01*
X127197514Y-103551066D01*
X126647488Y-103001041D01*
X126707890Y-102976022D01*
X126814351Y-102904888D01*
X126904888Y-102814351D01*
X126976022Y-102707890D01*
X127001041Y-102647488D01*
X127551066Y-103197514D01*
X127551066Y-103197513D01*
X127597386Y-103133760D01*
X127697432Y-102937410D01*
X127765526Y-102727835D01*
X127800000Y-102510181D01*
X127800000Y-102289818D01*
X140700000Y-102289818D01*
X140700000Y-102510181D01*
X140734473Y-102727835D01*
X140802567Y-102937410D01*
X140902611Y-103133756D01*
X140948932Y-103197513D01*
X141498958Y-102647487D01*
X141523978Y-102707890D01*
X141595112Y-102814351D01*
X141685649Y-102904888D01*
X141792110Y-102976022D01*
X141852510Y-103001041D01*
X141302485Y-103551065D01*
X141302485Y-103551066D01*
X141366243Y-103597388D01*
X141562589Y-103697432D01*
X141772164Y-103765526D01*
X141989819Y-103800000D01*
X142210181Y-103800000D01*
X142427835Y-103765526D01*
X142637410Y-103697432D01*
X142833760Y-103597386D01*
X142897513Y-103551066D01*
X142897514Y-103551066D01*
X142347488Y-103001041D01*
X142407890Y-102976022D01*
X142514351Y-102904888D01*
X142604888Y-102814351D01*
X142676022Y-102707890D01*
X142701041Y-102647489D01*
X143251066Y-103197514D01*
X143251066Y-103197513D01*
X143297386Y-103133760D01*
X143397432Y-102937410D01*
X143465526Y-102727835D01*
X143500000Y-102510181D01*
X143500000Y-102289821D01*
X143495681Y-102262555D01*
X143495681Y-102262553D01*
X143465526Y-102072164D01*
X143397432Y-101862589D01*
X143297388Y-101666243D01*
X143251066Y-101602485D01*
X143251065Y-101602485D01*
X142701041Y-102152510D01*
X142676022Y-102092110D01*
X142604888Y-101985649D01*
X142514351Y-101895112D01*
X142407890Y-101823978D01*
X142347487Y-101798957D01*
X142897513Y-101248932D01*
X142833756Y-101202611D01*
X142637410Y-101102567D01*
X142427835Y-101034473D01*
X142210181Y-101000000D01*
X141989819Y-101000000D01*
X141772164Y-101034473D01*
X141562589Y-101102567D01*
X141366233Y-101202616D01*
X141302485Y-101248931D01*
X141302485Y-101248932D01*
X141852511Y-101798958D01*
X141792110Y-101823978D01*
X141685649Y-101895112D01*
X141595112Y-101985649D01*
X141523978Y-102092110D01*
X141498958Y-102152511D01*
X140948932Y-101602485D01*
X140948931Y-101602485D01*
X140902616Y-101666233D01*
X140802567Y-101862589D01*
X140734473Y-102072164D01*
X140700000Y-102289818D01*
X127800000Y-102289818D01*
X127765526Y-102072164D01*
X127697432Y-101862589D01*
X127597388Y-101666243D01*
X127551066Y-101602485D01*
X127551065Y-101602485D01*
X127001041Y-102152510D01*
X126976022Y-102092110D01*
X126904888Y-101985649D01*
X126814351Y-101895112D01*
X126707890Y-101823978D01*
X126647487Y-101798957D01*
X127197513Y-101248932D01*
X127133756Y-101202611D01*
X126937410Y-101102567D01*
X126727835Y-101034473D01*
X126510181Y-101000000D01*
X126289819Y-101000000D01*
X126072164Y-101034473D01*
X125862589Y-101102567D01*
X125666233Y-101202616D01*
X125602485Y-101248931D01*
X125602485Y-101248932D01*
X126152511Y-101798958D01*
X126092110Y-101823978D01*
X125985649Y-101895112D01*
X125895112Y-101985649D01*
X125823978Y-102092110D01*
X125798958Y-102152511D01*
X125248932Y-101602485D01*
X125248931Y-101602485D01*
X125202616Y-101666233D01*
X125102567Y-101862589D01*
X125034473Y-102072164D01*
X125000000Y-102289818D01*
X121936266Y-102289818D01*
X120690126Y-101043678D01*
X120814320Y-100953446D01*
X120953446Y-100814320D01*
X121043678Y-100690126D01*
X122291600Y-101938048D01*
X122450538Y-101738747D01*
X122629808Y-101453440D01*
X122731446Y-101242389D01*
X122776004Y-101149862D01*
X122887290Y-100831826D01*
X122887294Y-100831814D01*
X122962272Y-100503313D01*
X122962274Y-100503297D01*
X122999999Y-100168480D01*
X123000000Y-100168478D01*
X123000000Y-99831521D01*
X122999999Y-99831519D01*
X147000000Y-99831519D01*
X147000000Y-100168480D01*
X147037725Y-100503297D01*
X147037727Y-100503313D01*
X147112705Y-100831814D01*
X147112709Y-100831826D01*
X147223995Y-101149862D01*
X147370191Y-101453440D01*
X147549461Y-101738747D01*
X147708397Y-101938048D01*
X148956320Y-100690125D01*
X149046554Y-100814320D01*
X149185680Y-100953446D01*
X149309873Y-101043678D01*
X148061950Y-102291601D01*
X148261252Y-102450538D01*
X148546559Y-102629808D01*
X148850137Y-102776004D01*
X149168173Y-102887290D01*
X149168185Y-102887294D01*
X149496686Y-102962272D01*
X149496702Y-102962274D01*
X149831519Y-102999999D01*
X149831521Y-103000000D01*
X150168479Y-103000000D01*
X150168480Y-102999999D01*
X150503297Y-102962274D01*
X150503313Y-102962272D01*
X150831814Y-102887294D01*
X150831826Y-102887290D01*
X151149862Y-102776004D01*
X151453440Y-102629808D01*
X151738747Y-102450538D01*
X151938048Y-102291600D01*
X150690126Y-101043678D01*
X150814320Y-100953446D01*
X150953446Y-100814320D01*
X151043678Y-100690126D01*
X152291600Y-101938048D01*
X152450538Y-101738747D01*
X152629808Y-101453440D01*
X152776004Y-101149862D01*
X152887290Y-100831826D01*
X152887294Y-100831814D01*
X152962272Y-100503313D01*
X152962274Y-100503297D01*
X152999999Y-100168480D01*
X153000000Y-100168478D01*
X153000000Y-99831521D01*
X152999999Y-99831519D01*
X152962274Y-99496702D01*
X152962272Y-99496686D01*
X152887294Y-99168185D01*
X152887290Y-99168173D01*
X152776004Y-98850137D01*
X152629808Y-98546559D01*
X152450538Y-98261252D01*
X152291601Y-98061950D01*
X151043678Y-99309873D01*
X150953446Y-99185680D01*
X150814320Y-99046554D01*
X150690124Y-98956320D01*
X151938048Y-97708397D01*
X151738747Y-97549461D01*
X151453440Y-97370191D01*
X151149862Y-97223995D01*
X150831826Y-97112709D01*
X150831814Y-97112705D01*
X150503313Y-97037727D01*
X150503297Y-97037725D01*
X150168480Y-97000000D01*
X149831519Y-97000000D01*
X149496702Y-97037725D01*
X149496686Y-97037727D01*
X149168185Y-97112705D01*
X149168173Y-97112709D01*
X148850137Y-97223995D01*
X148546559Y-97370191D01*
X148261252Y-97549461D01*
X148061950Y-97708397D01*
X149309873Y-98956320D01*
X149185680Y-99046554D01*
X149046554Y-99185680D01*
X148956320Y-99309873D01*
X147708397Y-98061950D01*
X147549461Y-98261252D01*
X147370191Y-98546559D01*
X147223995Y-98850137D01*
X147112709Y-99168173D01*
X147112705Y-99168185D01*
X147037727Y-99496686D01*
X147037725Y-99496702D01*
X147000000Y-99831519D01*
X122999999Y-99831519D01*
X122962274Y-99496702D01*
X122962272Y-99496686D01*
X122887294Y-99168185D01*
X122887290Y-99168173D01*
X122776004Y-98850137D01*
X122683287Y-98657609D01*
X122629808Y-98546559D01*
X122450538Y-98261252D01*
X122291601Y-98061950D01*
X121043678Y-99309873D01*
X120953446Y-99185680D01*
X120814320Y-99046554D01*
X120690124Y-98956320D01*
X121938048Y-97708397D01*
X121738747Y-97549461D01*
X121644020Y-97489940D01*
X121484676Y-97389818D01*
X125600000Y-97389818D01*
X125600000Y-97610181D01*
X125634473Y-97827835D01*
X125702567Y-98037410D01*
X125802611Y-98233756D01*
X125848932Y-98297513D01*
X126398958Y-97747487D01*
X126423978Y-97807890D01*
X126495112Y-97914351D01*
X126585649Y-98004888D01*
X126692110Y-98076022D01*
X126752510Y-98101041D01*
X126202485Y-98651065D01*
X126202485Y-98651066D01*
X126266243Y-98697388D01*
X126462589Y-98797432D01*
X126672164Y-98865526D01*
X126889819Y-98900000D01*
X127110181Y-98900000D01*
X127327835Y-98865526D01*
X127537410Y-98797432D01*
X127733760Y-98697386D01*
X127797513Y-98651066D01*
X127797514Y-98651066D01*
X127247488Y-98101041D01*
X127307890Y-98076022D01*
X127414351Y-98004888D01*
X127504888Y-97914351D01*
X127576022Y-97807890D01*
X127601041Y-97747488D01*
X128151066Y-98297514D01*
X128151066Y-98297513D01*
X128197386Y-98233760D01*
X128297432Y-98037410D01*
X128365526Y-97827835D01*
X128400000Y-97610181D01*
X128400000Y-97389818D01*
X140100000Y-97389818D01*
X140100000Y-97610181D01*
X140134473Y-97827835D01*
X140202567Y-98037410D01*
X140302611Y-98233756D01*
X140348932Y-98297513D01*
X140898958Y-97747487D01*
X140923978Y-97807890D01*
X140995112Y-97914351D01*
X141085649Y-98004888D01*
X141192110Y-98076022D01*
X141252510Y-98101041D01*
X140702485Y-98651065D01*
X140702485Y-98651066D01*
X140766243Y-98697388D01*
X140962589Y-98797432D01*
X141172164Y-98865526D01*
X141389819Y-98900000D01*
X141610181Y-98900000D01*
X141827835Y-98865526D01*
X142037410Y-98797432D01*
X142233760Y-98697386D01*
X142297513Y-98651066D01*
X142297514Y-98651066D01*
X141747488Y-98101041D01*
X141807890Y-98076022D01*
X141914351Y-98004888D01*
X142004888Y-97914351D01*
X142076022Y-97807890D01*
X142101041Y-97747489D01*
X142651066Y-98297514D01*
X142651066Y-98297513D01*
X142697386Y-98233760D01*
X142797432Y-98037410D01*
X142865526Y-97827835D01*
X142879843Y-97737446D01*
X142900000Y-97610181D01*
X142900000Y-97389818D01*
X142865526Y-97172164D01*
X142797432Y-96962589D01*
X142697388Y-96766243D01*
X142651066Y-96702485D01*
X142651065Y-96702485D01*
X142101041Y-97252510D01*
X142076022Y-97192110D01*
X142004888Y-97085649D01*
X141914351Y-96995112D01*
X141807890Y-96923978D01*
X141747487Y-96898957D01*
X142297513Y-96348932D01*
X142233756Y-96302611D01*
X142037410Y-96202567D01*
X141827835Y-96134473D01*
X141610181Y-96100000D01*
X141389819Y-96100000D01*
X141172164Y-96134473D01*
X140962589Y-96202567D01*
X140766233Y-96302616D01*
X140702485Y-96348931D01*
X140702485Y-96348932D01*
X141252511Y-96898958D01*
X141192110Y-96923978D01*
X141085649Y-96995112D01*
X140995112Y-97085649D01*
X140923978Y-97192110D01*
X140898958Y-97252511D01*
X140348932Y-96702485D01*
X140348931Y-96702485D01*
X140302616Y-96766233D01*
X140202567Y-96962589D01*
X140134473Y-97172164D01*
X140100000Y-97389818D01*
X128400000Y-97389818D01*
X128365526Y-97172164D01*
X128297432Y-96962589D01*
X128197388Y-96766243D01*
X128151066Y-96702485D01*
X128151065Y-96702485D01*
X127601041Y-97252510D01*
X127576022Y-97192110D01*
X127504888Y-97085649D01*
X127414351Y-96995112D01*
X127307890Y-96923978D01*
X127247487Y-96898957D01*
X127797513Y-96348932D01*
X127733756Y-96302611D01*
X127537410Y-96202567D01*
X127327835Y-96134473D01*
X127110181Y-96100000D01*
X126889819Y-96100000D01*
X126672164Y-96134473D01*
X126462589Y-96202567D01*
X126266233Y-96302616D01*
X126202485Y-96348931D01*
X126202485Y-96348932D01*
X126752511Y-96898958D01*
X126692110Y-96923978D01*
X126585649Y-96995112D01*
X126495112Y-97085649D01*
X126423978Y-97192110D01*
X126398958Y-97252511D01*
X125848932Y-96702485D01*
X125848931Y-96702485D01*
X125802616Y-96766233D01*
X125702567Y-96962589D01*
X125634473Y-97172164D01*
X125600000Y-97389818D01*
X121484676Y-97389818D01*
X121453440Y-97370191D01*
X121149862Y-97223995D01*
X120831826Y-97112709D01*
X120831814Y-97112705D01*
X120503313Y-97037727D01*
X120503297Y-97037725D01*
X120168480Y-97000000D01*
X119831519Y-97000000D01*
X119496702Y-97037725D01*
X119496686Y-97037727D01*
X119168185Y-97112705D01*
X119168173Y-97112709D01*
X118850137Y-97223995D01*
X118546559Y-97370191D01*
X118261252Y-97549461D01*
X118061950Y-97708397D01*
X119309873Y-98956320D01*
X119185680Y-99046554D01*
X119046554Y-99185680D01*
X118956320Y-99309873D01*
X117708397Y-98061950D01*
X117549461Y-98261252D01*
X117370191Y-98546559D01*
X117223995Y-98850137D01*
X117112709Y-99168173D01*
X117112705Y-99168185D01*
X117037727Y-99496686D01*
X117037725Y-99496702D01*
X117000000Y-99831519D01*
X115500500Y-99831519D01*
X115500500Y-94184108D01*
X130599500Y-94184108D01*
X130599500Y-94315891D01*
X130633608Y-94443187D01*
X130666554Y-94500250D01*
X130699500Y-94557314D01*
X130792686Y-94650500D01*
X130906814Y-94716392D01*
X131034108Y-94750500D01*
X131034110Y-94750500D01*
X131165890Y-94750500D01*
X131165892Y-94750500D01*
X131293186Y-94716392D01*
X131407314Y-94650500D01*
X131412319Y-94645495D01*
X131473642Y-94612010D01*
X131543334Y-94616994D01*
X131587681Y-94645495D01*
X131592686Y-94650500D01*
X131706814Y-94716392D01*
X131834108Y-94750500D01*
X131834110Y-94750500D01*
X131965890Y-94750500D01*
X131965892Y-94750500D01*
X132093186Y-94716392D01*
X132207314Y-94650500D01*
X132300500Y-94557314D01*
X132366392Y-94443186D01*
X132400500Y-94315892D01*
X132400500Y-94184108D01*
X133599500Y-94184108D01*
X133599500Y-94315891D01*
X133633608Y-94443187D01*
X133666554Y-94500250D01*
X133699500Y-94557314D01*
X133792686Y-94650500D01*
X133906814Y-94716392D01*
X134034108Y-94750500D01*
X134034110Y-94750500D01*
X134165890Y-94750500D01*
X134165892Y-94750500D01*
X134293186Y-94716392D01*
X134407314Y-94650500D01*
X134412319Y-94645495D01*
X134473642Y-94612010D01*
X134543334Y-94616994D01*
X134587681Y-94645495D01*
X134592686Y-94650500D01*
X134706814Y-94716392D01*
X134834108Y-94750500D01*
X134834110Y-94750500D01*
X134965890Y-94750500D01*
X134965892Y-94750500D01*
X135093186Y-94716392D01*
X135207314Y-94650500D01*
X135300500Y-94557314D01*
X135366392Y-94443186D01*
X135400500Y-94315892D01*
X135400500Y-94184108D01*
X135366392Y-94056814D01*
X135300500Y-93942686D01*
X135207314Y-93849500D01*
X135150250Y-93816554D01*
X135093187Y-93783608D01*
X135029539Y-93766554D01*
X134965892Y-93749500D01*
X134834108Y-93749500D01*
X134706812Y-93783608D01*
X134592686Y-93849500D01*
X134592683Y-93849502D01*
X134587681Y-93854505D01*
X134526358Y-93887990D01*
X134456666Y-93883006D01*
X134412319Y-93854505D01*
X134407316Y-93849502D01*
X134407314Y-93849500D01*
X134350250Y-93816554D01*
X134293187Y-93783608D01*
X134229539Y-93766554D01*
X134165892Y-93749500D01*
X134034108Y-93749500D01*
X133906812Y-93783608D01*
X133792686Y-93849500D01*
X133792683Y-93849502D01*
X133699502Y-93942683D01*
X133699500Y-93942686D01*
X133633608Y-94056812D01*
X133599500Y-94184108D01*
X132400500Y-94184108D01*
X132366392Y-94056814D01*
X132300500Y-93942686D01*
X132207314Y-93849500D01*
X132150250Y-93816554D01*
X132093187Y-93783608D01*
X132029539Y-93766554D01*
X131965892Y-93749500D01*
X131834108Y-93749500D01*
X131706812Y-93783608D01*
X131592686Y-93849500D01*
X131592683Y-93849502D01*
X131587681Y-93854505D01*
X131526358Y-93887990D01*
X131456666Y-93883006D01*
X131412319Y-93854505D01*
X131407316Y-93849502D01*
X131407314Y-93849500D01*
X131350250Y-93816554D01*
X131293187Y-93783608D01*
X131229539Y-93766554D01*
X131165892Y-93749500D01*
X131034108Y-93749500D01*
X130906812Y-93783608D01*
X130792686Y-93849500D01*
X130792683Y-93849502D01*
X130699502Y-93942683D01*
X130699500Y-93942686D01*
X130633608Y-94056812D01*
X130599500Y-94184108D01*
X115500500Y-94184108D01*
X115500500Y-92473753D01*
X116150000Y-92473753D01*
X116150000Y-92686246D01*
X116183242Y-92896127D01*
X116183242Y-92896130D01*
X116248904Y-93098217D01*
X116345375Y-93287550D01*
X116384728Y-93341716D01*
X117017037Y-92709408D01*
X117034075Y-92772993D01*
X117099901Y-92887007D01*
X117192993Y-92980099D01*
X117307007Y-93045925D01*
X117370590Y-93062962D01*
X116738282Y-93695269D01*
X116738282Y-93695270D01*
X116792449Y-93734624D01*
X116981782Y-93831095D01*
X117183870Y-93896757D01*
X117393754Y-93930000D01*
X117606246Y-93930000D01*
X117816127Y-93896757D01*
X117816130Y-93896757D01*
X118018217Y-93831095D01*
X118207554Y-93734622D01*
X118261716Y-93695270D01*
X118261717Y-93695270D01*
X117629408Y-93062962D01*
X117692993Y-93045925D01*
X117807007Y-92980099D01*
X117900099Y-92887007D01*
X117965925Y-92772993D01*
X117982962Y-92709408D01*
X118615270Y-93341717D01*
X118615270Y-93341716D01*
X118654622Y-93287554D01*
X118753306Y-93093879D01*
X118754321Y-93094396D01*
X118794779Y-93044192D01*
X118861073Y-93022127D01*
X118928772Y-93039406D01*
X118976383Y-93090542D01*
X118989500Y-93146048D01*
X118989500Y-93449752D01*
X119001131Y-93508229D01*
X119001132Y-93508230D01*
X119045447Y-93574552D01*
X119111769Y-93618867D01*
X119111770Y-93618868D01*
X119170247Y-93630499D01*
X119170250Y-93630500D01*
X119170252Y-93630500D01*
X120909750Y-93630500D01*
X120909751Y-93630499D01*
X120924568Y-93627552D01*
X120968229Y-93618868D01*
X120968229Y-93618867D01*
X120968231Y-93618867D01*
X121034552Y-93574552D01*
X121078867Y-93508231D01*
X121078867Y-93508229D01*
X121078868Y-93508229D01*
X121090499Y-93449752D01*
X121090500Y-93449750D01*
X121090500Y-92434108D01*
X136099500Y-92434108D01*
X136099500Y-92565891D01*
X136133608Y-92693187D01*
X136166554Y-92750250D01*
X136199500Y-92807314D01*
X136292686Y-92900500D01*
X136406814Y-92966392D01*
X136534108Y-93000500D01*
X136534110Y-93000500D01*
X136665890Y-93000500D01*
X136665892Y-93000500D01*
X136793186Y-92966392D01*
X136907314Y-92900500D01*
X137000500Y-92807314D01*
X137066392Y-92693186D01*
X137100500Y-92565892D01*
X137100500Y-92434108D01*
X138099500Y-92434108D01*
X138099500Y-92565891D01*
X138133608Y-92693187D01*
X138166554Y-92750250D01*
X138199500Y-92807314D01*
X138292686Y-92900500D01*
X138406814Y-92966392D01*
X138534108Y-93000500D01*
X138534110Y-93000500D01*
X138665890Y-93000500D01*
X138665892Y-93000500D01*
X138793186Y-92966392D01*
X138907314Y-92900500D01*
X139000500Y-92807314D01*
X139066392Y-92693186D01*
X139100500Y-92565892D01*
X139100500Y-92434108D01*
X139066392Y-92306814D01*
X139000500Y-92192686D01*
X138907314Y-92099500D01*
X138841985Y-92061782D01*
X138793187Y-92033608D01*
X138719824Y-92013951D01*
X138665892Y-91999500D01*
X138534108Y-91999500D01*
X138406812Y-92033608D01*
X138292686Y-92099500D01*
X138292683Y-92099502D01*
X138199502Y-92192683D01*
X138199500Y-92192686D01*
X138133608Y-92306812D01*
X138099500Y-92434108D01*
X137100500Y-92434108D01*
X137066392Y-92306814D01*
X137000500Y-92192686D01*
X136907314Y-92099500D01*
X136841985Y-92061782D01*
X136793187Y-92033608D01*
X136719824Y-92013951D01*
X136665892Y-91999500D01*
X136534108Y-91999500D01*
X136406812Y-92033608D01*
X136292686Y-92099500D01*
X136292683Y-92099502D01*
X136199502Y-92192683D01*
X136199500Y-92192686D01*
X136133608Y-92306812D01*
X136099500Y-92434108D01*
X121090500Y-92434108D01*
X121090500Y-91710249D01*
X121090499Y-91710247D01*
X121078868Y-91651770D01*
X121078867Y-91651769D01*
X121034552Y-91585447D01*
X120968230Y-91541132D01*
X120968229Y-91541131D01*
X120909752Y-91529500D01*
X120909748Y-91529500D01*
X119170252Y-91529500D01*
X119170247Y-91529500D01*
X119111770Y-91541131D01*
X119111769Y-91541132D01*
X119045447Y-91585447D01*
X119001132Y-91651769D01*
X119001131Y-91651770D01*
X118989500Y-91710247D01*
X118989500Y-92013951D01*
X118969815Y-92080990D01*
X118917011Y-92126745D01*
X118847853Y-92136689D01*
X118784297Y-92107664D01*
X118754061Y-92065736D01*
X118753306Y-92066121D01*
X118654624Y-91872449D01*
X118615270Y-91818282D01*
X118615269Y-91818282D01*
X117982962Y-92450590D01*
X117965925Y-92387007D01*
X117900099Y-92272993D01*
X117807007Y-92179901D01*
X117692993Y-92114075D01*
X117629409Y-92097037D01*
X118261716Y-91464728D01*
X118207550Y-91425375D01*
X118018216Y-91328904D01*
X117842026Y-91271656D01*
X117784350Y-91232218D01*
X117757152Y-91167860D01*
X117769067Y-91099013D01*
X117816311Y-91047538D01*
X117832882Y-91039168D01*
X117997598Y-90970941D01*
X118169655Y-90855977D01*
X118315977Y-90709655D01*
X118430941Y-90537598D01*
X118510130Y-90346420D01*
X118550500Y-90143465D01*
X118550500Y-89936535D01*
X118550499Y-89936532D01*
X118550499Y-89936530D01*
X118989500Y-89936530D01*
X118989500Y-90143469D01*
X119029868Y-90346412D01*
X119029870Y-90346420D01*
X119109058Y-90537596D01*
X119224024Y-90709657D01*
X119370342Y-90855975D01*
X119370345Y-90855977D01*
X119542402Y-90970941D01*
X119733580Y-91050130D01*
X119898855Y-91083005D01*
X119936530Y-91090499D01*
X119936534Y-91090500D01*
X119936535Y-91090500D01*
X120143466Y-91090500D01*
X120143467Y-91090499D01*
X120346420Y-91050130D01*
X120537598Y-90970941D01*
X120709655Y-90855977D01*
X120855977Y-90709655D01*
X120970941Y-90537598D01*
X121050130Y-90346420D01*
X121090500Y-90143465D01*
X121090500Y-89936535D01*
X121090500Y-89936534D01*
X121090500Y-89936532D01*
X121090018Y-89934108D01*
X136699500Y-89934108D01*
X136699500Y-90065891D01*
X136733608Y-90193187D01*
X136766554Y-90250250D01*
X136799500Y-90307314D01*
X136892686Y-90400500D01*
X137006814Y-90466392D01*
X137134108Y-90500500D01*
X137134110Y-90500500D01*
X137265890Y-90500500D01*
X137265892Y-90500500D01*
X137393186Y-90466392D01*
X137507314Y-90400500D01*
X137600500Y-90307314D01*
X137666392Y-90193186D01*
X137700500Y-90065892D01*
X137700500Y-89934108D01*
X137666392Y-89806814D01*
X137600500Y-89692686D01*
X137507314Y-89599500D01*
X137450250Y-89566554D01*
X137393187Y-89533608D01*
X137329539Y-89516554D01*
X137265892Y-89499500D01*
X137134108Y-89499500D01*
X137006812Y-89533608D01*
X136892686Y-89599500D01*
X136892683Y-89599502D01*
X136799502Y-89692683D01*
X136799500Y-89692686D01*
X136733608Y-89806812D01*
X136699500Y-89934108D01*
X121090018Y-89934108D01*
X121050131Y-89733587D01*
X121050130Y-89733580D01*
X120970941Y-89542402D01*
X120855977Y-89370345D01*
X120855975Y-89370342D01*
X120709657Y-89224024D01*
X120623626Y-89166541D01*
X120537598Y-89109059D01*
X120346420Y-89029870D01*
X120346412Y-89029868D01*
X120143469Y-88989500D01*
X120143465Y-88989500D01*
X119936535Y-88989500D01*
X119936530Y-88989500D01*
X119733587Y-89029868D01*
X119733579Y-89029870D01*
X119542403Y-89109058D01*
X119370342Y-89224024D01*
X119224024Y-89370342D01*
X119109058Y-89542403D01*
X119029870Y-89733579D01*
X119029868Y-89733587D01*
X118989500Y-89936530D01*
X118550499Y-89936530D01*
X118524697Y-89806814D01*
X118510130Y-89733580D01*
X118430941Y-89542402D01*
X118315977Y-89370345D01*
X118315975Y-89370342D01*
X118169657Y-89224024D01*
X118083626Y-89166541D01*
X117997598Y-89109059D01*
X117806420Y-89029870D01*
X117806412Y-89029868D01*
X117603469Y-88989500D01*
X117603465Y-88989500D01*
X117396535Y-88989500D01*
X117396530Y-88989500D01*
X117193587Y-89029868D01*
X117193579Y-89029870D01*
X117002403Y-89109058D01*
X116830342Y-89224024D01*
X116684024Y-89370342D01*
X116569058Y-89542403D01*
X116489870Y-89733579D01*
X116489868Y-89733587D01*
X116449500Y-89936530D01*
X116449500Y-90143469D01*
X116489868Y-90346412D01*
X116489870Y-90346420D01*
X116569058Y-90537596D01*
X116684024Y-90709657D01*
X116830342Y-90855975D01*
X117002405Y-90970943D01*
X117105043Y-91013456D01*
X117167108Y-91039164D01*
X117221511Y-91083005D01*
X117243576Y-91149299D01*
X117226297Y-91216998D01*
X117175160Y-91264609D01*
X117157974Y-91271656D01*
X116981781Y-91328905D01*
X116792439Y-91425380D01*
X116738282Y-91464727D01*
X116738282Y-91464728D01*
X117370591Y-92097037D01*
X117307007Y-92114075D01*
X117192993Y-92179901D01*
X117099901Y-92272993D01*
X117034075Y-92387007D01*
X117017037Y-92450591D01*
X116384728Y-91818282D01*
X116384727Y-91818282D01*
X116345380Y-91872439D01*
X116248904Y-92061782D01*
X116183242Y-92263869D01*
X116183242Y-92263872D01*
X116150000Y-92473753D01*
X115500500Y-92473753D01*
X115500500Y-87396530D01*
X116449500Y-87396530D01*
X116449500Y-87603469D01*
X116489868Y-87806412D01*
X116489870Y-87806420D01*
X116556132Y-87966391D01*
X116569059Y-87997598D01*
X116570998Y-88000500D01*
X116684024Y-88169657D01*
X116830342Y-88315975D01*
X116830345Y-88315977D01*
X117002402Y-88430941D01*
X117193580Y-88510130D01*
X117396530Y-88550499D01*
X117396534Y-88550500D01*
X117396535Y-88550500D01*
X117603466Y-88550500D01*
X117603467Y-88550499D01*
X117806420Y-88510130D01*
X117997598Y-88430941D01*
X118169655Y-88315977D01*
X118315977Y-88169655D01*
X118430941Y-87997598D01*
X118510130Y-87806420D01*
X118550500Y-87603465D01*
X118550500Y-87396535D01*
X118550499Y-87396530D01*
X118989500Y-87396530D01*
X118989500Y-87603469D01*
X119029868Y-87806412D01*
X119029870Y-87806420D01*
X119096132Y-87966391D01*
X119109059Y-87997598D01*
X119110998Y-88000500D01*
X119224024Y-88169657D01*
X119370342Y-88315975D01*
X119370345Y-88315977D01*
X119542402Y-88430941D01*
X119733580Y-88510130D01*
X119936530Y-88550499D01*
X119936534Y-88550500D01*
X119936535Y-88550500D01*
X120143466Y-88550500D01*
X120143467Y-88550499D01*
X120346420Y-88510130D01*
X120537598Y-88430941D01*
X120709655Y-88315977D01*
X120855977Y-88169655D01*
X120970941Y-87997598D01*
X121050130Y-87806420D01*
X121090500Y-87603465D01*
X121090500Y-87434108D01*
X137499500Y-87434108D01*
X137499500Y-87565891D01*
X137533608Y-87693187D01*
X137566554Y-87750250D01*
X137599500Y-87807314D01*
X137692686Y-87900500D01*
X137806814Y-87966392D01*
X137934108Y-88000500D01*
X137934110Y-88000500D01*
X138065890Y-88000500D01*
X138065892Y-88000500D01*
X138193186Y-87966392D01*
X138307314Y-87900500D01*
X138400500Y-87807314D01*
X138466392Y-87693186D01*
X138500500Y-87565892D01*
X138500500Y-87434108D01*
X138466392Y-87306814D01*
X138400500Y-87192686D01*
X138307314Y-87099500D01*
X138250250Y-87066554D01*
X138193187Y-87033608D01*
X138129539Y-87016554D01*
X138065892Y-86999500D01*
X137934108Y-86999500D01*
X137806812Y-87033608D01*
X137692686Y-87099500D01*
X137692683Y-87099502D01*
X137599502Y-87192683D01*
X137599500Y-87192686D01*
X137533608Y-87306812D01*
X137499500Y-87434108D01*
X121090500Y-87434108D01*
X121090500Y-87396535D01*
X121050130Y-87193580D01*
X120970941Y-87002402D01*
X120855977Y-86830345D01*
X120855975Y-86830342D01*
X120709657Y-86684024D01*
X120623626Y-86626541D01*
X120537598Y-86569059D01*
X120346420Y-86489870D01*
X120346412Y-86489868D01*
X120143469Y-86449500D01*
X120143465Y-86449500D01*
X119936535Y-86449500D01*
X119936530Y-86449500D01*
X119733587Y-86489868D01*
X119733579Y-86489870D01*
X119542403Y-86569058D01*
X119370342Y-86684024D01*
X119224024Y-86830342D01*
X119109058Y-87002403D01*
X119029870Y-87193579D01*
X119029868Y-87193587D01*
X118989500Y-87396530D01*
X118550499Y-87396530D01*
X118510130Y-87193580D01*
X118430941Y-87002402D01*
X118315977Y-86830345D01*
X118315975Y-86830342D01*
X118169657Y-86684024D01*
X118083626Y-86626541D01*
X117997598Y-86569059D01*
X117806420Y-86489870D01*
X117806412Y-86489868D01*
X117603469Y-86449500D01*
X117603465Y-86449500D01*
X117396535Y-86449500D01*
X117396530Y-86449500D01*
X117193587Y-86489868D01*
X117193579Y-86489870D01*
X117002403Y-86569058D01*
X116830342Y-86684024D01*
X116684024Y-86830342D01*
X116569058Y-87002403D01*
X116489870Y-87193579D01*
X116489868Y-87193587D01*
X116449500Y-87396530D01*
X115500500Y-87396530D01*
X115500500Y-85684108D01*
X129099500Y-85684108D01*
X129099500Y-85815891D01*
X129133608Y-85943187D01*
X129166554Y-86000250D01*
X129199500Y-86057314D01*
X129292686Y-86150500D01*
X129406814Y-86216392D01*
X129534108Y-86250500D01*
X129534110Y-86250500D01*
X129665890Y-86250500D01*
X129665892Y-86250500D01*
X129793186Y-86216392D01*
X129907314Y-86150500D01*
X129912319Y-86145495D01*
X129973642Y-86112010D01*
X130043334Y-86116994D01*
X130087681Y-86145495D01*
X130092686Y-86150500D01*
X130206814Y-86216392D01*
X130334108Y-86250500D01*
X130334110Y-86250500D01*
X130465890Y-86250500D01*
X130465892Y-86250500D01*
X130593186Y-86216392D01*
X130707314Y-86150500D01*
X130800500Y-86057314D01*
X130866392Y-85943186D01*
X130900500Y-85815892D01*
X130900500Y-85684108D01*
X132099500Y-85684108D01*
X132099500Y-85815891D01*
X132133608Y-85943187D01*
X132166554Y-86000250D01*
X132199500Y-86057314D01*
X132292686Y-86150500D01*
X132406814Y-86216392D01*
X132534108Y-86250500D01*
X132534110Y-86250500D01*
X132665890Y-86250500D01*
X132665892Y-86250500D01*
X132793186Y-86216392D01*
X132907314Y-86150500D01*
X132912319Y-86145495D01*
X132973642Y-86112010D01*
X133043334Y-86116994D01*
X133087681Y-86145495D01*
X133092686Y-86150500D01*
X133206814Y-86216392D01*
X133334108Y-86250500D01*
X133334110Y-86250500D01*
X133465890Y-86250500D01*
X133465892Y-86250500D01*
X133593186Y-86216392D01*
X133707314Y-86150500D01*
X133800500Y-86057314D01*
X133866392Y-85943186D01*
X133900500Y-85815892D01*
X133900500Y-85684108D01*
X135399500Y-85684108D01*
X135399500Y-85815891D01*
X135433608Y-85943187D01*
X135466554Y-86000250D01*
X135499500Y-86057314D01*
X135592686Y-86150500D01*
X135706814Y-86216392D01*
X135834108Y-86250500D01*
X135834110Y-86250500D01*
X135965890Y-86250500D01*
X135965892Y-86250500D01*
X136093186Y-86216392D01*
X136207314Y-86150500D01*
X136300500Y-86057314D01*
X136366392Y-85943186D01*
X136400500Y-85815892D01*
X136400500Y-85684108D01*
X136366392Y-85556814D01*
X136300500Y-85442686D01*
X136207314Y-85349500D01*
X136150250Y-85316554D01*
X136093187Y-85283608D01*
X136029539Y-85266554D01*
X135965892Y-85249500D01*
X135834108Y-85249500D01*
X135706812Y-85283608D01*
X135592686Y-85349500D01*
X135592683Y-85349502D01*
X135499502Y-85442683D01*
X135499500Y-85442686D01*
X135433608Y-85556812D01*
X135399500Y-85684108D01*
X133900500Y-85684108D01*
X133866392Y-85556814D01*
X133800500Y-85442686D01*
X133707314Y-85349500D01*
X133650250Y-85316554D01*
X133593187Y-85283608D01*
X133529539Y-85266554D01*
X133465892Y-85249500D01*
X133334108Y-85249500D01*
X133206812Y-85283608D01*
X133092686Y-85349500D01*
X133092683Y-85349502D01*
X133087681Y-85354505D01*
X133026358Y-85387990D01*
X132956666Y-85383006D01*
X132912319Y-85354505D01*
X132907316Y-85349502D01*
X132907314Y-85349500D01*
X132850250Y-85316554D01*
X132793187Y-85283608D01*
X132729539Y-85266554D01*
X132665892Y-85249500D01*
X132534108Y-85249500D01*
X132406812Y-85283608D01*
X132292686Y-85349500D01*
X132292683Y-85349502D01*
X132199502Y-85442683D01*
X132199500Y-85442686D01*
X132133608Y-85556812D01*
X132099500Y-85684108D01*
X130900500Y-85684108D01*
X130866392Y-85556814D01*
X130800500Y-85442686D01*
X130707314Y-85349500D01*
X130650250Y-85316554D01*
X130593187Y-85283608D01*
X130529539Y-85266554D01*
X130465892Y-85249500D01*
X130334108Y-85249500D01*
X130206812Y-85283608D01*
X130092686Y-85349500D01*
X130092683Y-85349502D01*
X130087681Y-85354505D01*
X130026358Y-85387990D01*
X129956666Y-85383006D01*
X129912319Y-85354505D01*
X129907316Y-85349502D01*
X129907314Y-85349500D01*
X129850250Y-85316554D01*
X129793187Y-85283608D01*
X129729539Y-85266554D01*
X129665892Y-85249500D01*
X129534108Y-85249500D01*
X129406812Y-85283608D01*
X129292686Y-85349500D01*
X129292683Y-85349502D01*
X129199502Y-85442683D01*
X129199500Y-85442686D01*
X129133608Y-85556812D01*
X129099500Y-85684108D01*
X115500500Y-85684108D01*
X115500500Y-79831519D01*
X117000000Y-79831519D01*
X117000000Y-80168480D01*
X117037725Y-80503297D01*
X117037727Y-80503313D01*
X117112705Y-80831814D01*
X117112709Y-80831826D01*
X117223995Y-81149862D01*
X117370191Y-81453440D01*
X117549461Y-81738747D01*
X117708397Y-81938048D01*
X118956320Y-80690125D01*
X119046554Y-80814320D01*
X119185680Y-80953446D01*
X119309873Y-81043678D01*
X118061950Y-82291601D01*
X118261252Y-82450538D01*
X118546559Y-82629808D01*
X118850137Y-82776004D01*
X119168173Y-82887290D01*
X119168185Y-82887294D01*
X119496686Y-82962272D01*
X119496702Y-82962274D01*
X119831519Y-82999999D01*
X119831521Y-83000000D01*
X120168479Y-83000000D01*
X120168480Y-82999999D01*
X120503297Y-82962274D01*
X120503313Y-82962272D01*
X120831814Y-82887294D01*
X120831826Y-82887290D01*
X121149862Y-82776004D01*
X121453440Y-82629808D01*
X121738747Y-82450538D01*
X121814887Y-82389818D01*
X125600000Y-82389818D01*
X125600000Y-82610181D01*
X125634473Y-82827835D01*
X125702567Y-83037410D01*
X125802611Y-83233756D01*
X125848932Y-83297513D01*
X126398958Y-82747487D01*
X126423978Y-82807890D01*
X126495112Y-82914351D01*
X126585649Y-83004888D01*
X126692110Y-83076022D01*
X126752510Y-83101041D01*
X126202485Y-83651065D01*
X126202485Y-83651066D01*
X126266243Y-83697388D01*
X126462589Y-83797432D01*
X126672164Y-83865526D01*
X126889819Y-83900000D01*
X127110181Y-83900000D01*
X127327835Y-83865526D01*
X127537410Y-83797432D01*
X127733760Y-83697386D01*
X127797513Y-83651066D01*
X127797514Y-83651066D01*
X127247488Y-83101041D01*
X127307890Y-83076022D01*
X127414351Y-83004888D01*
X127504888Y-82914351D01*
X127576022Y-82807890D01*
X127601041Y-82747488D01*
X128151066Y-83297514D01*
X128151066Y-83297513D01*
X128197386Y-83233760D01*
X128297432Y-83037410D01*
X128365526Y-82827835D01*
X128400000Y-82610181D01*
X128400000Y-82389818D01*
X140100000Y-82389818D01*
X140100000Y-82610181D01*
X140134473Y-82827835D01*
X140202567Y-83037410D01*
X140302611Y-83233756D01*
X140348932Y-83297513D01*
X140898958Y-82747487D01*
X140923978Y-82807890D01*
X140995112Y-82914351D01*
X141085649Y-83004888D01*
X141192110Y-83076022D01*
X141252510Y-83101041D01*
X140702485Y-83651065D01*
X140702485Y-83651066D01*
X140766243Y-83697388D01*
X140962589Y-83797432D01*
X141172164Y-83865526D01*
X141389819Y-83900000D01*
X141610181Y-83900000D01*
X141827835Y-83865526D01*
X142037410Y-83797432D01*
X142233760Y-83697386D01*
X142297513Y-83651066D01*
X142297514Y-83651066D01*
X141747488Y-83101041D01*
X141807890Y-83076022D01*
X141914351Y-83004888D01*
X142004888Y-82914351D01*
X142076022Y-82807890D01*
X142101041Y-82747489D01*
X142651066Y-83297514D01*
X142651066Y-83297513D01*
X142697386Y-83233760D01*
X142797432Y-83037410D01*
X142865526Y-82827835D01*
X142900000Y-82610181D01*
X142900000Y-82389818D01*
X142879843Y-82262553D01*
X142865526Y-82172164D01*
X142797432Y-81962589D01*
X142697388Y-81766243D01*
X142651066Y-81702485D01*
X142651065Y-81702485D01*
X142101041Y-82252510D01*
X142076022Y-82192110D01*
X142004888Y-82085649D01*
X141914351Y-81995112D01*
X141807890Y-81923978D01*
X141747487Y-81898957D01*
X142297513Y-81348932D01*
X142233756Y-81302611D01*
X142037410Y-81202567D01*
X141827835Y-81134473D01*
X141610181Y-81100000D01*
X141389819Y-81100000D01*
X141172164Y-81134473D01*
X140962589Y-81202567D01*
X140766233Y-81302616D01*
X140702485Y-81348931D01*
X140702485Y-81348932D01*
X141252511Y-81898958D01*
X141192110Y-81923978D01*
X141085649Y-81995112D01*
X140995112Y-82085649D01*
X140923978Y-82192110D01*
X140898958Y-82252511D01*
X140348932Y-81702485D01*
X140348931Y-81702485D01*
X140302616Y-81766233D01*
X140202567Y-81962589D01*
X140134473Y-82172164D01*
X140100000Y-82389818D01*
X128400000Y-82389818D01*
X128365526Y-82172164D01*
X128297432Y-81962589D01*
X128197388Y-81766243D01*
X128151066Y-81702485D01*
X128151065Y-81702485D01*
X127601041Y-82252510D01*
X127576022Y-82192110D01*
X127504888Y-82085649D01*
X127414351Y-81995112D01*
X127307890Y-81923978D01*
X127247487Y-81898957D01*
X127797513Y-81348932D01*
X127733756Y-81302611D01*
X127537410Y-81202567D01*
X127327835Y-81134473D01*
X127110181Y-81100000D01*
X126889819Y-81100000D01*
X126672164Y-81134473D01*
X126462589Y-81202567D01*
X126266233Y-81302616D01*
X126202485Y-81348931D01*
X126202485Y-81348932D01*
X126752511Y-81898958D01*
X126692110Y-81923978D01*
X126585649Y-81995112D01*
X126495112Y-82085649D01*
X126423978Y-82192110D01*
X126398958Y-82252511D01*
X125848932Y-81702485D01*
X125848931Y-81702485D01*
X125802616Y-81766233D01*
X125702567Y-81962589D01*
X125634473Y-82172164D01*
X125600000Y-82389818D01*
X121814887Y-82389818D01*
X121938048Y-82291600D01*
X120690126Y-81043678D01*
X120814320Y-80953446D01*
X120953446Y-80814320D01*
X121043678Y-80690126D01*
X122291600Y-81938048D01*
X122450538Y-81738747D01*
X122629808Y-81453440D01*
X122683288Y-81342389D01*
X122776004Y-81149862D01*
X122887290Y-80831826D01*
X122887294Y-80831814D01*
X122962272Y-80503313D01*
X122962274Y-80503297D01*
X122999999Y-80168480D01*
X123000000Y-80168478D01*
X123000000Y-79831521D01*
X122999999Y-79831519D01*
X147000000Y-79831519D01*
X147000000Y-80168480D01*
X147037725Y-80503297D01*
X147037727Y-80503313D01*
X147112705Y-80831814D01*
X147112709Y-80831826D01*
X147223995Y-81149862D01*
X147370191Y-81453440D01*
X147549461Y-81738747D01*
X147708397Y-81938048D01*
X148956320Y-80690125D01*
X149046554Y-80814320D01*
X149185680Y-80953446D01*
X149309873Y-81043678D01*
X148061950Y-82291601D01*
X148261252Y-82450538D01*
X148546559Y-82629808D01*
X148850137Y-82776004D01*
X149168173Y-82887290D01*
X149168185Y-82887294D01*
X149496686Y-82962272D01*
X149496702Y-82962274D01*
X149831519Y-82999999D01*
X149831521Y-83000000D01*
X150168479Y-83000000D01*
X150168480Y-82999999D01*
X150503297Y-82962274D01*
X150503313Y-82962272D01*
X150831814Y-82887294D01*
X150831826Y-82887290D01*
X151149862Y-82776004D01*
X151453440Y-82629808D01*
X151738747Y-82450538D01*
X151938048Y-82291600D01*
X150690126Y-81043678D01*
X150814320Y-80953446D01*
X150953446Y-80814320D01*
X151043678Y-80690126D01*
X152291600Y-81938048D01*
X152450538Y-81738747D01*
X152629808Y-81453440D01*
X152776004Y-81149862D01*
X152887290Y-80831826D01*
X152887294Y-80831814D01*
X152962272Y-80503313D01*
X152962274Y-80503297D01*
X152999999Y-80168480D01*
X153000000Y-80168478D01*
X153000000Y-79831521D01*
X152999999Y-79831519D01*
X152962274Y-79496702D01*
X152962272Y-79496686D01*
X152887294Y-79168185D01*
X152887290Y-79168173D01*
X152776004Y-78850137D01*
X152629808Y-78546559D01*
X152450538Y-78261252D01*
X152291601Y-78061950D01*
X151043678Y-79309873D01*
X150953446Y-79185680D01*
X150814320Y-79046554D01*
X150690124Y-78956320D01*
X151938048Y-77708397D01*
X151738747Y-77549461D01*
X151453440Y-77370191D01*
X151149862Y-77223995D01*
X150831826Y-77112709D01*
X150831814Y-77112705D01*
X150503313Y-77037727D01*
X150503297Y-77037725D01*
X150168480Y-77000000D01*
X149831519Y-77000000D01*
X149496702Y-77037725D01*
X149496686Y-77037727D01*
X149168185Y-77112705D01*
X149168173Y-77112709D01*
X148850137Y-77223995D01*
X148546559Y-77370191D01*
X148261252Y-77549461D01*
X148061950Y-77708397D01*
X149309873Y-78956320D01*
X149185680Y-79046554D01*
X149046554Y-79185680D01*
X148956320Y-79309873D01*
X147708397Y-78061950D01*
X147549461Y-78261252D01*
X147370191Y-78546559D01*
X147223995Y-78850137D01*
X147112709Y-79168173D01*
X147112705Y-79168185D01*
X147037727Y-79496686D01*
X147037725Y-79496702D01*
X147000000Y-79831519D01*
X122999999Y-79831519D01*
X122962274Y-79496702D01*
X122962272Y-79496686D01*
X122887294Y-79168185D01*
X122887290Y-79168173D01*
X122776004Y-78850137D01*
X122731445Y-78757609D01*
X122629808Y-78546559D01*
X122450538Y-78261252D01*
X122291601Y-78061950D01*
X121043678Y-79309873D01*
X120953446Y-79185680D01*
X120814320Y-79046554D01*
X120690124Y-78956320D01*
X121938048Y-77708397D01*
X121779416Y-77581893D01*
X121738747Y-77549461D01*
X121643826Y-77489818D01*
X125000000Y-77489818D01*
X125000000Y-77710181D01*
X125034473Y-77927835D01*
X125102567Y-78137410D01*
X125202611Y-78333756D01*
X125248932Y-78397513D01*
X125798958Y-77847487D01*
X125823978Y-77907890D01*
X125895112Y-78014351D01*
X125985649Y-78104888D01*
X126092110Y-78176022D01*
X126152510Y-78201041D01*
X125602485Y-78751065D01*
X125602485Y-78751066D01*
X125666243Y-78797388D01*
X125862589Y-78897432D01*
X126072164Y-78965526D01*
X126289819Y-79000000D01*
X126510181Y-79000000D01*
X126727835Y-78965526D01*
X126937410Y-78897432D01*
X127133760Y-78797386D01*
X127197513Y-78751066D01*
X127197514Y-78751066D01*
X126647488Y-78201041D01*
X126707890Y-78176022D01*
X126814351Y-78104888D01*
X126904888Y-78014351D01*
X126976022Y-77907890D01*
X127001041Y-77847488D01*
X127551066Y-78397514D01*
X127551066Y-78397513D01*
X127597386Y-78333760D01*
X127697432Y-78137410D01*
X127765526Y-77927835D01*
X127800000Y-77710181D01*
X127800000Y-77489818D01*
X140700000Y-77489818D01*
X140700000Y-77710181D01*
X140734473Y-77927835D01*
X140802567Y-78137410D01*
X140902611Y-78333756D01*
X140948932Y-78397513D01*
X141498958Y-77847487D01*
X141523978Y-77907890D01*
X141595112Y-78014351D01*
X141685649Y-78104888D01*
X141792110Y-78176022D01*
X141852510Y-78201041D01*
X141302485Y-78751065D01*
X141302485Y-78751066D01*
X141366243Y-78797388D01*
X141562589Y-78897432D01*
X141772164Y-78965526D01*
X141989819Y-79000000D01*
X142210181Y-79000000D01*
X142427835Y-78965526D01*
X142637410Y-78897432D01*
X142833760Y-78797386D01*
X142897513Y-78751066D01*
X142897514Y-78751066D01*
X142347488Y-78201041D01*
X142407890Y-78176022D01*
X142514351Y-78104888D01*
X142604888Y-78014351D01*
X142676022Y-77907890D01*
X142701041Y-77847489D01*
X143251066Y-78397514D01*
X143251066Y-78397513D01*
X143297386Y-78333760D01*
X143397432Y-78137410D01*
X143465526Y-77927835D01*
X143495664Y-77737558D01*
X143495681Y-77737447D01*
X143500000Y-77710176D01*
X143500000Y-77489818D01*
X143465526Y-77272164D01*
X143397432Y-77062589D01*
X143297388Y-76866243D01*
X143251066Y-76802485D01*
X143251065Y-76802485D01*
X142701041Y-77352510D01*
X142676022Y-77292110D01*
X142604888Y-77185649D01*
X142514351Y-77095112D01*
X142407890Y-77023978D01*
X142347487Y-76998957D01*
X142897513Y-76448932D01*
X142833756Y-76402611D01*
X142637410Y-76302567D01*
X142427835Y-76234473D01*
X142210181Y-76200000D01*
X141989819Y-76200000D01*
X141772164Y-76234473D01*
X141562589Y-76302567D01*
X141366233Y-76402616D01*
X141302485Y-76448931D01*
X141302485Y-76448932D01*
X141852511Y-76998958D01*
X141792110Y-77023978D01*
X141685649Y-77095112D01*
X141595112Y-77185649D01*
X141523978Y-77292110D01*
X141498958Y-77352511D01*
X140948932Y-76802485D01*
X140948931Y-76802485D01*
X140902616Y-76866233D01*
X140802567Y-77062589D01*
X140734473Y-77272164D01*
X140700000Y-77489818D01*
X127800000Y-77489818D01*
X127765526Y-77272164D01*
X127697432Y-77062589D01*
X127597388Y-76866243D01*
X127551066Y-76802485D01*
X127551065Y-76802485D01*
X127001041Y-77352510D01*
X126976022Y-77292110D01*
X126904888Y-77185649D01*
X126814351Y-77095112D01*
X126707890Y-77023978D01*
X126647487Y-76998957D01*
X127197513Y-76448932D01*
X127133756Y-76402611D01*
X126937410Y-76302567D01*
X126727835Y-76234473D01*
X126510181Y-76200000D01*
X126289819Y-76200000D01*
X126072164Y-76234473D01*
X125862589Y-76302567D01*
X125666233Y-76402616D01*
X125602485Y-76448931D01*
X125602485Y-76448932D01*
X126152511Y-76998958D01*
X126092110Y-77023978D01*
X125985649Y-77095112D01*
X125895112Y-77185649D01*
X125823978Y-77292110D01*
X125798958Y-77352511D01*
X125248932Y-76802485D01*
X125248931Y-76802485D01*
X125202616Y-76866233D01*
X125102567Y-77062589D01*
X125034473Y-77272164D01*
X125000000Y-77489818D01*
X121643826Y-77489818D01*
X121453440Y-77370191D01*
X121149862Y-77223995D01*
X120831826Y-77112709D01*
X120831814Y-77112705D01*
X120503313Y-77037727D01*
X120503297Y-77037725D01*
X120168480Y-77000000D01*
X119831519Y-77000000D01*
X119496702Y-77037725D01*
X119496686Y-77037727D01*
X119168185Y-77112705D01*
X119168173Y-77112709D01*
X118850137Y-77223995D01*
X118546559Y-77370191D01*
X118261252Y-77549461D01*
X118061950Y-77708397D01*
X119309873Y-78956320D01*
X119185680Y-79046554D01*
X119046554Y-79185680D01*
X118956320Y-79309873D01*
X117708397Y-78061950D01*
X117549461Y-78261252D01*
X117370191Y-78546559D01*
X117223995Y-78850137D01*
X117112709Y-79168173D01*
X117112705Y-79168185D01*
X117037727Y-79496686D01*
X117037725Y-79496702D01*
X117000000Y-79831519D01*
X115500500Y-79831519D01*
X115500500Y-75624500D01*
X115520185Y-75557461D01*
X115572989Y-75511706D01*
X115624500Y-75500500D01*
X154375500Y-75500500D01*
X154442539Y-75520185D01*
G37*
%TD.AperFunction*%
%TD*%
M02*
