M48
; DRILL file {KiCad 9.0.6} date 2025-12-18T20:09:49-0800
; FORMAT={-:-/ absolute / metric / decimal}
; #@! TF.CreationDate,2025-12-18T20:09:49-08:00
; #@! TF.GenerationSoftware,Kicad,Pcbnew,9.0.6
; #@! TF.FileFunction,Plated,1,4,PTH
FMAT,2
METRIC
; #@! TA.AperFunction,Plated,PTH,ViaDrill
T1C0.300
; #@! TA.AperFunction,Plated,PTH,ComponentDrill
T2C1.000
; #@! TA.AperFunction,Plated,PTH,ComponentDrill
T3C1.300
; #@! TA.AperFunction,Plated,PTH,ComponentDrill
T4C2.500
%
G90
G05
T1
X120.0Y-85.0
X120.0Y-95.0
X129.0Y-86.5
X129.0Y-87.5
X129.0Y-88.5
X129.0Y-89.5
X129.0Y-90.5
X129.0Y-91.5
X129.0Y-92.5
X129.0Y-93.5
X129.0Y-94.5
X129.6Y-85.75
X130.0Y-80.0
X130.0Y-82.0
X130.0Y-98.0
X130.0Y-100.0
X130.4Y-85.75
X131.1Y-94.25
X131.5Y-82.0
X131.5Y-98.0
X131.9Y-94.25
X132.5Y-80.0
X132.5Y-100.0
X132.6Y-85.75
X133.0Y-82.0
X133.0Y-98.0
X133.4Y-85.75
X134.1Y-94.25
X134.5Y-82.0
X134.5Y-98.0
X134.9Y-94.25
X135.0Y-80.0
X135.0Y-100.0
X135.9Y-85.75
X136.6Y-92.5
X137.2Y-90.0
X137.5Y-80.0
X137.5Y-82.0
X137.5Y-98.0
X137.5Y-100.0
X138.0Y-87.5
X138.6Y-92.5
X139.25Y-86.0
X139.25Y-87.0
X139.25Y-88.0
X139.25Y-89.0
X139.25Y-90.0
X139.25Y-91.0
X139.25Y-94.0
X141.5Y-85.0
X141.5Y-86.0
X141.5Y-87.0
X141.5Y-88.0
X141.5Y-89.0
X141.5Y-90.0
X141.5Y-91.0
X141.5Y-92.0
X141.5Y-93.0
X141.5Y-94.0
X141.5Y-95.0
X143.5Y-87.0
X143.5Y-90.0
X143.5Y-93.0
X145.5Y-81.0
X145.5Y-83.0
X145.5Y-85.0
X145.5Y-87.0
X145.5Y-93.0
X145.5Y-95.0
X145.5Y-97.0
X145.5Y-99.0
X148.0Y-87.0
X148.0Y-93.0
X150.0Y-85.0
X150.0Y-86.0
X150.0Y-87.0
X150.0Y-88.0
X150.0Y-89.0
X150.0Y-90.0
X150.0Y-91.0
X150.0Y-92.0
X150.0Y-93.0
X150.0Y-94.0
X150.0Y-95.0
T2
X117.5Y-87.5
X117.5Y-90.04
X117.5Y-92.58
X120.04Y-87.5
X120.04Y-90.04
X120.04Y-92.58
T3
X126.4Y-77.6
X126.4Y-102.4
X127.0Y-82.5
X127.0Y-97.5
X141.5Y-82.5
X141.5Y-97.5
X142.1Y-77.6
X142.1Y-102.4
T4
X120.0Y-80.0
X120.0Y-100.0
X150.0Y-80.0
X150.0Y-100.0
M30
