%TF.GenerationSoftware,KiCad,Pcbnew,8.0.5*%
%TF.CreationDate,2024-10-07T21:11:13-07:00*%
%TF.ProjectId,hdmi,68646d69-2e6b-4696-9361-645f70636258,rev?*%
%TF.SameCoordinates,Original*%
%TF.FileFunction,Soldermask,Bot*%
%TF.FilePolarity,Negative*%
%FSLAX46Y46*%
G04 Gerber Fmt 4.6, Leading zero omitted, Abs format (unit mm)*
G04 Created by KiCad (PCBNEW 8.0.5) date 2024-10-07 21:11:13*
%MOMM*%
%LPD*%
G01*
G04 APERTURE LIST*
G04 Aperture macros list*
%AMRoundRect*
0 Rectangle with rounded corners*
0 $1 Rounding radius*
0 $2 $3 $4 $5 $6 $7 $8 $9 X,Y pos of 4 corners*
0 Add a 4 corners polygon primitive as box body*
4,1,4,$2,$3,$4,$5,$6,$7,$8,$9,$2,$3,0*
0 Add four circle primitives for the rounded corners*
1,1,$1+$1,$2,$3*
1,1,$1+$1,$4,$5*
1,1,$1+$1,$6,$7*
1,1,$1+$1,$8,$9*
0 Add four rect primitives between the rounded corners*
20,1,$1+$1,$2,$3,$4,$5,0*
20,1,$1+$1,$4,$5,$6,$7,0*
20,1,$1+$1,$6,$7,$8,$9,0*
20,1,$1+$1,$8,$9,$2,$3,0*%
G04 Aperture macros list end*
%ADD10C,5.000000*%
%ADD11R,1.700000X1.700000*%
%ADD12O,1.700000X1.700000*%
%ADD13C,1.800000*%
%ADD14RoundRect,0.218750X0.218750X0.256250X-0.218750X0.256250X-0.218750X-0.256250X0.218750X-0.256250X0*%
%ADD15RoundRect,0.200000X0.200000X0.275000X-0.200000X0.275000X-0.200000X-0.275000X0.200000X-0.275000X0*%
%ADD16R,0.300000X1.900000*%
G04 APERTURE END LIST*
D10*
%TO.C,H2*%
X150000000Y-80000000D03*
%TD*%
D11*
%TO.C,J3*%
X147000000Y-86200000D03*
D12*
X147000000Y-88740000D03*
X147000000Y-91280000D03*
X147000000Y-93820000D03*
%TD*%
D10*
%TO.C,H4*%
X150000000Y-100000000D03*
%TD*%
%TO.C,H1*%
X120000000Y-80000000D03*
%TD*%
D13*
%TO.C,J1*%
X142100000Y-77600000D03*
X141500000Y-82500000D03*
X127000000Y-82500000D03*
X126400000Y-77600000D03*
%TD*%
D10*
%TO.C,H3*%
X120000000Y-100000000D03*
%TD*%
D14*
%TO.C,D2*%
X144087500Y-88730000D03*
X142512500Y-88730000D03*
%TD*%
D15*
%TO.C,R2*%
X144145000Y-93830000D03*
X142495000Y-93830000D03*
%TD*%
D16*
%TO.C,J2*%
X129500000Y-96500000D03*
X130000000Y-96500000D03*
X130500000Y-96500000D03*
X131000000Y-96500000D03*
X131500000Y-96500000D03*
X132000000Y-96500000D03*
X132500000Y-96500000D03*
X133000000Y-96500000D03*
X133500000Y-96500000D03*
X134000000Y-96500000D03*
X134500000Y-96500000D03*
X135000000Y-96500000D03*
X135500000Y-96500000D03*
X136000000Y-96500000D03*
X136500000Y-96500000D03*
X137000000Y-96500000D03*
X137500000Y-96500000D03*
X138000000Y-96500000D03*
X138500000Y-96500000D03*
D13*
X142100000Y-102400000D03*
X141500000Y-97500000D03*
X127000000Y-97500000D03*
X126400000Y-102400000D03*
%TD*%
M02*
