%TF.GenerationSoftware,KiCad,Pcbnew,8.0.5*%
%TF.CreationDate,2024-10-07T21:11:13-07:00*%
%TF.ProjectId,hdmi,68646d69-2e6b-4696-9361-645f70636258,rev?*%
%TF.SameCoordinates,Original*%
%TF.FileFunction,Legend,Top*%
%TF.FilePolarity,Positive*%
%FSLAX46Y46*%
G04 Gerber Fmt 4.6, Leading zero omitted, Abs format (unit mm)*
G04 Created by KiCad (PCBNEW 8.0.5) date 2024-10-07 21:11:13*
%MOMM*%
%LPD*%
G01*
G04 APERTURE LIST*
%ADD10C,0.100000*%
%ADD11C,0.150000*%
%ADD12C,0.120000*%
G04 APERTURE END LIST*
D10*
X151777180Y-90624687D02*
X151824800Y-90672306D01*
X151824800Y-90672306D02*
X151872419Y-90815163D01*
X151872419Y-90815163D02*
X151872419Y-90910401D01*
X151872419Y-90910401D02*
X151824800Y-91053258D01*
X151824800Y-91053258D02*
X151729561Y-91148496D01*
X151729561Y-91148496D02*
X151634323Y-91196115D01*
X151634323Y-91196115D02*
X151443847Y-91243734D01*
X151443847Y-91243734D02*
X151300990Y-91243734D01*
X151300990Y-91243734D02*
X151110514Y-91196115D01*
X151110514Y-91196115D02*
X151015276Y-91148496D01*
X151015276Y-91148496D02*
X150920038Y-91053258D01*
X150920038Y-91053258D02*
X150872419Y-90910401D01*
X150872419Y-90910401D02*
X150872419Y-90815163D01*
X150872419Y-90815163D02*
X150920038Y-90672306D01*
X150920038Y-90672306D02*
X150967657Y-90624687D01*
X151348609Y-90196115D02*
X151348609Y-89862782D01*
X151872419Y-89719925D02*
X151872419Y-90196115D01*
X151872419Y-90196115D02*
X150872419Y-90196115D01*
X150872419Y-90196115D02*
X150872419Y-89719925D01*
X151777180Y-88719925D02*
X151824800Y-88767544D01*
X151824800Y-88767544D02*
X151872419Y-88910401D01*
X151872419Y-88910401D02*
X151872419Y-89005639D01*
X151872419Y-89005639D02*
X151824800Y-89148496D01*
X151824800Y-89148496D02*
X151729561Y-89243734D01*
X151729561Y-89243734D02*
X151634323Y-89291353D01*
X151634323Y-89291353D02*
X151443847Y-89338972D01*
X151443847Y-89338972D02*
X151300990Y-89338972D01*
X151300990Y-89338972D02*
X151110514Y-89291353D01*
X151110514Y-89291353D02*
X151015276Y-89243734D01*
X151015276Y-89243734D02*
X150920038Y-89148496D01*
X150920038Y-89148496D02*
X150872419Y-89005639D01*
X150872419Y-89005639D02*
X150872419Y-88910401D01*
X150872419Y-88910401D02*
X150920038Y-88767544D01*
X150920038Y-88767544D02*
X150967657Y-88719925D01*
X151012475Y-95083332D02*
X152012475Y-94749999D01*
X152012475Y-94749999D02*
X151012475Y-94416666D01*
X152012475Y-94083332D02*
X151012475Y-94083332D01*
X151012475Y-94083332D02*
X151012475Y-93845237D01*
X151012475Y-93845237D02*
X151060094Y-93702380D01*
X151060094Y-93702380D02*
X151155332Y-93607142D01*
X151155332Y-93607142D02*
X151250570Y-93559523D01*
X151250570Y-93559523D02*
X151441046Y-93511904D01*
X151441046Y-93511904D02*
X151583903Y-93511904D01*
X151583903Y-93511904D02*
X151774379Y-93559523D01*
X151774379Y-93559523D02*
X151869617Y-93607142D01*
X151869617Y-93607142D02*
X151964856Y-93702380D01*
X151964856Y-93702380D02*
X152012475Y-93845237D01*
X152012475Y-93845237D02*
X152012475Y-94083332D01*
X152012475Y-93083332D02*
X151012475Y-93083332D01*
X151012475Y-93083332D02*
X151012475Y-92845237D01*
X151012475Y-92845237D02*
X151060094Y-92702380D01*
X151060094Y-92702380D02*
X151155332Y-92607142D01*
X151155332Y-92607142D02*
X151250570Y-92559523D01*
X151250570Y-92559523D02*
X151441046Y-92511904D01*
X151441046Y-92511904D02*
X151583903Y-92511904D01*
X151583903Y-92511904D02*
X151774379Y-92559523D01*
X151774379Y-92559523D02*
X151869617Y-92607142D01*
X151869617Y-92607142D02*
X151964856Y-92702380D01*
X151964856Y-92702380D02*
X152012475Y-92845237D01*
X152012475Y-92845237D02*
X152012475Y-93083332D01*
X152622419Y-95226189D02*
X152622419Y-94607142D01*
X152622419Y-94607142D02*
X153003371Y-94940475D01*
X153003371Y-94940475D02*
X153003371Y-94797618D01*
X153003371Y-94797618D02*
X153050990Y-94702380D01*
X153050990Y-94702380D02*
X153098609Y-94654761D01*
X153098609Y-94654761D02*
X153193847Y-94607142D01*
X153193847Y-94607142D02*
X153431942Y-94607142D01*
X153431942Y-94607142D02*
X153527180Y-94654761D01*
X153527180Y-94654761D02*
X153574800Y-94702380D01*
X153574800Y-94702380D02*
X153622419Y-94797618D01*
X153622419Y-94797618D02*
X153622419Y-95083332D01*
X153622419Y-95083332D02*
X153574800Y-95178570D01*
X153574800Y-95178570D02*
X153527180Y-95226189D01*
X153527180Y-94178570D02*
X153574800Y-94130951D01*
X153574800Y-94130951D02*
X153622419Y-94178570D01*
X153622419Y-94178570D02*
X153574800Y-94226189D01*
X153574800Y-94226189D02*
X153527180Y-94178570D01*
X153527180Y-94178570D02*
X153622419Y-94178570D01*
X152622419Y-93797618D02*
X152622419Y-93178571D01*
X152622419Y-93178571D02*
X153003371Y-93511904D01*
X153003371Y-93511904D02*
X153003371Y-93369047D01*
X153003371Y-93369047D02*
X153050990Y-93273809D01*
X153050990Y-93273809D02*
X153098609Y-93226190D01*
X153098609Y-93226190D02*
X153193847Y-93178571D01*
X153193847Y-93178571D02*
X153431942Y-93178571D01*
X153431942Y-93178571D02*
X153527180Y-93226190D01*
X153527180Y-93226190D02*
X153574800Y-93273809D01*
X153574800Y-93273809D02*
X153622419Y-93369047D01*
X153622419Y-93369047D02*
X153622419Y-93654761D01*
X153622419Y-93654761D02*
X153574800Y-93749999D01*
X153574800Y-93749999D02*
X153527180Y-93797618D01*
X152622419Y-92892856D02*
X153622419Y-92559523D01*
X153622419Y-92559523D02*
X152622419Y-92226190D01*
X150920038Y-86922306D02*
X150872419Y-87017544D01*
X150872419Y-87017544D02*
X150872419Y-87160401D01*
X150872419Y-87160401D02*
X150920038Y-87303258D01*
X150920038Y-87303258D02*
X151015276Y-87398496D01*
X151015276Y-87398496D02*
X151110514Y-87446115D01*
X151110514Y-87446115D02*
X151300990Y-87493734D01*
X151300990Y-87493734D02*
X151443847Y-87493734D01*
X151443847Y-87493734D02*
X151634323Y-87446115D01*
X151634323Y-87446115D02*
X151729561Y-87398496D01*
X151729561Y-87398496D02*
X151824800Y-87303258D01*
X151824800Y-87303258D02*
X151872419Y-87160401D01*
X151872419Y-87160401D02*
X151872419Y-87065163D01*
X151872419Y-87065163D02*
X151824800Y-86922306D01*
X151824800Y-86922306D02*
X151777180Y-86874687D01*
X151777180Y-86874687D02*
X151443847Y-86874687D01*
X151443847Y-86874687D02*
X151443847Y-87065163D01*
X151872419Y-86446115D02*
X150872419Y-86446115D01*
X150872419Y-86446115D02*
X151872419Y-85874687D01*
X151872419Y-85874687D02*
X150872419Y-85874687D01*
X151872419Y-85398496D02*
X150872419Y-85398496D01*
X150872419Y-85398496D02*
X150872419Y-85160401D01*
X150872419Y-85160401D02*
X150920038Y-85017544D01*
X150920038Y-85017544D02*
X151015276Y-84922306D01*
X151015276Y-84922306D02*
X151110514Y-84874687D01*
X151110514Y-84874687D02*
X151300990Y-84827068D01*
X151300990Y-84827068D02*
X151443847Y-84827068D01*
X151443847Y-84827068D02*
X151634323Y-84874687D01*
X151634323Y-84874687D02*
X151729561Y-84922306D01*
X151729561Y-84922306D02*
X151824800Y-85017544D01*
X151824800Y-85017544D02*
X151872419Y-85160401D01*
X151872419Y-85160401D02*
X151872419Y-85398496D01*
X144256265Y-102586704D02*
X144732455Y-102586704D01*
X144161027Y-102872419D02*
X144494360Y-101872419D01*
X144494360Y-101872419D02*
X144827693Y-102872419D01*
X145018170Y-101872419D02*
X145351503Y-102872419D01*
X145351503Y-102872419D02*
X145684836Y-101872419D01*
X146589598Y-102872419D02*
X146256265Y-102396228D01*
X146018170Y-102872419D02*
X146018170Y-101872419D01*
X146018170Y-101872419D02*
X146399122Y-101872419D01*
X146399122Y-101872419D02*
X146494360Y-101920038D01*
X146494360Y-101920038D02*
X146541979Y-101967657D01*
X146541979Y-101967657D02*
X146589598Y-102062895D01*
X146589598Y-102062895D02*
X146589598Y-102205752D01*
X146589598Y-102205752D02*
X146541979Y-102300990D01*
X146541979Y-102300990D02*
X146494360Y-102348609D01*
X146494360Y-102348609D02*
X146399122Y-102396228D01*
X146399122Y-102396228D02*
X146018170Y-102396228D01*
X116976760Y-91809523D02*
X116976760Y-91333333D01*
X117262475Y-91904761D02*
X116262475Y-91571428D01*
X116262475Y-91571428D02*
X117262475Y-91238095D01*
X117262475Y-90904761D02*
X116595808Y-90904761D01*
X116691046Y-90904761D02*
X116643427Y-90857142D01*
X116643427Y-90857142D02*
X116595808Y-90761904D01*
X116595808Y-90761904D02*
X116595808Y-90619047D01*
X116595808Y-90619047D02*
X116643427Y-90523809D01*
X116643427Y-90523809D02*
X116738665Y-90476190D01*
X116738665Y-90476190D02*
X117262475Y-90476190D01*
X116738665Y-90476190D02*
X116643427Y-90428571D01*
X116643427Y-90428571D02*
X116595808Y-90333333D01*
X116595808Y-90333333D02*
X116595808Y-90190476D01*
X116595808Y-90190476D02*
X116643427Y-90095237D01*
X116643427Y-90095237D02*
X116738665Y-90047618D01*
X116738665Y-90047618D02*
X117262475Y-90047618D01*
X117262475Y-89571428D02*
X116595808Y-89571428D01*
X116262475Y-89571428D02*
X116310094Y-89619047D01*
X116310094Y-89619047D02*
X116357713Y-89571428D01*
X116357713Y-89571428D02*
X116310094Y-89523809D01*
X116310094Y-89523809D02*
X116262475Y-89571428D01*
X116262475Y-89571428D02*
X116357713Y-89571428D01*
X116595808Y-89238095D02*
X116595808Y-88857143D01*
X116262475Y-89095238D02*
X117119617Y-89095238D01*
X117119617Y-89095238D02*
X117214856Y-89047619D01*
X117214856Y-89047619D02*
X117262475Y-88952381D01*
X117262475Y-88952381D02*
X117262475Y-88857143D01*
X116595808Y-88619047D02*
X117262475Y-88380952D01*
X116595808Y-88142857D02*
X117262475Y-88380952D01*
X117262475Y-88380952D02*
X117500570Y-88476190D01*
X117500570Y-88476190D02*
X117548189Y-88523809D01*
X117548189Y-88523809D02*
X117595808Y-88619047D01*
X117872419Y-91523808D02*
X118872419Y-91190475D01*
X118872419Y-91190475D02*
X117872419Y-90857142D01*
X117967657Y-90571427D02*
X117920038Y-90523808D01*
X117920038Y-90523808D02*
X117872419Y-90428570D01*
X117872419Y-90428570D02*
X117872419Y-90190475D01*
X117872419Y-90190475D02*
X117920038Y-90095237D01*
X117920038Y-90095237D02*
X117967657Y-90047618D01*
X117967657Y-90047618D02*
X118062895Y-89999999D01*
X118062895Y-89999999D02*
X118158133Y-89999999D01*
X118158133Y-89999999D02*
X118300990Y-90047618D01*
X118300990Y-90047618D02*
X118872419Y-90619046D01*
X118872419Y-90619046D02*
X118872419Y-89999999D01*
X118777180Y-89571427D02*
X118824800Y-89523808D01*
X118824800Y-89523808D02*
X118872419Y-89571427D01*
X118872419Y-89571427D02*
X118824800Y-89619046D01*
X118824800Y-89619046D02*
X118777180Y-89571427D01*
X118777180Y-89571427D02*
X118872419Y-89571427D01*
X117872419Y-88904761D02*
X117872419Y-88809523D01*
X117872419Y-88809523D02*
X117920038Y-88714285D01*
X117920038Y-88714285D02*
X117967657Y-88666666D01*
X117967657Y-88666666D02*
X118062895Y-88619047D01*
X118062895Y-88619047D02*
X118253371Y-88571428D01*
X118253371Y-88571428D02*
X118491466Y-88571428D01*
X118491466Y-88571428D02*
X118681942Y-88619047D01*
X118681942Y-88619047D02*
X118777180Y-88666666D01*
X118777180Y-88666666D02*
X118824800Y-88714285D01*
X118824800Y-88714285D02*
X118872419Y-88809523D01*
X118872419Y-88809523D02*
X118872419Y-88904761D01*
X118872419Y-88904761D02*
X118824800Y-88999999D01*
X118824800Y-88999999D02*
X118777180Y-89047618D01*
X118777180Y-89047618D02*
X118681942Y-89095237D01*
X118681942Y-89095237D02*
X118491466Y-89142856D01*
X118491466Y-89142856D02*
X118253371Y-89142856D01*
X118253371Y-89142856D02*
X118062895Y-89095237D01*
X118062895Y-89095237D02*
X117967657Y-89047618D01*
X117967657Y-89047618D02*
X117920038Y-88999999D01*
X117920038Y-88999999D02*
X117872419Y-88904761D01*
X144161027Y-76872419D02*
X144732455Y-76872419D01*
X144446741Y-77872419D02*
X144446741Y-76872419D01*
X144922932Y-76872419D02*
X145256265Y-77872419D01*
X145256265Y-77872419D02*
X145589598Y-76872419D01*
D11*
X146666666Y-83324819D02*
X146666666Y-84039104D01*
X146666666Y-84039104D02*
X146619047Y-84181961D01*
X146619047Y-84181961D02*
X146523809Y-84277200D01*
X146523809Y-84277200D02*
X146380952Y-84324819D01*
X146380952Y-84324819D02*
X146285714Y-84324819D01*
X147047619Y-83324819D02*
X147666666Y-83324819D01*
X147666666Y-83324819D02*
X147333333Y-83705771D01*
X147333333Y-83705771D02*
X147476190Y-83705771D01*
X147476190Y-83705771D02*
X147571428Y-83753390D01*
X147571428Y-83753390D02*
X147619047Y-83801009D01*
X147619047Y-83801009D02*
X147666666Y-83896247D01*
X147666666Y-83896247D02*
X147666666Y-84134342D01*
X147666666Y-84134342D02*
X147619047Y-84229580D01*
X147619047Y-84229580D02*
X147571428Y-84277200D01*
X147571428Y-84277200D02*
X147476190Y-84324819D01*
X147476190Y-84324819D02*
X147190476Y-84324819D01*
X147190476Y-84324819D02*
X147095238Y-84277200D01*
X147095238Y-84277200D02*
X147047619Y-84229580D01*
X143153333Y-95714819D02*
X142820000Y-95238628D01*
X142581905Y-95714819D02*
X142581905Y-94714819D01*
X142581905Y-94714819D02*
X142962857Y-94714819D01*
X142962857Y-94714819D02*
X143058095Y-94762438D01*
X143058095Y-94762438D02*
X143105714Y-94810057D01*
X143105714Y-94810057D02*
X143153333Y-94905295D01*
X143153333Y-94905295D02*
X143153333Y-95048152D01*
X143153333Y-95048152D02*
X143105714Y-95143390D01*
X143105714Y-95143390D02*
X143058095Y-95191009D01*
X143058095Y-95191009D02*
X142962857Y-95238628D01*
X142962857Y-95238628D02*
X142581905Y-95238628D01*
X144105714Y-95714819D02*
X143534286Y-95714819D01*
X143820000Y-95714819D02*
X143820000Y-94714819D01*
X143820000Y-94714819D02*
X143724762Y-94857676D01*
X143724762Y-94857676D02*
X143629524Y-94952914D01*
X143629524Y-94952914D02*
X143534286Y-95000533D01*
X134583333Y-86145180D02*
X134583333Y-85430895D01*
X134583333Y-85430895D02*
X134630952Y-85288038D01*
X134630952Y-85288038D02*
X134726190Y-85192800D01*
X134726190Y-85192800D02*
X134869047Y-85145180D01*
X134869047Y-85145180D02*
X134964285Y-85145180D01*
X133583333Y-85145180D02*
X134154761Y-85145180D01*
X133869047Y-85145180D02*
X133869047Y-86145180D01*
X133869047Y-86145180D02*
X133964285Y-86002323D01*
X133964285Y-86002323D02*
X134059523Y-85907085D01*
X134059523Y-85907085D02*
X134154761Y-85859466D01*
X142611905Y-90204819D02*
X142611905Y-89204819D01*
X142611905Y-89204819D02*
X142850000Y-89204819D01*
X142850000Y-89204819D02*
X142992857Y-89252438D01*
X142992857Y-89252438D02*
X143088095Y-89347676D01*
X143088095Y-89347676D02*
X143135714Y-89442914D01*
X143135714Y-89442914D02*
X143183333Y-89633390D01*
X143183333Y-89633390D02*
X143183333Y-89776247D01*
X143183333Y-89776247D02*
X143135714Y-89966723D01*
X143135714Y-89966723D02*
X143088095Y-90061961D01*
X143088095Y-90061961D02*
X142992857Y-90157200D01*
X142992857Y-90157200D02*
X142850000Y-90204819D01*
X142850000Y-90204819D02*
X142611905Y-90204819D01*
X144135714Y-90204819D02*
X143564286Y-90204819D01*
X143850000Y-90204819D02*
X143850000Y-89204819D01*
X143850000Y-89204819D02*
X143754762Y-89347676D01*
X143754762Y-89347676D02*
X143659524Y-89442914D01*
X143659524Y-89442914D02*
X143564286Y-89490533D01*
D12*
%TO.C,J3*%
X145670000Y-84870000D02*
X147000000Y-84870000D01*
X145670000Y-86200000D02*
X145670000Y-84870000D01*
X145670000Y-87470000D02*
X145670000Y-95150000D01*
X145670000Y-87470000D02*
X148330000Y-87470000D01*
X145670000Y-95150000D02*
X148330000Y-95150000D01*
X148330000Y-87470000D02*
X148330000Y-95150000D01*
%TO.C,R1*%
X143557258Y-93307500D02*
X143082742Y-93307500D01*
X143557258Y-94352500D02*
X143082742Y-94352500D01*
%TO.C,J1*%
X126630000Y-81400000D02*
X126630000Y-78700000D01*
X129150000Y-83120000D02*
X128100000Y-83120000D01*
X129150000Y-84450000D02*
X129150000Y-83120000D01*
X140400000Y-83120000D02*
X138850000Y-83120000D01*
X141870000Y-78700000D02*
X141870000Y-81400000D01*
%TO.C,D1*%
X142500000Y-92025000D02*
X144785000Y-92025000D01*
X144785000Y-90555000D02*
X142500000Y-90555000D01*
X144785000Y-92025000D02*
X144785000Y-90555000D01*
%TD*%
M02*
