%TF.GenerationSoftware,KiCad,Pcbnew,8.0.5*%
%TF.CreationDate,2024-10-07T21:11:13-07:00*%
%TF.ProjectId,hdmi,68646d69-2e6b-4696-9361-645f70636258,rev?*%
%TF.SameCoordinates,Original*%
%TF.FileFunction,Legend,Bot*%
%TF.FilePolarity,Positive*%
%FSLAX46Y46*%
G04 Gerber Fmt 4.6, Leading zero omitted, Abs format (unit mm)*
G04 Created by KiCad (PCBNEW 8.0.5) date 2024-10-07 21:11:13*
%MOMM*%
%LPD*%
G01*
G04 APERTURE LIST*
%ADD10C,0.150000*%
%ADD11C,0.120000*%
G04 APERTURE END LIST*
D10*
X144038094Y-87754819D02*
X144038094Y-86754819D01*
X144038094Y-86754819D02*
X143799999Y-86754819D01*
X143799999Y-86754819D02*
X143657142Y-86802438D01*
X143657142Y-86802438D02*
X143561904Y-86897676D01*
X143561904Y-86897676D02*
X143514285Y-86992914D01*
X143514285Y-86992914D02*
X143466666Y-87183390D01*
X143466666Y-87183390D02*
X143466666Y-87326247D01*
X143466666Y-87326247D02*
X143514285Y-87516723D01*
X143514285Y-87516723D02*
X143561904Y-87611961D01*
X143561904Y-87611961D02*
X143657142Y-87707200D01*
X143657142Y-87707200D02*
X143799999Y-87754819D01*
X143799999Y-87754819D02*
X144038094Y-87754819D01*
X143085713Y-86850057D02*
X143038094Y-86802438D01*
X143038094Y-86802438D02*
X142942856Y-86754819D01*
X142942856Y-86754819D02*
X142704761Y-86754819D01*
X142704761Y-86754819D02*
X142609523Y-86802438D01*
X142609523Y-86802438D02*
X142561904Y-86850057D01*
X142561904Y-86850057D02*
X142514285Y-86945295D01*
X142514285Y-86945295D02*
X142514285Y-87040533D01*
X142514285Y-87040533D02*
X142561904Y-87183390D01*
X142561904Y-87183390D02*
X143133332Y-87754819D01*
X143133332Y-87754819D02*
X142514285Y-87754819D01*
X143486666Y-92854819D02*
X143819999Y-92378628D01*
X144058094Y-92854819D02*
X144058094Y-91854819D01*
X144058094Y-91854819D02*
X143677142Y-91854819D01*
X143677142Y-91854819D02*
X143581904Y-91902438D01*
X143581904Y-91902438D02*
X143534285Y-91950057D01*
X143534285Y-91950057D02*
X143486666Y-92045295D01*
X143486666Y-92045295D02*
X143486666Y-92188152D01*
X143486666Y-92188152D02*
X143534285Y-92283390D01*
X143534285Y-92283390D02*
X143581904Y-92331009D01*
X143581904Y-92331009D02*
X143677142Y-92378628D01*
X143677142Y-92378628D02*
X144058094Y-92378628D01*
X143105713Y-91950057D02*
X143058094Y-91902438D01*
X143058094Y-91902438D02*
X142962856Y-91854819D01*
X142962856Y-91854819D02*
X142724761Y-91854819D01*
X142724761Y-91854819D02*
X142629523Y-91902438D01*
X142629523Y-91902438D02*
X142581904Y-91950057D01*
X142581904Y-91950057D02*
X142534285Y-92045295D01*
X142534285Y-92045295D02*
X142534285Y-92140533D01*
X142534285Y-92140533D02*
X142581904Y-92283390D01*
X142581904Y-92283390D02*
X143153332Y-92854819D01*
X143153332Y-92854819D02*
X142534285Y-92854819D01*
X134583333Y-93854819D02*
X134583333Y-94569104D01*
X134583333Y-94569104D02*
X134630952Y-94711961D01*
X134630952Y-94711961D02*
X134726190Y-94807200D01*
X134726190Y-94807200D02*
X134869047Y-94854819D01*
X134869047Y-94854819D02*
X134964285Y-94854819D01*
X134154761Y-93950057D02*
X134107142Y-93902438D01*
X134107142Y-93902438D02*
X134011904Y-93854819D01*
X134011904Y-93854819D02*
X133773809Y-93854819D01*
X133773809Y-93854819D02*
X133678571Y-93902438D01*
X133678571Y-93902438D02*
X133630952Y-93950057D01*
X133630952Y-93950057D02*
X133583333Y-94045295D01*
X133583333Y-94045295D02*
X133583333Y-94140533D01*
X133583333Y-94140533D02*
X133630952Y-94283390D01*
X133630952Y-94283390D02*
X134202380Y-94854819D01*
X134202380Y-94854819D02*
X133583333Y-94854819D01*
D11*
%TO.C,D2*%
X142500000Y-89465000D02*
X144785000Y-89465000D01*
X144785000Y-87995000D02*
X142500000Y-87995000D01*
X144785000Y-89465000D02*
X144785000Y-87995000D01*
%TO.C,R2*%
X143082742Y-93307500D02*
X143557258Y-93307500D01*
X143082742Y-94352500D02*
X143557258Y-94352500D01*
%TO.C,J2*%
X126630000Y-101300000D02*
X126630000Y-98600000D01*
X128100000Y-96880000D02*
X129150000Y-96880000D01*
X129150000Y-96880000D02*
X129150000Y-95550000D01*
X138850000Y-96880000D02*
X140400000Y-96880000D01*
X141870000Y-98600000D02*
X141870000Y-101300000D01*
%TD*%
M02*
