M48
; DRILL file {KiCad 8.0.5} date 2024-09-27T13:12:07-0700
; FORMAT={-:-/ absolute / inch / decimal}
; #@! TF.CreationDate,2024-09-27T13:12:07-07:00
; #@! TF.GenerationSoftware,Kicad,Pcbnew,8.0.5
; #@! TF.FileFunction,Plated,1,4,PTH
FMAT,2
INCH
; #@! TA.AperFunction,Plated,PTH,ViaDrill
T1C0.0118
; #@! TA.AperFunction,Plated,PTH,ComponentDrill
T2C0.0394
; #@! TA.AperFunction,Plated,PTH,ComponentDrill
T3C0.0512
; #@! TA.AperFunction,Plated,PTH,ComponentDrill
T4C0.0984
%
G90
G05
T1
X4.7244Y-3.3465
X4.7244Y-3.4449
X4.7244Y-3.5433
X4.7244Y-3.6417
X4.7244Y-3.7402
X4.9213Y-3.4449
X4.9213Y-3.5433
X4.9213Y-3.6417
X5.0787Y-3.4055
X5.0787Y-3.4449
X5.0787Y-3.4843
X5.0787Y-3.5236
X5.0787Y-3.563
X5.0787Y-3.6024
X5.0787Y-3.6417
X5.0787Y-3.6811
X5.0787Y-3.7205
X5.1024Y-3.376
X5.1181Y-3.1496
X5.1181Y-3.2283
X5.1181Y-3.8583
X5.1181Y-3.937
X5.1339Y-3.376
X5.1614Y-3.7106
X5.1772Y-3.2283
X5.1772Y-3.8583
X5.1929Y-3.7106
X5.2165Y-3.1496
X5.2165Y-3.937
X5.2205Y-3.376
X5.2362Y-3.2283
X5.2362Y-3.8583
X5.252Y-3.376
X5.2795Y-3.7106
X5.2953Y-3.2283
X5.2953Y-3.8583
X5.311Y-3.7106
X5.315Y-3.1496
X5.315Y-3.937
X5.3504Y-3.376
X5.378Y-3.6417
X5.4016Y-3.5433
X5.4134Y-3.2283
X5.4134Y-3.8583
X5.4331Y-3.4449
X5.4567Y-3.6417
X5.4823Y-3.3858
X5.4823Y-3.4252
X5.4823Y-3.4646
X5.4823Y-3.5039
X5.4823Y-3.5433
X5.4823Y-3.5827
X5.4823Y-3.7008
X5.9055Y-3.3465
X5.9055Y-3.4449
X5.9055Y-3.5433
X5.9055Y-3.6417
X5.9055Y-3.7402
T2
X5.7874Y-3.3937
X5.7874Y-3.4937
X5.7874Y-3.5937
X5.7874Y-3.6937
T3
X4.9764Y-3.0551
X4.9764Y-4.0315
X5.0Y-3.248
X5.0Y-3.8386
X5.5709Y-3.248
X5.5709Y-3.8386
X5.5945Y-3.0551
X5.5945Y-4.0315
T4
X4.7244Y-3.1496
X4.7244Y-3.937
X5.9055Y-3.1496
X5.9055Y-3.937
M30
