%TF.GenerationSoftware,KiCad,Pcbnew,8.0.4*%
%TF.CreationDate,2024-08-19T09:36:31-07:00*%
%TF.ProjectId,hdmi,68646d69-2e6b-4696-9361-645f70636258,rev?*%
%TF.SameCoordinates,Original*%
%TF.FileFunction,Copper,L1,Top*%
%TF.FilePolarity,Positive*%
%FSLAX46Y46*%
G04 Gerber Fmt 4.6, Leading zero omitted, Abs format (unit mm)*
G04 Created by KiCad (PCBNEW 8.0.4) date 2024-08-19 09:36:31*
%MOMM*%
%LPD*%
G01*
G04 APERTURE LIST*
G04 Aperture macros list*
%AMRoundRect*
0 Rectangle with rounded corners*
0 $1 Rounding radius*
0 $2 $3 $4 $5 $6 $7 $8 $9 X,Y pos of 4 corners*
0 Add a 4 corners polygon primitive as box body*
4,1,4,$2,$3,$4,$5,$6,$7,$8,$9,$2,$3,0*
0 Add four circle primitives for the rounded corners*
1,1,$1+$1,$2,$3*
1,1,$1+$1,$4,$5*
1,1,$1+$1,$6,$7*
1,1,$1+$1,$8,$9*
0 Add four rect primitives between the rounded corners*
20,1,$1+$1,$2,$3,$4,$5,0*
20,1,$1+$1,$4,$5,$6,$7,0*
20,1,$1+$1,$6,$7,$8,$9,0*
20,1,$1+$1,$8,$9,$2,$3,0*%
G04 Aperture macros list end*
%TA.AperFunction,SMDPad,CuDef*%
%ADD10RoundRect,0.200000X0.275000X-0.200000X0.275000X0.200000X-0.275000X0.200000X-0.275000X-0.200000X0*%
%TD*%
%TA.AperFunction,ComponentPad*%
%ADD11R,1.700000X1.700000*%
%TD*%
%TA.AperFunction,ComponentPad*%
%ADD12O,1.700000X1.700000*%
%TD*%
%TA.AperFunction,SMDPad,CuDef*%
%ADD13RoundRect,0.218750X-0.256250X0.218750X-0.256250X-0.218750X0.256250X-0.218750X0.256250X0.218750X0*%
%TD*%
%TA.AperFunction,SMDPad,CuDef*%
%ADD14R,0.300000X1.900000*%
%TD*%
%TA.AperFunction,ComponentPad*%
%ADD15C,1.800000*%
%TD*%
%TA.AperFunction,ViaPad*%
%ADD16C,0.600000*%
%TD*%
%TA.AperFunction,Conductor*%
%ADD17C,0.200000*%
%TD*%
G04 APERTURE END LIST*
D10*
%TO.P,R1,1*%
%TO.N,VDD*%
X153720800Y-93122500D03*
%TO.P,R1,2*%
%TO.N,Net-(D1-A)*%
X153720800Y-91472500D03*
%TD*%
D11*
%TO.P,J3,1,Pin_1*%
%TO.N,GND*%
X153720800Y-104620000D03*
D12*
%TO.P,J3,2,Pin_2*%
%TO.N,Net-(D2-K)*%
X153720800Y-102080000D03*
%TO.P,J3,3,Pin_3*%
%TO.N,Net-(D1-K)*%
X153720800Y-99540000D03*
%TO.P,J3,4,Pin_4*%
%TO.N,VDD*%
X153720800Y-97000000D03*
%TD*%
D13*
%TO.P,D1,2,A*%
%TO.N,Net-(D1-A)*%
X153720800Y-89075000D03*
%TO.P,D1,1,K*%
%TO.N,Net-(D1-K)*%
X153720800Y-87500000D03*
%TD*%
D14*
%TO.P,J1,1,D2+*%
%TO.N,/D2+*%
X135430000Y-92260000D03*
%TO.P,J1,2,D2S*%
%TO.N,GND*%
X135930000Y-92260000D03*
%TO.P,J1,3,D2-*%
%TO.N,/D2-*%
X136430000Y-92260000D03*
%TO.P,J1,4,D1+*%
%TO.N,/D1+*%
X136930000Y-92260000D03*
%TO.P,J1,5,D1S*%
%TO.N,GND*%
X137430000Y-92260000D03*
%TO.P,J1,6,D1-*%
%TO.N,/D1-*%
X137930000Y-92260000D03*
%TO.P,J1,7,D0+*%
%TO.N,/D0+*%
X138430000Y-92260000D03*
%TO.P,J1,8,D0S*%
%TO.N,GND*%
X138930000Y-92260000D03*
%TO.P,J1,9,D0-*%
%TO.N,/D0-*%
X139430000Y-92260000D03*
%TO.P,J1,10,CK+*%
%TO.N,/CK+*%
X139930000Y-92260000D03*
%TO.P,J1,11,CKS*%
%TO.N,GND*%
X140430000Y-92260000D03*
%TO.P,J1,12,CK-*%
%TO.N,/CK-*%
X140930000Y-92260000D03*
%TO.P,J1,13,CEC*%
%TO.N,Net-(D1-K)*%
X141430000Y-92260000D03*
%TO.P,J1,14,UTILITY*%
%TO.N,Net-(J1-UTILITY)*%
X141930000Y-92260000D03*
%TO.P,J1,15,SCL*%
%TO.N,Net-(J1-SCL)*%
X142430000Y-92260000D03*
%TO.P,J1,16,SDA*%
%TO.N,Net-(J1-SDA)*%
X142930000Y-92260000D03*
%TO.P,J1,17,GND*%
%TO.N,GND*%
X143430000Y-92260000D03*
%TO.P,J1,18,+5V*%
%TO.N,Net-(J1-+5V)*%
X143930000Y-92260000D03*
%TO.P,J1,19,HPD*%
%TO.N,Net-(J1-HPD)*%
X144430000Y-92260000D03*
D15*
%TO.P,J1,SH,SH*%
%TO.N,GND*%
X148030000Y-86360000D03*
X147430000Y-91260000D03*
X132930000Y-91260000D03*
X132330000Y-86360000D03*
%TD*%
%TO.P,J2,SH,SH*%
%TO.N,GND*%
X148030000Y-115390000D03*
X147430000Y-110490000D03*
X132930000Y-110490000D03*
X132330000Y-115390000D03*
%TD*%
D16*
%TO.N,Net-(J1-HPD)*%
X146812000Y-97028000D03*
%TO.N,Net-(J1-SDA)*%
X145288000Y-97790000D03*
%TO.N,Net-(J1-UTILITY)*%
X143129000Y-99441000D03*
%TO.N,Net-(J1-SCL)*%
X144145000Y-98806000D03*
%TO.N,/D0+*%
X137828500Y-100980000D03*
%TO.N,/D1+*%
X135188500Y-100980000D03*
%TO.N,/D2+*%
X132608500Y-100980000D03*
%TO.N,/D1-*%
X135871500Y-100980000D03*
%TO.N,/D0-*%
X138511500Y-100980000D03*
%TO.N,/D2-*%
X133291500Y-100980000D03*
%TO.N,/CK+*%
X141048500Y-100980000D03*
%TO.N,/CK-*%
X141731500Y-100980000D03*
%TO.N,Net-(J1-+5V)*%
X146088003Y-97790000D03*
%TD*%
D17*
%TO.N,VDD*%
X153720800Y-93122500D02*
X153720800Y-97000000D01*
%TO.N,Net-(D1-K)*%
X153720800Y-87500000D02*
X153700000Y-87500000D01*
X141430000Y-91136000D02*
X142283000Y-90283000D01*
X153700000Y-87500000D02*
X152995800Y-88204200D01*
X142283000Y-90283000D02*
X142506000Y-90060000D01*
X144361800Y-88204200D02*
X142283000Y-90283000D01*
X152995800Y-88204200D02*
X144361800Y-88204200D01*
X141430000Y-92260000D02*
X141430000Y-91136000D01*
X150825200Y-96644400D02*
X153720800Y-99540000D01*
X148581600Y-90060000D02*
X150825200Y-92303600D01*
X150825200Y-92303600D02*
X150825200Y-96644400D01*
%TO.N,Net-(D1-A)*%
X153720800Y-89075000D02*
X153720800Y-91472500D01*
X153746200Y-89084900D02*
X153695400Y-89135700D01*
X153720800Y-89075000D02*
X153720800Y-89084900D01*
%TO.N,Net-(J1-HPD)*%
X146812000Y-97028000D02*
X144430000Y-94646000D01*
X144430000Y-94646000D02*
X144430000Y-92260000D01*
%TO.N,Net-(J1-SDA)*%
X142930000Y-92260000D02*
X142930000Y-95432000D01*
X142930000Y-95432000D02*
X145288000Y-97790000D01*
%TO.N,Net-(J1-UTILITY)*%
X141930000Y-98242000D02*
X143129000Y-99441000D01*
X141930000Y-92260000D02*
X141980000Y-92310000D01*
X141930000Y-92260000D02*
X141930000Y-98242000D01*
%TO.N,Net-(J1-SCL)*%
X142430000Y-92260000D02*
X142430000Y-97091000D01*
X142430000Y-97091000D02*
X144145000Y-98806000D01*
%TO.N,/D0+*%
X138438499Y-93356390D02*
X138796999Y-93714890D01*
X138598916Y-98890860D02*
X138056998Y-99432778D01*
X138796999Y-93714890D02*
X138796999Y-98692777D01*
X137828500Y-100980000D02*
X138050450Y-100758050D01*
X138056998Y-99432778D02*
X138056998Y-100751502D01*
X138050450Y-100758050D02*
X138056998Y-100751502D01*
X138438499Y-91931389D02*
X138438499Y-93356390D01*
X138796999Y-98692777D02*
X138598916Y-98890860D01*
%TO.N,/D1+*%
X135416998Y-100751502D02*
X135188500Y-100980000D01*
X136938499Y-91931389D02*
X136938499Y-93356390D01*
X136938499Y-93356390D02*
X137296999Y-93714890D01*
X137296999Y-93714890D02*
X137296999Y-97152777D01*
X137296999Y-97152777D02*
X135416998Y-99032778D01*
X135416998Y-99032778D02*
X135416998Y-100751502D01*
%TO.N,/D2+*%
X135438499Y-91931389D02*
X135438499Y-93356390D01*
X135438499Y-93356390D02*
X135796999Y-93714890D01*
X135796999Y-93714890D02*
X135796999Y-95802777D01*
X132836998Y-100811389D02*
X132636999Y-101011388D01*
X132836998Y-98762778D02*
X132836998Y-100821390D01*
X135796999Y-95802777D02*
X132836998Y-98762778D01*
%TO.N,/D1-*%
X137579999Y-93714890D02*
X137579999Y-97270001D01*
X137938499Y-93356390D02*
X137579999Y-93714890D01*
X135700000Y-99150000D02*
X135700000Y-100808500D01*
X137579999Y-97270001D02*
X135700000Y-99150000D01*
X135700000Y-100808500D02*
X135871500Y-100980000D01*
X137938499Y-91931389D02*
X137938499Y-93356390D01*
%TO.N,/D0-*%
X139438499Y-93356390D02*
X139438499Y-91931389D01*
X139079999Y-98810001D02*
X139079999Y-93714890D01*
X139079999Y-93714890D02*
X139438499Y-93356390D01*
X138462516Y-100931016D02*
X138340000Y-100808500D01*
X138340000Y-99550000D02*
X139079999Y-98810001D01*
X138340000Y-100808500D02*
X138340000Y-99550000D01*
%TO.N,/D2-*%
X136438499Y-93356390D02*
X136079999Y-93714890D01*
X136079999Y-95920001D02*
X133120000Y-98880000D01*
X133120000Y-100811389D02*
X133319999Y-101011388D01*
X136079999Y-93714890D02*
X136079999Y-95920001D01*
X136438499Y-91931389D02*
X136438499Y-93356390D01*
X133120000Y-98880000D02*
X133120000Y-100821390D01*
%TO.N,/CK+*%
X140326999Y-93714890D02*
X140326999Y-98750001D01*
X141276998Y-99700000D02*
X141276998Y-100751502D01*
X140326999Y-98750001D02*
X141276998Y-99700000D01*
X141276998Y-100751502D02*
X141048500Y-100980000D01*
X139968499Y-91931389D02*
X139968499Y-93356390D01*
X139968499Y-93356390D02*
X140326999Y-93714890D01*
%TO.N,/CK-*%
X140968499Y-93356390D02*
X140609999Y-93714890D01*
X141560000Y-100808500D02*
X141731500Y-100980000D01*
X141560000Y-99582778D02*
X141560000Y-100808500D01*
X140609999Y-98632777D02*
X141560000Y-99582778D01*
X140968499Y-91931389D02*
X140968499Y-93356390D01*
X140609999Y-93714890D02*
X140609999Y-98632777D01*
%TO.N,Net-(J1-+5V)*%
X143930000Y-95416000D02*
X144018000Y-95504000D01*
X143930000Y-92260000D02*
X143930000Y-95416000D01*
X146088003Y-97574003D02*
X146088003Y-97790000D01*
X144018000Y-95504000D02*
X146088003Y-97574003D01*
%TO.N,Net-(D1-K)*%
X142506000Y-90060000D02*
X148581600Y-90060000D01*
%TD*%
%TA.AperFunction,Conductor*%
%TO.N,GND*%
G36*
X164478539Y-84340185D02*
G01*
X164524294Y-84392989D01*
X164535500Y-84444500D01*
X164535500Y-117485500D01*
X164515815Y-117552539D01*
X164463011Y-117598294D01*
X164411500Y-117609500D01*
X120504500Y-117609500D01*
X120437461Y-117589815D01*
X120391706Y-117537011D01*
X120380500Y-117485500D01*
X120380500Y-113845528D01*
X120749500Y-113845528D01*
X120749500Y-114154471D01*
X120784086Y-114461437D01*
X120784089Y-114461455D01*
X120852831Y-114762635D01*
X120852835Y-114762647D01*
X120954862Y-115054222D01*
X120954868Y-115054236D01*
X121088903Y-115332562D01*
X121088905Y-115332565D01*
X121253265Y-115594143D01*
X121445880Y-115835674D01*
X121664326Y-116054120D01*
X121905857Y-116246735D01*
X122167435Y-116411095D01*
X122445771Y-116545135D01*
X122445777Y-116545137D01*
X122737352Y-116647164D01*
X122737364Y-116647168D01*
X123038548Y-116715911D01*
X123038554Y-116715911D01*
X123038562Y-116715913D01*
X123243206Y-116738970D01*
X123345529Y-116750499D01*
X123345532Y-116750500D01*
X123345535Y-116750500D01*
X123654468Y-116750500D01*
X123654469Y-116750499D01*
X123811356Y-116732822D01*
X123961437Y-116715913D01*
X123961442Y-116715912D01*
X123961452Y-116715911D01*
X124262636Y-116647168D01*
X124554229Y-116545135D01*
X124832565Y-116411095D01*
X125094143Y-116246735D01*
X125335674Y-116054120D01*
X125554120Y-115835674D01*
X125746735Y-115594143D01*
X125875010Y-115389994D01*
X130925202Y-115389994D01*
X130925202Y-115390005D01*
X130944361Y-115621218D01*
X131001317Y-115846135D01*
X131094515Y-116058606D01*
X131178812Y-116187633D01*
X131728958Y-115637487D01*
X131753978Y-115697890D01*
X131825112Y-115804351D01*
X131915649Y-115894888D01*
X132022110Y-115966022D01*
X132082511Y-115991041D01*
X131531201Y-116542351D01*
X131561649Y-116566050D01*
X131765697Y-116676476D01*
X131765706Y-116676479D01*
X131985139Y-116751811D01*
X132213993Y-116790000D01*
X132446007Y-116790000D01*
X132674860Y-116751811D01*
X132894293Y-116676479D01*
X132894301Y-116676476D01*
X133098355Y-116566047D01*
X133128797Y-116542351D01*
X133128798Y-116542350D01*
X132577489Y-115991041D01*
X132637890Y-115966022D01*
X132744351Y-115894888D01*
X132834888Y-115804351D01*
X132906022Y-115697890D01*
X132931041Y-115637488D01*
X133481186Y-116187633D01*
X133565482Y-116058611D01*
X133658682Y-115846135D01*
X133715638Y-115621218D01*
X133734798Y-115390005D01*
X133734798Y-115389994D01*
X146625202Y-115389994D01*
X146625202Y-115390005D01*
X146644361Y-115621218D01*
X146701317Y-115846135D01*
X146794515Y-116058606D01*
X146878812Y-116187633D01*
X147428958Y-115637487D01*
X147453978Y-115697890D01*
X147525112Y-115804351D01*
X147615649Y-115894888D01*
X147722110Y-115966022D01*
X147782511Y-115991041D01*
X147231201Y-116542351D01*
X147261649Y-116566050D01*
X147465697Y-116676476D01*
X147465706Y-116676479D01*
X147685139Y-116751811D01*
X147913993Y-116790000D01*
X148146007Y-116790000D01*
X148374860Y-116751811D01*
X148594293Y-116676479D01*
X148594301Y-116676476D01*
X148798355Y-116566047D01*
X148828797Y-116542351D01*
X148828798Y-116542350D01*
X148277489Y-115991041D01*
X148337890Y-115966022D01*
X148444351Y-115894888D01*
X148534888Y-115804351D01*
X148606022Y-115697890D01*
X148631041Y-115637488D01*
X149181186Y-116187633D01*
X149265482Y-116058611D01*
X149358682Y-115846135D01*
X149415638Y-115621218D01*
X149434798Y-115390005D01*
X149434798Y-115389994D01*
X149415638Y-115158781D01*
X149358682Y-114933864D01*
X149265484Y-114721393D01*
X149181186Y-114592365D01*
X148631041Y-115142510D01*
X148606022Y-115082110D01*
X148534888Y-114975649D01*
X148444351Y-114885112D01*
X148337890Y-114813978D01*
X148277487Y-114788958D01*
X148828797Y-114237647D01*
X148828797Y-114237645D01*
X148798360Y-114213955D01*
X148798354Y-114213951D01*
X148594302Y-114103523D01*
X148594293Y-114103520D01*
X148374860Y-114028188D01*
X148146007Y-113990000D01*
X147913993Y-113990000D01*
X147685139Y-114028188D01*
X147465706Y-114103520D01*
X147465697Y-114103523D01*
X147261650Y-114213949D01*
X147231200Y-114237647D01*
X147782511Y-114788958D01*
X147722110Y-114813978D01*
X147615649Y-114885112D01*
X147525112Y-114975649D01*
X147453978Y-115082110D01*
X147428958Y-115142512D01*
X146878811Y-114592365D01*
X146794516Y-114721390D01*
X146701317Y-114933864D01*
X146644361Y-115158781D01*
X146625202Y-115389994D01*
X133734798Y-115389994D01*
X133715638Y-115158781D01*
X133658682Y-114933864D01*
X133565484Y-114721393D01*
X133481186Y-114592365D01*
X132931041Y-115142510D01*
X132906022Y-115082110D01*
X132834888Y-114975649D01*
X132744351Y-114885112D01*
X132637890Y-114813978D01*
X132577487Y-114788958D01*
X133128797Y-114237647D01*
X133128797Y-114237645D01*
X133098360Y-114213955D01*
X133098354Y-114213951D01*
X132894302Y-114103523D01*
X132894293Y-114103520D01*
X132674860Y-114028188D01*
X132446007Y-113990000D01*
X132213993Y-113990000D01*
X131985139Y-114028188D01*
X131765706Y-114103520D01*
X131765697Y-114103523D01*
X131561650Y-114213949D01*
X131531200Y-114237647D01*
X132082511Y-114788958D01*
X132022110Y-114813978D01*
X131915649Y-114885112D01*
X131825112Y-114975649D01*
X131753978Y-115082110D01*
X131728958Y-115142512D01*
X131178811Y-114592365D01*
X131094516Y-114721390D01*
X131001317Y-114933864D01*
X130944361Y-115158781D01*
X130925202Y-115389994D01*
X125875010Y-115389994D01*
X125911095Y-115332565D01*
X126045135Y-115054229D01*
X126147168Y-114762636D01*
X126215911Y-114461452D01*
X126250500Y-114154465D01*
X126250500Y-113845535D01*
X126250499Y-113845528D01*
X158749500Y-113845528D01*
X158749500Y-114154471D01*
X158784086Y-114461437D01*
X158784089Y-114461455D01*
X158852831Y-114762635D01*
X158852835Y-114762647D01*
X158954862Y-115054222D01*
X158954868Y-115054236D01*
X159088903Y-115332562D01*
X159088905Y-115332565D01*
X159253265Y-115594143D01*
X159445880Y-115835674D01*
X159664326Y-116054120D01*
X159905857Y-116246735D01*
X160167435Y-116411095D01*
X160445771Y-116545135D01*
X160445777Y-116545137D01*
X160737352Y-116647164D01*
X160737364Y-116647168D01*
X161038548Y-116715911D01*
X161038554Y-116715911D01*
X161038562Y-116715913D01*
X161243206Y-116738970D01*
X161345529Y-116750499D01*
X161345532Y-116750500D01*
X161345535Y-116750500D01*
X161654468Y-116750500D01*
X161654469Y-116750499D01*
X161811356Y-116732822D01*
X161961437Y-116715913D01*
X161961442Y-116715912D01*
X161961452Y-116715911D01*
X162262636Y-116647168D01*
X162554229Y-116545135D01*
X162832565Y-116411095D01*
X163094143Y-116246735D01*
X163335674Y-116054120D01*
X163554120Y-115835674D01*
X163746735Y-115594143D01*
X163911095Y-115332565D01*
X164045135Y-115054229D01*
X164147168Y-114762636D01*
X164215911Y-114461452D01*
X164250500Y-114154465D01*
X164250500Y-113845535D01*
X164215911Y-113538548D01*
X164147168Y-113237364D01*
X164045135Y-112945771D01*
X163911095Y-112667435D01*
X163746735Y-112405857D01*
X163554120Y-112164326D01*
X163335674Y-111945880D01*
X163094143Y-111753265D01*
X162832565Y-111588905D01*
X162832562Y-111588903D01*
X162554236Y-111454868D01*
X162554222Y-111454862D01*
X162262647Y-111352835D01*
X162262635Y-111352831D01*
X161961455Y-111284089D01*
X161961437Y-111284086D01*
X161654471Y-111249500D01*
X161654465Y-111249500D01*
X161345535Y-111249500D01*
X161345528Y-111249500D01*
X161038562Y-111284086D01*
X161038544Y-111284089D01*
X160737364Y-111352831D01*
X160737352Y-111352835D01*
X160445777Y-111454862D01*
X160445763Y-111454868D01*
X160167437Y-111588903D01*
X159905858Y-111753264D01*
X159664326Y-111945879D01*
X159445879Y-112164326D01*
X159253264Y-112405858D01*
X159088903Y-112667437D01*
X158954868Y-112945763D01*
X158954862Y-112945777D01*
X158852835Y-113237352D01*
X158852831Y-113237364D01*
X158784089Y-113538544D01*
X158784086Y-113538562D01*
X158749500Y-113845528D01*
X126250499Y-113845528D01*
X126215911Y-113538548D01*
X126147168Y-113237364D01*
X126045135Y-112945771D01*
X125911095Y-112667435D01*
X125746735Y-112405857D01*
X125554120Y-112164326D01*
X125335674Y-111945880D01*
X125094143Y-111753265D01*
X124832565Y-111588905D01*
X124832562Y-111588903D01*
X124554236Y-111454868D01*
X124554222Y-111454862D01*
X124262647Y-111352835D01*
X124262635Y-111352831D01*
X123961455Y-111284089D01*
X123961437Y-111284086D01*
X123654471Y-111249500D01*
X123654465Y-111249500D01*
X123345535Y-111249500D01*
X123345528Y-111249500D01*
X123038562Y-111284086D01*
X123038544Y-111284089D01*
X122737364Y-111352831D01*
X122737352Y-111352835D01*
X122445777Y-111454862D01*
X122445763Y-111454868D01*
X122167437Y-111588903D01*
X121905858Y-111753264D01*
X121664326Y-111945879D01*
X121445879Y-112164326D01*
X121253264Y-112405858D01*
X121088903Y-112667437D01*
X120954868Y-112945763D01*
X120954862Y-112945777D01*
X120852835Y-113237352D01*
X120852831Y-113237364D01*
X120784089Y-113538544D01*
X120784086Y-113538562D01*
X120749500Y-113845528D01*
X120380500Y-113845528D01*
X120380500Y-110489994D01*
X131525202Y-110489994D01*
X131525202Y-110490005D01*
X131544361Y-110721218D01*
X131601317Y-110946135D01*
X131694515Y-111158606D01*
X131778812Y-111287633D01*
X132328958Y-110737487D01*
X132353978Y-110797890D01*
X132425112Y-110904351D01*
X132515649Y-110994888D01*
X132622110Y-111066022D01*
X132682511Y-111091041D01*
X132131201Y-111642351D01*
X132161649Y-111666050D01*
X132365697Y-111776476D01*
X132365706Y-111776479D01*
X132585139Y-111851811D01*
X132813993Y-111890000D01*
X133046007Y-111890000D01*
X133274860Y-111851811D01*
X133494293Y-111776479D01*
X133494301Y-111776476D01*
X133698355Y-111666047D01*
X133728797Y-111642351D01*
X133728798Y-111642350D01*
X133177489Y-111091041D01*
X133237890Y-111066022D01*
X133344351Y-110994888D01*
X133434888Y-110904351D01*
X133506022Y-110797890D01*
X133531041Y-110737488D01*
X134081186Y-111287633D01*
X134165482Y-111158611D01*
X134258682Y-110946135D01*
X134315638Y-110721218D01*
X134334798Y-110490005D01*
X134334798Y-110489994D01*
X146025202Y-110489994D01*
X146025202Y-110490005D01*
X146044361Y-110721218D01*
X146101317Y-110946135D01*
X146194515Y-111158606D01*
X146278812Y-111287633D01*
X146828958Y-110737487D01*
X146853978Y-110797890D01*
X146925112Y-110904351D01*
X147015649Y-110994888D01*
X147122110Y-111066022D01*
X147182511Y-111091041D01*
X146631201Y-111642351D01*
X146661649Y-111666050D01*
X146865697Y-111776476D01*
X146865706Y-111776479D01*
X147085139Y-111851811D01*
X147313993Y-111890000D01*
X147546007Y-111890000D01*
X147774860Y-111851811D01*
X147994293Y-111776479D01*
X147994301Y-111776476D01*
X148198355Y-111666047D01*
X148228797Y-111642351D01*
X148228798Y-111642350D01*
X147677489Y-111091041D01*
X147737890Y-111066022D01*
X147844351Y-110994888D01*
X147934888Y-110904351D01*
X148006022Y-110797890D01*
X148031041Y-110737488D01*
X148581186Y-111287633D01*
X148665482Y-111158611D01*
X148758682Y-110946135D01*
X148815638Y-110721218D01*
X148834798Y-110490005D01*
X148834798Y-110489994D01*
X148815638Y-110258781D01*
X148758682Y-110033864D01*
X148665484Y-109821393D01*
X148581186Y-109692365D01*
X148031041Y-110242510D01*
X148006022Y-110182110D01*
X147934888Y-110075649D01*
X147844351Y-109985112D01*
X147737890Y-109913978D01*
X147677487Y-109888958D01*
X148228797Y-109337647D01*
X148228797Y-109337645D01*
X148198360Y-109313955D01*
X148198354Y-109313951D01*
X147994302Y-109203523D01*
X147994293Y-109203520D01*
X147774860Y-109128188D01*
X147546007Y-109090000D01*
X147313993Y-109090000D01*
X147085139Y-109128188D01*
X146865706Y-109203520D01*
X146865697Y-109203523D01*
X146661650Y-109313949D01*
X146631200Y-109337647D01*
X147182511Y-109888958D01*
X147122110Y-109913978D01*
X147015649Y-109985112D01*
X146925112Y-110075649D01*
X146853978Y-110182110D01*
X146828958Y-110242512D01*
X146278811Y-109692365D01*
X146194516Y-109821390D01*
X146101317Y-110033864D01*
X146044361Y-110258781D01*
X146025202Y-110489994D01*
X134334798Y-110489994D01*
X134315638Y-110258781D01*
X134258682Y-110033864D01*
X134165484Y-109821393D01*
X134081186Y-109692365D01*
X133531041Y-110242510D01*
X133506022Y-110182110D01*
X133434888Y-110075649D01*
X133344351Y-109985112D01*
X133237890Y-109913978D01*
X133177487Y-109888958D01*
X133728797Y-109337647D01*
X133728797Y-109337645D01*
X133698360Y-109313955D01*
X133698354Y-109313951D01*
X133494302Y-109203523D01*
X133494293Y-109203520D01*
X133274860Y-109128188D01*
X133046007Y-109090000D01*
X132813993Y-109090000D01*
X132585139Y-109128188D01*
X132365706Y-109203520D01*
X132365697Y-109203523D01*
X132161650Y-109313949D01*
X132131200Y-109337647D01*
X132682511Y-109888958D01*
X132622110Y-109913978D01*
X132515649Y-109985112D01*
X132425112Y-110075649D01*
X132353978Y-110182110D01*
X132328958Y-110242512D01*
X131778811Y-109692365D01*
X131694516Y-109821390D01*
X131601317Y-110033864D01*
X131544361Y-110258781D01*
X131525202Y-110489994D01*
X120380500Y-110489994D01*
X120380500Y-103722155D01*
X152370800Y-103722155D01*
X152370800Y-104370000D01*
X153287788Y-104370000D01*
X153254875Y-104427007D01*
X153220800Y-104554174D01*
X153220800Y-104685826D01*
X153254875Y-104812993D01*
X153287788Y-104870000D01*
X152370800Y-104870000D01*
X152370800Y-105517844D01*
X152377201Y-105577372D01*
X152377203Y-105577379D01*
X152427445Y-105712086D01*
X152427449Y-105712093D01*
X152513609Y-105827187D01*
X152513612Y-105827190D01*
X152628706Y-105913350D01*
X152628713Y-105913354D01*
X152763420Y-105963596D01*
X152763427Y-105963598D01*
X152822955Y-105969999D01*
X152822972Y-105970000D01*
X153470800Y-105970000D01*
X153470800Y-105053012D01*
X153527807Y-105085925D01*
X153654974Y-105120000D01*
X153786626Y-105120000D01*
X153913793Y-105085925D01*
X153970800Y-105053012D01*
X153970800Y-105970000D01*
X154618628Y-105970000D01*
X154618644Y-105969999D01*
X154678172Y-105963598D01*
X154678179Y-105963596D01*
X154812886Y-105913354D01*
X154812893Y-105913350D01*
X154927987Y-105827190D01*
X154927990Y-105827187D01*
X155014150Y-105712093D01*
X155014154Y-105712086D01*
X155064396Y-105577379D01*
X155064398Y-105577372D01*
X155070799Y-105517844D01*
X155070800Y-105517827D01*
X155070800Y-104870000D01*
X154153812Y-104870000D01*
X154186725Y-104812993D01*
X154220800Y-104685826D01*
X154220800Y-104554174D01*
X154186725Y-104427007D01*
X154153812Y-104370000D01*
X155070800Y-104370000D01*
X155070800Y-103722172D01*
X155070799Y-103722155D01*
X155064398Y-103662627D01*
X155064396Y-103662620D01*
X155014154Y-103527913D01*
X155014150Y-103527906D01*
X154927990Y-103412812D01*
X154927987Y-103412809D01*
X154812893Y-103326649D01*
X154812886Y-103326645D01*
X154678179Y-103276403D01*
X154678172Y-103276401D01*
X154618644Y-103270000D01*
X154217987Y-103270000D01*
X154150948Y-103250315D01*
X154105193Y-103197511D01*
X154095249Y-103128353D01*
X154124274Y-103064797D01*
X154159533Y-103036642D01*
X154307250Y-102957685D01*
X154467210Y-102826410D01*
X154598485Y-102666450D01*
X154696032Y-102483954D01*
X154756100Y-102285934D01*
X154776383Y-102080000D01*
X154756100Y-101874066D01*
X154696032Y-101676046D01*
X154598485Y-101493550D01*
X154490643Y-101362143D01*
X154467210Y-101333589D01*
X154307252Y-101202317D01*
X154307253Y-101202317D01*
X154307250Y-101202315D01*
X154124754Y-101104768D01*
X153926734Y-101044700D01*
X153926732Y-101044699D01*
X153926734Y-101044699D01*
X153720800Y-101024417D01*
X153514867Y-101044699D01*
X153316843Y-101104769D01*
X153283754Y-101122456D01*
X153134350Y-101202315D01*
X153134348Y-101202316D01*
X153134347Y-101202317D01*
X152974389Y-101333589D01*
X152843117Y-101493547D01*
X152745569Y-101676043D01*
X152685499Y-101874067D01*
X152665217Y-102080000D01*
X152685499Y-102285932D01*
X152685500Y-102285934D01*
X152745568Y-102483954D01*
X152843115Y-102666450D01*
X152843117Y-102666452D01*
X152974389Y-102826410D01*
X153071009Y-102905702D01*
X153134350Y-102957685D01*
X153282067Y-103036642D01*
X153331911Y-103085605D01*
X153347371Y-103153743D01*
X153323539Y-103219422D01*
X153267981Y-103261791D01*
X153223613Y-103270000D01*
X152822955Y-103270000D01*
X152763427Y-103276401D01*
X152763420Y-103276403D01*
X152628713Y-103326645D01*
X152628706Y-103326649D01*
X152513612Y-103412809D01*
X152513609Y-103412812D01*
X152427449Y-103527906D01*
X152427445Y-103527913D01*
X152377203Y-103662620D01*
X152377201Y-103662627D01*
X152370800Y-103722155D01*
X120380500Y-103722155D01*
X120380500Y-100980000D01*
X132102853Y-100980000D01*
X132123334Y-101122456D01*
X132159805Y-101202315D01*
X132183123Y-101253373D01*
X132277372Y-101362143D01*
X132398447Y-101439953D01*
X132398450Y-101439954D01*
X132398449Y-101439954D01*
X132536536Y-101480499D01*
X132536538Y-101480500D01*
X132536539Y-101480500D01*
X132680462Y-101480500D01*
X132680462Y-101480499D01*
X132818550Y-101439954D01*
X132818551Y-101439954D01*
X132882960Y-101398561D01*
X132950000Y-101378876D01*
X133017037Y-101398559D01*
X133017040Y-101398561D01*
X133081448Y-101439954D01*
X133219536Y-101480499D01*
X133219538Y-101480500D01*
X133219539Y-101480500D01*
X133363462Y-101480500D01*
X133363462Y-101480499D01*
X133501553Y-101439953D01*
X133622628Y-101362143D01*
X133716877Y-101253373D01*
X133776665Y-101122457D01*
X133797147Y-100980000D01*
X133776665Y-100837543D01*
X133716877Y-100706627D01*
X133622628Y-100597857D01*
X133501553Y-100520047D01*
X133501549Y-100520046D01*
X133493487Y-100516364D01*
X133494993Y-100513064D01*
X133450671Y-100484491D01*
X133421737Y-100420893D01*
X133420500Y-100403422D01*
X133420500Y-99055833D01*
X133440185Y-98988794D01*
X133456819Y-98968152D01*
X134883854Y-97541117D01*
X136320459Y-96104512D01*
X136360021Y-96035989D01*
X136380499Y-95959563D01*
X136380499Y-95880439D01*
X136380499Y-93890723D01*
X136400184Y-93823684D01*
X136416818Y-93803042D01*
X136600818Y-93619042D01*
X136662141Y-93585557D01*
X136731833Y-93590541D01*
X136776180Y-93619042D01*
X136960180Y-93803042D01*
X136993665Y-93864365D01*
X136996499Y-93890723D01*
X136996499Y-96976944D01*
X136976814Y-97043983D01*
X136960180Y-97064625D01*
X135176539Y-98848265D01*
X135176533Y-98848273D01*
X135136980Y-98916782D01*
X135136977Y-98916787D01*
X135116498Y-98993217D01*
X135116498Y-100386686D01*
X135096813Y-100453725D01*
X135044009Y-100499480D01*
X135027433Y-100505663D01*
X134978448Y-100520045D01*
X134857373Y-100597856D01*
X134763123Y-100706626D01*
X134763122Y-100706628D01*
X134703334Y-100837543D01*
X134682853Y-100980000D01*
X134703334Y-101122456D01*
X134739805Y-101202315D01*
X134763123Y-101253373D01*
X134857372Y-101362143D01*
X134978447Y-101439953D01*
X134978450Y-101439954D01*
X134978449Y-101439954D01*
X135116536Y-101480499D01*
X135116538Y-101480500D01*
X135116539Y-101480500D01*
X135260462Y-101480500D01*
X135260462Y-101480499D01*
X135398550Y-101439954D01*
X135398551Y-101439954D01*
X135462960Y-101398561D01*
X135530000Y-101378876D01*
X135597037Y-101398559D01*
X135597040Y-101398561D01*
X135661448Y-101439954D01*
X135799536Y-101480499D01*
X135799538Y-101480500D01*
X135799539Y-101480500D01*
X135943462Y-101480500D01*
X135943462Y-101480499D01*
X136081553Y-101439953D01*
X136202628Y-101362143D01*
X136296877Y-101253373D01*
X136356665Y-101122457D01*
X136377147Y-100980000D01*
X136356665Y-100837543D01*
X136296877Y-100706627D01*
X136202628Y-100597857D01*
X136081553Y-100520047D01*
X136081549Y-100520046D01*
X136073487Y-100516364D01*
X136074993Y-100513064D01*
X136030671Y-100484491D01*
X136001737Y-100420893D01*
X136000500Y-100403422D01*
X136000500Y-99325833D01*
X136020185Y-99258794D01*
X136036819Y-99238152D01*
X136916982Y-98357989D01*
X137820459Y-97454512D01*
X137825060Y-97446542D01*
X137860020Y-97385990D01*
X137880499Y-97309563D01*
X137880499Y-93890723D01*
X137900184Y-93823684D01*
X137916818Y-93803042D01*
X138100818Y-93619042D01*
X138162141Y-93585557D01*
X138231833Y-93590541D01*
X138276180Y-93619042D01*
X138460180Y-93803042D01*
X138493665Y-93864365D01*
X138496499Y-93890723D01*
X138496499Y-98516944D01*
X138476814Y-98583983D01*
X138460180Y-98604625D01*
X137816539Y-99248265D01*
X137816533Y-99248273D01*
X137776980Y-99316782D01*
X137776977Y-99316787D01*
X137756498Y-99393217D01*
X137756498Y-100386686D01*
X137736813Y-100453725D01*
X137684009Y-100499480D01*
X137667433Y-100505663D01*
X137618448Y-100520045D01*
X137497373Y-100597856D01*
X137403123Y-100706626D01*
X137403122Y-100706628D01*
X137343334Y-100837543D01*
X137322853Y-100980000D01*
X137343334Y-101122456D01*
X137379805Y-101202315D01*
X137403123Y-101253373D01*
X137497372Y-101362143D01*
X137618447Y-101439953D01*
X137618450Y-101439954D01*
X137618449Y-101439954D01*
X137756536Y-101480499D01*
X137756538Y-101480500D01*
X137756539Y-101480500D01*
X137900462Y-101480500D01*
X137900462Y-101480499D01*
X138038550Y-101439954D01*
X138038551Y-101439954D01*
X138102960Y-101398561D01*
X138170000Y-101378876D01*
X138237037Y-101398559D01*
X138237040Y-101398561D01*
X138301448Y-101439954D01*
X138439536Y-101480499D01*
X138439538Y-101480500D01*
X138439539Y-101480500D01*
X138583462Y-101480500D01*
X138583462Y-101480499D01*
X138721553Y-101439953D01*
X138842628Y-101362143D01*
X138936877Y-101253373D01*
X138996665Y-101122457D01*
X139017147Y-100980000D01*
X138996665Y-100837543D01*
X138936877Y-100706627D01*
X138842628Y-100597857D01*
X138721553Y-100520047D01*
X138721549Y-100520046D01*
X138713487Y-100516364D01*
X138714993Y-100513064D01*
X138670671Y-100484491D01*
X138641737Y-100420893D01*
X138640500Y-100403422D01*
X138640500Y-99725833D01*
X138660185Y-99658794D01*
X138676819Y-99638152D01*
X138998189Y-99316782D01*
X139320459Y-98994512D01*
X139360021Y-98925989D01*
X139380499Y-98849563D01*
X139380499Y-98770439D01*
X139380499Y-93890723D01*
X139400184Y-93823684D01*
X139416818Y-93803042D01*
X139615818Y-93604042D01*
X139677141Y-93570557D01*
X139746833Y-93575541D01*
X139791180Y-93604042D01*
X139990180Y-93803042D01*
X140023665Y-93864365D01*
X140026499Y-93890723D01*
X140026499Y-98789563D01*
X140046978Y-98865990D01*
X140076307Y-98916789D01*
X140081619Y-98925990D01*
X140086541Y-98934515D01*
X140086542Y-98934516D01*
X140940179Y-99788152D01*
X140973664Y-99849475D01*
X140976498Y-99875833D01*
X140976498Y-100386686D01*
X140956813Y-100453725D01*
X140904009Y-100499480D01*
X140887433Y-100505663D01*
X140838448Y-100520045D01*
X140717373Y-100597856D01*
X140623123Y-100706626D01*
X140623122Y-100706628D01*
X140563334Y-100837543D01*
X140542853Y-100980000D01*
X140563334Y-101122456D01*
X140599805Y-101202315D01*
X140623123Y-101253373D01*
X140717372Y-101362143D01*
X140838447Y-101439953D01*
X140838450Y-101439954D01*
X140838449Y-101439954D01*
X140976536Y-101480499D01*
X140976538Y-101480500D01*
X140976539Y-101480500D01*
X141120462Y-101480500D01*
X141120462Y-101480499D01*
X141258550Y-101439954D01*
X141258551Y-101439954D01*
X141322960Y-101398561D01*
X141390000Y-101378876D01*
X141457037Y-101398559D01*
X141457040Y-101398561D01*
X141521448Y-101439954D01*
X141659536Y-101480499D01*
X141659538Y-101480500D01*
X141659539Y-101480500D01*
X141803462Y-101480500D01*
X141803462Y-101480499D01*
X141941553Y-101439953D01*
X142062628Y-101362143D01*
X142156877Y-101253373D01*
X142216665Y-101122457D01*
X142237147Y-100980000D01*
X142216665Y-100837543D01*
X142156877Y-100706627D01*
X142062628Y-100597857D01*
X141941553Y-100520047D01*
X141941549Y-100520046D01*
X141933487Y-100516364D01*
X141934993Y-100513064D01*
X141890671Y-100484491D01*
X141861737Y-100420893D01*
X141860500Y-100403422D01*
X141860500Y-99543217D01*
X141840020Y-99466787D01*
X141840017Y-99466782D01*
X141800464Y-99398273D01*
X141800458Y-99398265D01*
X140946818Y-98544625D01*
X140913333Y-98483302D01*
X140910499Y-98456944D01*
X140910499Y-93890723D01*
X140930184Y-93823684D01*
X140946818Y-93803042D01*
X141041714Y-93708146D01*
X141208959Y-93540901D01*
X141248451Y-93472498D01*
X141299019Y-93424284D01*
X141355838Y-93410500D01*
X141505500Y-93410500D01*
X141572539Y-93430185D01*
X141618294Y-93482989D01*
X141629500Y-93534500D01*
X141629500Y-98281562D01*
X141636131Y-98306309D01*
X141649979Y-98357990D01*
X141649980Y-98357991D01*
X141669775Y-98392277D01*
X141689540Y-98426511D01*
X141689542Y-98426513D01*
X142589604Y-99326575D01*
X142623089Y-99387898D01*
X142624661Y-99431902D01*
X142623353Y-99440999D01*
X142643834Y-99583456D01*
X142685400Y-99674471D01*
X142703623Y-99714373D01*
X142797872Y-99823143D01*
X142918947Y-99900953D01*
X142918950Y-99900954D01*
X142918949Y-99900954D01*
X143057036Y-99941499D01*
X143057038Y-99941500D01*
X143057039Y-99941500D01*
X143200962Y-99941500D01*
X143200962Y-99941499D01*
X143339053Y-99900953D01*
X143460128Y-99823143D01*
X143554377Y-99714373D01*
X143614165Y-99583457D01*
X143634647Y-99441000D01*
X143614925Y-99303829D01*
X143624869Y-99234671D01*
X143670624Y-99181867D01*
X143737663Y-99162183D01*
X143804703Y-99181868D01*
X143808310Y-99184568D01*
X143813870Y-99188141D01*
X143813872Y-99188143D01*
X143934947Y-99265953D01*
X143934950Y-99265954D01*
X143934949Y-99265954D01*
X144073036Y-99306499D01*
X144073038Y-99306500D01*
X144073039Y-99306500D01*
X144216962Y-99306500D01*
X144216962Y-99306499D01*
X144355053Y-99265953D01*
X144476128Y-99188143D01*
X144570377Y-99079373D01*
X144630165Y-98948457D01*
X144650647Y-98806000D01*
X144630165Y-98663543D01*
X144570377Y-98532627D01*
X144476128Y-98423857D01*
X144355053Y-98346047D01*
X144355051Y-98346046D01*
X144355049Y-98346045D01*
X144355050Y-98346045D01*
X144216963Y-98305500D01*
X144216961Y-98305500D01*
X144120833Y-98305500D01*
X144053794Y-98285815D01*
X144033152Y-98269181D01*
X142766819Y-97002848D01*
X142733334Y-96941525D01*
X142730500Y-96915167D01*
X142730500Y-95956833D01*
X142750185Y-95889794D01*
X142802989Y-95844039D01*
X142872147Y-95834095D01*
X142935703Y-95863120D01*
X142942181Y-95869152D01*
X144748604Y-97675575D01*
X144782089Y-97736898D01*
X144783661Y-97780902D01*
X144782353Y-97789999D01*
X144802834Y-97932456D01*
X144822369Y-97975230D01*
X144862623Y-98063373D01*
X144956872Y-98172143D01*
X145077947Y-98249953D01*
X145077950Y-98249954D01*
X145077949Y-98249954D01*
X145216036Y-98290499D01*
X145216038Y-98290500D01*
X145216039Y-98290500D01*
X145359962Y-98290500D01*
X145359962Y-98290499D01*
X145498050Y-98249954D01*
X145498051Y-98249954D01*
X145498053Y-98249953D01*
X145619128Y-98172143D01*
X145619129Y-98172140D01*
X145620961Y-98170964D01*
X145688000Y-98151279D01*
X145755040Y-98170963D01*
X145755041Y-98170964D01*
X145756874Y-98172142D01*
X145756875Y-98172143D01*
X145816933Y-98210739D01*
X145877951Y-98249954D01*
X146016039Y-98290499D01*
X146016041Y-98290500D01*
X146016042Y-98290500D01*
X146159965Y-98290500D01*
X146159965Y-98290499D01*
X146298056Y-98249953D01*
X146419131Y-98172143D01*
X146513380Y-98063373D01*
X146573168Y-97932457D01*
X146593650Y-97790000D01*
X146575401Y-97663076D01*
X146585344Y-97593921D01*
X146631099Y-97541117D01*
X146698139Y-97521432D01*
X146733073Y-97526454D01*
X146740039Y-97528500D01*
X146883962Y-97528500D01*
X146883962Y-97528499D01*
X147022053Y-97487953D01*
X147143128Y-97410143D01*
X147237377Y-97301373D01*
X147297165Y-97170457D01*
X147317647Y-97028000D01*
X147297165Y-96885543D01*
X147237377Y-96754627D01*
X147143128Y-96645857D01*
X147022053Y-96568047D01*
X147022051Y-96568046D01*
X147022049Y-96568045D01*
X147022050Y-96568045D01*
X146883963Y-96527500D01*
X146883961Y-96527500D01*
X146787833Y-96527500D01*
X146720794Y-96507815D01*
X146700152Y-96491181D01*
X144766819Y-94557848D01*
X144733334Y-94496525D01*
X144730500Y-94470167D01*
X144730500Y-93383266D01*
X144750185Y-93316227D01*
X144751398Y-93314374D01*
X144768867Y-93288231D01*
X144770435Y-93280352D01*
X144780499Y-93229752D01*
X144780500Y-93229750D01*
X144780500Y-91290249D01*
X144780499Y-91290247D01*
X144768868Y-91231770D01*
X144768867Y-91231769D01*
X144724552Y-91165447D01*
X144658230Y-91121132D01*
X144658229Y-91121131D01*
X144599752Y-91109500D01*
X144599748Y-91109500D01*
X144260252Y-91109500D01*
X144204190Y-91120651D01*
X144155810Y-91120651D01*
X144093775Y-91108312D01*
X144094307Y-91105632D01*
X144040426Y-91083848D01*
X144018143Y-91060950D01*
X143937190Y-90952812D01*
X143937187Y-90952809D01*
X143822093Y-90866649D01*
X143822086Y-90866645D01*
X143687379Y-90816403D01*
X143687372Y-90816401D01*
X143627844Y-90810000D01*
X143580000Y-90810000D01*
X143580000Y-91279084D01*
X143579500Y-91289262D01*
X143579500Y-93230747D01*
X143580000Y-93240915D01*
X143580000Y-93710000D01*
X143593181Y-93723181D01*
X143626666Y-93784504D01*
X143629500Y-93810862D01*
X143629500Y-95407167D01*
X143609815Y-95474206D01*
X143557011Y-95519961D01*
X143487853Y-95529905D01*
X143424297Y-95500880D01*
X143417819Y-95494848D01*
X143266819Y-95343848D01*
X143233334Y-95282525D01*
X143230500Y-95256167D01*
X143230500Y-93810862D01*
X143250185Y-93743823D01*
X143266819Y-93723181D01*
X143280000Y-93710000D01*
X143280000Y-93240915D01*
X143280500Y-93230747D01*
X143280500Y-91289262D01*
X143280000Y-91279084D01*
X143280000Y-90810000D01*
X143232155Y-90810000D01*
X143172627Y-90816401D01*
X143172620Y-90816403D01*
X143037913Y-90866645D01*
X143037906Y-90866649D01*
X142922812Y-90952809D01*
X142841856Y-91060951D01*
X142785922Y-91102821D01*
X142766049Y-91107430D01*
X142766225Y-91108312D01*
X142704190Y-91120651D01*
X142655810Y-91120651D01*
X142599748Y-91109500D01*
X142260252Y-91109500D01*
X142204190Y-91120651D01*
X142155812Y-91120651D01*
X142145218Y-91118544D01*
X142083306Y-91086160D01*
X142048730Y-91025446D01*
X142052468Y-90955676D01*
X142081723Y-90909247D01*
X142523460Y-90467511D01*
X142594152Y-90396819D01*
X142655475Y-90363334D01*
X142681833Y-90360500D01*
X146116233Y-90360500D01*
X146183272Y-90380185D01*
X146229027Y-90432989D01*
X146238971Y-90502147D01*
X146220041Y-90552322D01*
X146194517Y-90591388D01*
X146101317Y-90803864D01*
X146044361Y-91028781D01*
X146025202Y-91259994D01*
X146025202Y-91260005D01*
X146044361Y-91491218D01*
X146101317Y-91716135D01*
X146194515Y-91928606D01*
X146278812Y-92057632D01*
X146828957Y-91507486D01*
X146853978Y-91567890D01*
X146925112Y-91674351D01*
X147015649Y-91764888D01*
X147122110Y-91836022D01*
X147182511Y-91861041D01*
X146631201Y-92412351D01*
X146661649Y-92436050D01*
X146865697Y-92546476D01*
X146865706Y-92546479D01*
X147085139Y-92621811D01*
X147313993Y-92660000D01*
X147546007Y-92660000D01*
X147774860Y-92621811D01*
X147994293Y-92546479D01*
X147994301Y-92546476D01*
X148198355Y-92436047D01*
X148228797Y-92412351D01*
X148228798Y-92412350D01*
X147677489Y-91861041D01*
X147737890Y-91836022D01*
X147844351Y-91764888D01*
X147934888Y-91674351D01*
X148006022Y-91567890D01*
X148031041Y-91507488D01*
X148581186Y-92057633D01*
X148665482Y-91928611D01*
X148758682Y-91716135D01*
X148815638Y-91491218D01*
X148834798Y-91260005D01*
X148834798Y-91259994D01*
X148815585Y-91028134D01*
X148829666Y-90959698D01*
X148878511Y-90909739D01*
X148946612Y-90894118D01*
X149012347Y-90917795D01*
X149026842Y-90930213D01*
X150488381Y-92391752D01*
X150521866Y-92453075D01*
X150524700Y-92479433D01*
X150524700Y-96683962D01*
X150535674Y-96724918D01*
X150545178Y-96760387D01*
X150565551Y-96795674D01*
X150584739Y-96828909D01*
X150584741Y-96828912D01*
X152731501Y-98975672D01*
X152764986Y-99036995D01*
X152760002Y-99106687D01*
X152753181Y-99121800D01*
X152745570Y-99136039D01*
X152685499Y-99334067D01*
X152665217Y-99540000D01*
X152685499Y-99745932D01*
X152708921Y-99823143D01*
X152745568Y-99943954D01*
X152843115Y-100126450D01*
X152843117Y-100126452D01*
X152974389Y-100286410D01*
X153071009Y-100365702D01*
X153134350Y-100417685D01*
X153316846Y-100515232D01*
X153514866Y-100575300D01*
X153514865Y-100575300D01*
X153533329Y-100577118D01*
X153720800Y-100595583D01*
X153926734Y-100575300D01*
X154124754Y-100515232D01*
X154307250Y-100417685D01*
X154467210Y-100286410D01*
X154598485Y-100126450D01*
X154696032Y-99943954D01*
X154756100Y-99745934D01*
X154776383Y-99540000D01*
X154756100Y-99334066D01*
X154696032Y-99136046D01*
X154598485Y-98953550D01*
X154512082Y-98848267D01*
X154467210Y-98793589D01*
X154307252Y-98662317D01*
X154307253Y-98662317D01*
X154307250Y-98662315D01*
X154124754Y-98564768D01*
X153926734Y-98504700D01*
X153926732Y-98504699D01*
X153926734Y-98504699D01*
X153720800Y-98484417D01*
X153514867Y-98504699D01*
X153316839Y-98564770D01*
X153302600Y-98572381D01*
X153234197Y-98586620D01*
X153168954Y-98561616D01*
X153156472Y-98550701D01*
X151605771Y-97000000D01*
X152665217Y-97000000D01*
X152685499Y-97205932D01*
X152685500Y-97205934D01*
X152745568Y-97403954D01*
X152843115Y-97586450D01*
X152867229Y-97615833D01*
X152974389Y-97746410D01*
X153071009Y-97825702D01*
X153134350Y-97877685D01*
X153316846Y-97975232D01*
X153514866Y-98035300D01*
X153514865Y-98035300D01*
X153533329Y-98037118D01*
X153720800Y-98055583D01*
X153926734Y-98035300D01*
X154124754Y-97975232D01*
X154307250Y-97877685D01*
X154467210Y-97746410D01*
X154598485Y-97586450D01*
X154696032Y-97403954D01*
X154756100Y-97205934D01*
X154776383Y-97000000D01*
X154756100Y-96794066D01*
X154696032Y-96596046D01*
X154598485Y-96413550D01*
X154546502Y-96350209D01*
X154467210Y-96253589D01*
X154307252Y-96122317D01*
X154307253Y-96122317D01*
X154307250Y-96122315D01*
X154145747Y-96035989D01*
X154124753Y-96024767D01*
X154109304Y-96020081D01*
X154050866Y-95981784D01*
X154022409Y-95917971D01*
X154021300Y-95901421D01*
X154021300Y-93829859D01*
X154040985Y-93762820D01*
X154093789Y-93717065D01*
X154111957Y-93711589D01*
X154111819Y-93711163D01*
X154121100Y-93708147D01*
X154121101Y-93708146D01*
X154121104Y-93708146D01*
X154234142Y-93650550D01*
X154323850Y-93560842D01*
X154381446Y-93447804D01*
X154381446Y-93447802D01*
X154381447Y-93447801D01*
X154395946Y-93356256D01*
X154396300Y-93354019D01*
X154396299Y-92890982D01*
X154381446Y-92797196D01*
X154323850Y-92684158D01*
X154323846Y-92684154D01*
X154323845Y-92684152D01*
X154234147Y-92594454D01*
X154234144Y-92594452D01*
X154234142Y-92594450D01*
X154139994Y-92546479D01*
X154121101Y-92536852D01*
X154027324Y-92522000D01*
X153414282Y-92522000D01*
X153333319Y-92534823D01*
X153320496Y-92536854D01*
X153207458Y-92594450D01*
X153207457Y-92594451D01*
X153207452Y-92594454D01*
X153117754Y-92684152D01*
X153117751Y-92684157D01*
X153060152Y-92797198D01*
X153045300Y-92890975D01*
X153045300Y-93354017D01*
X153051942Y-93395952D01*
X153060154Y-93447804D01*
X153117750Y-93560842D01*
X153117752Y-93560844D01*
X153117754Y-93560847D01*
X153207452Y-93650545D01*
X153207454Y-93650546D01*
X153207458Y-93650550D01*
X153320496Y-93708146D01*
X153320498Y-93708147D01*
X153329780Y-93711163D01*
X153328962Y-93713677D01*
X153378819Y-93737303D01*
X153415759Y-93796609D01*
X153420300Y-93829859D01*
X153420300Y-95901421D01*
X153400615Y-95968460D01*
X153347811Y-96014215D01*
X153332296Y-96020081D01*
X153316846Y-96024767D01*
X153186158Y-96094622D01*
X153134350Y-96122315D01*
X153134348Y-96122316D01*
X153134347Y-96122317D01*
X152974389Y-96253589D01*
X152843117Y-96413547D01*
X152745569Y-96596043D01*
X152685499Y-96794067D01*
X152665217Y-97000000D01*
X151605771Y-97000000D01*
X151162019Y-96556248D01*
X151128534Y-96494925D01*
X151125700Y-96468567D01*
X151125700Y-92264040D01*
X151125700Y-92264038D01*
X151105222Y-92187612D01*
X151065660Y-92119089D01*
X148766111Y-89819540D01*
X148766109Y-89819539D01*
X148766104Y-89819535D01*
X148697595Y-89779982D01*
X148697590Y-89779979D01*
X148672113Y-89773152D01*
X148621162Y-89759500D01*
X148621160Y-89759500D01*
X143530833Y-89759500D01*
X143463794Y-89739815D01*
X143418039Y-89687011D01*
X143408095Y-89617853D01*
X143437120Y-89554297D01*
X143443152Y-89547819D01*
X144449952Y-88541019D01*
X144511275Y-88507534D01*
X144537633Y-88504700D01*
X152970789Y-88504700D01*
X153037828Y-88524385D01*
X153083583Y-88577189D01*
X153093527Y-88646347D01*
X153081273Y-88684995D01*
X153060849Y-88725077D01*
X153060847Y-88725082D01*
X153045300Y-88823248D01*
X153045300Y-89326751D01*
X153060847Y-89424917D01*
X153060849Y-89424920D01*
X153121142Y-89543251D01*
X153121144Y-89543253D01*
X153121146Y-89543256D01*
X153215043Y-89637153D01*
X153215045Y-89637154D01*
X153215049Y-89637158D01*
X153333380Y-89697451D01*
X153333384Y-89697451D01*
X153333385Y-89697452D01*
X153334620Y-89697854D01*
X153335928Y-89698748D01*
X153342076Y-89701881D01*
X153341671Y-89702675D01*
X153392295Y-89737292D01*
X153419492Y-89801651D01*
X153420300Y-89815784D01*
X153420300Y-90765140D01*
X153400615Y-90832179D01*
X153347811Y-90877934D01*
X153329642Y-90883411D01*
X153329781Y-90883837D01*
X153320499Y-90886852D01*
X153276551Y-90909245D01*
X153207458Y-90944450D01*
X153207457Y-90944451D01*
X153207452Y-90944454D01*
X153117754Y-91034152D01*
X153117751Y-91034157D01*
X153060152Y-91147198D01*
X153045300Y-91240975D01*
X153045300Y-91704017D01*
X153054941Y-91764888D01*
X153060154Y-91797804D01*
X153117750Y-91910842D01*
X153117752Y-91910844D01*
X153117754Y-91910847D01*
X153207452Y-92000545D01*
X153207454Y-92000546D01*
X153207458Y-92000550D01*
X153319487Y-92057632D01*
X153320498Y-92058147D01*
X153414275Y-92072999D01*
X153414281Y-92073000D01*
X154027318Y-92072999D01*
X154121104Y-92058146D01*
X154234142Y-92000550D01*
X154323850Y-91910842D01*
X154381446Y-91797804D01*
X154381446Y-91797802D01*
X154381447Y-91797801D01*
X154396299Y-91704024D01*
X154396300Y-91704019D01*
X154396299Y-91240982D01*
X154381446Y-91147196D01*
X154323850Y-91034158D01*
X154323846Y-91034154D01*
X154323845Y-91034152D01*
X154234147Y-90944454D01*
X154234144Y-90944452D01*
X154234142Y-90944450D01*
X154157317Y-90905305D01*
X154121101Y-90886852D01*
X154111820Y-90883837D01*
X154112636Y-90881325D01*
X154062763Y-90857680D01*
X154025834Y-90798366D01*
X154021300Y-90765140D01*
X154021300Y-89815784D01*
X154040985Y-89748745D01*
X154093789Y-89702990D01*
X154106980Y-89697854D01*
X154108214Y-89697452D01*
X154108214Y-89697451D01*
X154108220Y-89697451D01*
X154226551Y-89637158D01*
X154320458Y-89543251D01*
X154380751Y-89424920D01*
X154380751Y-89424918D01*
X154380752Y-89424917D01*
X154396300Y-89326751D01*
X154396300Y-88823248D01*
X154380752Y-88725082D01*
X154380749Y-88725077D01*
X154320458Y-88606749D01*
X154320454Y-88606745D01*
X154320453Y-88606743D01*
X154226556Y-88512846D01*
X154226553Y-88512844D01*
X154226551Y-88512842D01*
X154108220Y-88452549D01*
X154108219Y-88452548D01*
X154108216Y-88452547D01*
X154108217Y-88452547D01*
X154010051Y-88437000D01*
X154010046Y-88437000D01*
X153487333Y-88437000D01*
X153420294Y-88417315D01*
X153374539Y-88364511D01*
X153364595Y-88295353D01*
X153393620Y-88231797D01*
X153399652Y-88225319D01*
X153450652Y-88174319D01*
X153511975Y-88140834D01*
X153538333Y-88138000D01*
X154010051Y-88138000D01*
X154108217Y-88122452D01*
X154108218Y-88122451D01*
X154108220Y-88122451D01*
X154226551Y-88062158D01*
X154320458Y-87968251D01*
X154380751Y-87849920D01*
X154380751Y-87849918D01*
X154380752Y-87849917D01*
X154381447Y-87845528D01*
X158749500Y-87845528D01*
X158749500Y-88154471D01*
X158784086Y-88461437D01*
X158784089Y-88461455D01*
X158852831Y-88762635D01*
X158852835Y-88762647D01*
X158954862Y-89054222D01*
X158954868Y-89054236D01*
X159088903Y-89332562D01*
X159088905Y-89332565D01*
X159253265Y-89594143D01*
X159339817Y-89702675D01*
X159433013Y-89819540D01*
X159445880Y-89835674D01*
X159664326Y-90054120D01*
X159905857Y-90246735D01*
X160167435Y-90411095D01*
X160445771Y-90545135D01*
X160445777Y-90545137D01*
X160737352Y-90647164D01*
X160737364Y-90647168D01*
X161038548Y-90715911D01*
X161038554Y-90715911D01*
X161038562Y-90715913D01*
X161243206Y-90738970D01*
X161345529Y-90750499D01*
X161345532Y-90750500D01*
X161345535Y-90750500D01*
X161654468Y-90750500D01*
X161654469Y-90750499D01*
X161811356Y-90732822D01*
X161961437Y-90715913D01*
X161961442Y-90715912D01*
X161961452Y-90715911D01*
X162262636Y-90647168D01*
X162554229Y-90545135D01*
X162832565Y-90411095D01*
X163094143Y-90246735D01*
X163335674Y-90054120D01*
X163554120Y-89835674D01*
X163746735Y-89594143D01*
X163911095Y-89332565D01*
X164045135Y-89054229D01*
X164147168Y-88762636D01*
X164215911Y-88461452D01*
X164216915Y-88452547D01*
X164250499Y-88154471D01*
X164250500Y-88154467D01*
X164250500Y-87845532D01*
X164250499Y-87845528D01*
X164215913Y-87538562D01*
X164215910Y-87538544D01*
X164209931Y-87512350D01*
X164147168Y-87237364D01*
X164045135Y-86945771D01*
X163911095Y-86667435D01*
X163746735Y-86405857D01*
X163554120Y-86164326D01*
X163335674Y-85945880D01*
X163335384Y-85945649D01*
X163221855Y-85855112D01*
X163094143Y-85753265D01*
X162832565Y-85588905D01*
X162832562Y-85588903D01*
X162554236Y-85454868D01*
X162554222Y-85454862D01*
X162262647Y-85352835D01*
X162262635Y-85352831D01*
X161961455Y-85284089D01*
X161961437Y-85284086D01*
X161654471Y-85249500D01*
X161654465Y-85249500D01*
X161345535Y-85249500D01*
X161345528Y-85249500D01*
X161038562Y-85284086D01*
X161038544Y-85284089D01*
X160737364Y-85352831D01*
X160737352Y-85352835D01*
X160445777Y-85454862D01*
X160445763Y-85454868D01*
X160167437Y-85588903D01*
X159905858Y-85753264D01*
X159664326Y-85945879D01*
X159445879Y-86164326D01*
X159253264Y-86405858D01*
X159088903Y-86667437D01*
X158954868Y-86945763D01*
X158954862Y-86945777D01*
X158852835Y-87237352D01*
X158852831Y-87237364D01*
X158784089Y-87538544D01*
X158784086Y-87538562D01*
X158749500Y-87845528D01*
X154381447Y-87845528D01*
X154396300Y-87751751D01*
X154396300Y-87248248D01*
X154380752Y-87150082D01*
X154380751Y-87150080D01*
X154320458Y-87031749D01*
X154320454Y-87031745D01*
X154320453Y-87031743D01*
X154226556Y-86937846D01*
X154226553Y-86937844D01*
X154226551Y-86937842D01*
X154108220Y-86877549D01*
X154108219Y-86877548D01*
X154108216Y-86877547D01*
X154108217Y-86877547D01*
X154010051Y-86862000D01*
X154010046Y-86862000D01*
X153431554Y-86862000D01*
X153431549Y-86862000D01*
X153333382Y-86877547D01*
X153254492Y-86917744D01*
X153215049Y-86937842D01*
X153215048Y-86937843D01*
X153215043Y-86937846D01*
X153121146Y-87031743D01*
X153121143Y-87031748D01*
X153060847Y-87150082D01*
X153045300Y-87248248D01*
X153045300Y-87678367D01*
X153025615Y-87745406D01*
X153008981Y-87766048D01*
X152907648Y-87867381D01*
X152846325Y-87900866D01*
X152819967Y-87903700D01*
X148588128Y-87903700D01*
X148521089Y-87884015D01*
X148475334Y-87831211D01*
X148465390Y-87762053D01*
X148494415Y-87698497D01*
X148547865Y-87662419D01*
X148594293Y-87646479D01*
X148594301Y-87646476D01*
X148798355Y-87536047D01*
X148828797Y-87512351D01*
X148828798Y-87512350D01*
X148277489Y-86961041D01*
X148337890Y-86936022D01*
X148444351Y-86864888D01*
X148534888Y-86774351D01*
X148606022Y-86667890D01*
X148631041Y-86607488D01*
X149181186Y-87157633D01*
X149265482Y-87028611D01*
X149358682Y-86816135D01*
X149415638Y-86591218D01*
X149434798Y-86360005D01*
X149434798Y-86359994D01*
X149415638Y-86128781D01*
X149358682Y-85903864D01*
X149265484Y-85691393D01*
X149181186Y-85562365D01*
X148631041Y-86112510D01*
X148606022Y-86052110D01*
X148534888Y-85945649D01*
X148444351Y-85855112D01*
X148337890Y-85783978D01*
X148277487Y-85758958D01*
X148828797Y-85207647D01*
X148828797Y-85207645D01*
X148798360Y-85183955D01*
X148798354Y-85183951D01*
X148594302Y-85073523D01*
X148594293Y-85073520D01*
X148374860Y-84998188D01*
X148146007Y-84960000D01*
X147913993Y-84960000D01*
X147685139Y-84998188D01*
X147465706Y-85073520D01*
X147465697Y-85073523D01*
X147261650Y-85183949D01*
X147231200Y-85207647D01*
X147782511Y-85758958D01*
X147722110Y-85783978D01*
X147615649Y-85855112D01*
X147525112Y-85945649D01*
X147453978Y-86052110D01*
X147428958Y-86112512D01*
X146878811Y-85562365D01*
X146794516Y-85691390D01*
X146701317Y-85903864D01*
X146644361Y-86128781D01*
X146625202Y-86359994D01*
X146625202Y-86360005D01*
X146644361Y-86591218D01*
X146701317Y-86816135D01*
X146794515Y-87028606D01*
X146878812Y-87157633D01*
X147428958Y-86607487D01*
X147453978Y-86667890D01*
X147525112Y-86774351D01*
X147615649Y-86864888D01*
X147722110Y-86936022D01*
X147782511Y-86961041D01*
X147231201Y-87512351D01*
X147261649Y-87536050D01*
X147465697Y-87646476D01*
X147465706Y-87646479D01*
X147512135Y-87662419D01*
X147569150Y-87702805D01*
X147595281Y-87767604D01*
X147582229Y-87836244D01*
X147534141Y-87886932D01*
X147471872Y-87903700D01*
X144322238Y-87903700D01*
X144284024Y-87913939D01*
X144245809Y-87924179D01*
X144245804Y-87924182D01*
X144177295Y-87963735D01*
X144177287Y-87963741D01*
X141189539Y-90951489D01*
X141173224Y-90979749D01*
X141122656Y-91027964D01*
X141054049Y-91041186D01*
X140989185Y-91015218D01*
X140966571Y-90992060D01*
X140937187Y-90952809D01*
X140822093Y-90866649D01*
X140822086Y-90866645D01*
X140687379Y-90816403D01*
X140687372Y-90816401D01*
X140627844Y-90810000D01*
X140580000Y-90810000D01*
X140580000Y-91279084D01*
X140579500Y-91289262D01*
X140579500Y-92286000D01*
X140559815Y-92353039D01*
X140507011Y-92398794D01*
X140455500Y-92410000D01*
X140404500Y-92410000D01*
X140337461Y-92390315D01*
X140291706Y-92337511D01*
X140280500Y-92286000D01*
X140280500Y-91289262D01*
X140280000Y-91279084D01*
X140280000Y-90810000D01*
X140232155Y-90810000D01*
X140172627Y-90816401D01*
X140172620Y-90816403D01*
X140037913Y-90866645D01*
X140037906Y-90866649D01*
X139922812Y-90952809D01*
X139841856Y-91060951D01*
X139785922Y-91102821D01*
X139766049Y-91107430D01*
X139766225Y-91108312D01*
X139704190Y-91120651D01*
X139655810Y-91120651D01*
X139593775Y-91108312D01*
X139594307Y-91105632D01*
X139540426Y-91083848D01*
X139518143Y-91060950D01*
X139437190Y-90952812D01*
X139437187Y-90952809D01*
X139322093Y-90866649D01*
X139322086Y-90866645D01*
X139187379Y-90816403D01*
X139187372Y-90816401D01*
X139127844Y-90810000D01*
X139080000Y-90810000D01*
X139080000Y-91279084D01*
X139079500Y-91289262D01*
X139079500Y-92286000D01*
X139059815Y-92353039D01*
X139007011Y-92398794D01*
X138955500Y-92410000D01*
X138904500Y-92410000D01*
X138837461Y-92390315D01*
X138791706Y-92337511D01*
X138780500Y-92286000D01*
X138780500Y-91289262D01*
X138780000Y-91279084D01*
X138780000Y-90810000D01*
X138732155Y-90810000D01*
X138672627Y-90816401D01*
X138672620Y-90816403D01*
X138537913Y-90866645D01*
X138537906Y-90866649D01*
X138422812Y-90952809D01*
X138341856Y-91060951D01*
X138285922Y-91102821D01*
X138266049Y-91107430D01*
X138266225Y-91108312D01*
X138204190Y-91120651D01*
X138155810Y-91120651D01*
X138093775Y-91108312D01*
X138094307Y-91105632D01*
X138040426Y-91083848D01*
X138018143Y-91060950D01*
X137937190Y-90952812D01*
X137937187Y-90952809D01*
X137822093Y-90866649D01*
X137822086Y-90866645D01*
X137687379Y-90816403D01*
X137687372Y-90816401D01*
X137627844Y-90810000D01*
X137580000Y-90810000D01*
X137580000Y-91279084D01*
X137579500Y-91289262D01*
X137579500Y-92286000D01*
X137559815Y-92353039D01*
X137507011Y-92398794D01*
X137455500Y-92410000D01*
X137404500Y-92410000D01*
X137337461Y-92390315D01*
X137291706Y-92337511D01*
X137280500Y-92286000D01*
X137280500Y-91289262D01*
X137280000Y-91279084D01*
X137280000Y-90810000D01*
X137232155Y-90810000D01*
X137172627Y-90816401D01*
X137172620Y-90816403D01*
X137037913Y-90866645D01*
X137037906Y-90866649D01*
X136922812Y-90952809D01*
X136841856Y-91060951D01*
X136785922Y-91102821D01*
X136766049Y-91107430D01*
X136766225Y-91108312D01*
X136704190Y-91120651D01*
X136655810Y-91120651D01*
X136593775Y-91108312D01*
X136594307Y-91105632D01*
X136540426Y-91083848D01*
X136518143Y-91060950D01*
X136437190Y-90952812D01*
X136437187Y-90952809D01*
X136322093Y-90866649D01*
X136322086Y-90866645D01*
X136187379Y-90816403D01*
X136187372Y-90816401D01*
X136127844Y-90810000D01*
X136080000Y-90810000D01*
X136080000Y-91279084D01*
X136079500Y-91289262D01*
X136079500Y-92286000D01*
X136059815Y-92353039D01*
X136007011Y-92398794D01*
X135955500Y-92410000D01*
X135904500Y-92410000D01*
X135837461Y-92390315D01*
X135791706Y-92337511D01*
X135780500Y-92286000D01*
X135780500Y-91289262D01*
X135780000Y-91279084D01*
X135780000Y-90810000D01*
X135732155Y-90810000D01*
X135672627Y-90816401D01*
X135672620Y-90816403D01*
X135537913Y-90866645D01*
X135537906Y-90866649D01*
X135422812Y-90952809D01*
X135341856Y-91060951D01*
X135285922Y-91102821D01*
X135266050Y-91107429D01*
X135266226Y-91108311D01*
X135201770Y-91121131D01*
X135201769Y-91121132D01*
X135135447Y-91165447D01*
X135091132Y-91231769D01*
X135091131Y-91231770D01*
X135079500Y-91290247D01*
X135079500Y-93229752D01*
X135091131Y-93288229D01*
X135091132Y-93288231D01*
X135117100Y-93327093D01*
X135136170Y-93387994D01*
X135136938Y-93387893D01*
X135137517Y-93392297D01*
X135137979Y-93393770D01*
X135137998Y-93395948D01*
X135137998Y-93395949D01*
X135158478Y-93472380D01*
X135158479Y-93472381D01*
X135188498Y-93524377D01*
X135191964Y-93530379D01*
X135198039Y-93540901D01*
X135198041Y-93540903D01*
X135460180Y-93803042D01*
X135493665Y-93864365D01*
X135496499Y-93890723D01*
X135496499Y-95626944D01*
X135476814Y-95693983D01*
X135460180Y-95714625D01*
X132596539Y-98578265D01*
X132596533Y-98578273D01*
X132556980Y-98646782D01*
X132556977Y-98646787D01*
X132536498Y-98723217D01*
X132536498Y-100386686D01*
X132516813Y-100453725D01*
X132464009Y-100499480D01*
X132447433Y-100505663D01*
X132398448Y-100520045D01*
X132277373Y-100597856D01*
X132183123Y-100706626D01*
X132183122Y-100706628D01*
X132123334Y-100837543D01*
X132102853Y-100980000D01*
X120380500Y-100980000D01*
X120380500Y-91259994D01*
X131525202Y-91259994D01*
X131525202Y-91260005D01*
X131544361Y-91491218D01*
X131601317Y-91716135D01*
X131694515Y-91928606D01*
X131778812Y-92057633D01*
X132328958Y-91507487D01*
X132353978Y-91567890D01*
X132425112Y-91674351D01*
X132515649Y-91764888D01*
X132622110Y-91836022D01*
X132682511Y-91861041D01*
X132131201Y-92412351D01*
X132161649Y-92436050D01*
X132365697Y-92546476D01*
X132365706Y-92546479D01*
X132585139Y-92621811D01*
X132813993Y-92660000D01*
X133046007Y-92660000D01*
X133274860Y-92621811D01*
X133494293Y-92546479D01*
X133494301Y-92546476D01*
X133698355Y-92436047D01*
X133728797Y-92412351D01*
X133728798Y-92412350D01*
X133177489Y-91861041D01*
X133237890Y-91836022D01*
X133344351Y-91764888D01*
X133434888Y-91674351D01*
X133506022Y-91567890D01*
X133531041Y-91507488D01*
X134081186Y-92057633D01*
X134165482Y-91928611D01*
X134258682Y-91716135D01*
X134315638Y-91491218D01*
X134334798Y-91260005D01*
X134334798Y-91259994D01*
X134315638Y-91028781D01*
X134258682Y-90803864D01*
X134165484Y-90591393D01*
X134081186Y-90462365D01*
X133531041Y-91012510D01*
X133506022Y-90952110D01*
X133434888Y-90845649D01*
X133344351Y-90755112D01*
X133237890Y-90683978D01*
X133177487Y-90658958D01*
X133728797Y-90107647D01*
X133728797Y-90107645D01*
X133698360Y-90083955D01*
X133698354Y-90083951D01*
X133494302Y-89973523D01*
X133494293Y-89973520D01*
X133274860Y-89898188D01*
X133046007Y-89860000D01*
X132813993Y-89860000D01*
X132585139Y-89898188D01*
X132365706Y-89973520D01*
X132365697Y-89973523D01*
X132161650Y-90083949D01*
X132131200Y-90107647D01*
X132682511Y-90658958D01*
X132622110Y-90683978D01*
X132515649Y-90755112D01*
X132425112Y-90845649D01*
X132353978Y-90952110D01*
X132328958Y-91012512D01*
X131778811Y-90462365D01*
X131694516Y-90591390D01*
X131601317Y-90803864D01*
X131544361Y-91028781D01*
X131525202Y-91259994D01*
X120380500Y-91259994D01*
X120380500Y-87845528D01*
X120749500Y-87845528D01*
X120749500Y-88154471D01*
X120784086Y-88461437D01*
X120784089Y-88461455D01*
X120852831Y-88762635D01*
X120852835Y-88762647D01*
X120954862Y-89054222D01*
X120954868Y-89054236D01*
X121088903Y-89332562D01*
X121088905Y-89332565D01*
X121253265Y-89594143D01*
X121339817Y-89702675D01*
X121433013Y-89819540D01*
X121445880Y-89835674D01*
X121664326Y-90054120D01*
X121905857Y-90246735D01*
X122167435Y-90411095D01*
X122445771Y-90545135D01*
X122445777Y-90545137D01*
X122737352Y-90647164D01*
X122737364Y-90647168D01*
X123038548Y-90715911D01*
X123038554Y-90715911D01*
X123038562Y-90715913D01*
X123243206Y-90738970D01*
X123345529Y-90750499D01*
X123345532Y-90750500D01*
X123345535Y-90750500D01*
X123654468Y-90750500D01*
X123654469Y-90750499D01*
X123811356Y-90732822D01*
X123961437Y-90715913D01*
X123961442Y-90715912D01*
X123961452Y-90715911D01*
X124262636Y-90647168D01*
X124554229Y-90545135D01*
X124832565Y-90411095D01*
X125094143Y-90246735D01*
X125335674Y-90054120D01*
X125554120Y-89835674D01*
X125746735Y-89594143D01*
X125911095Y-89332565D01*
X126045135Y-89054229D01*
X126147168Y-88762636D01*
X126215911Y-88461452D01*
X126216915Y-88452547D01*
X126250499Y-88154471D01*
X126250500Y-88154467D01*
X126250500Y-87845532D01*
X126250499Y-87845528D01*
X126215913Y-87538562D01*
X126215910Y-87538544D01*
X126209931Y-87512350D01*
X126147168Y-87237364D01*
X126045135Y-86945771D01*
X125911095Y-86667435D01*
X125746735Y-86405857D01*
X125710160Y-86359994D01*
X130925202Y-86359994D01*
X130925202Y-86360005D01*
X130944361Y-86591218D01*
X131001317Y-86816135D01*
X131094515Y-87028606D01*
X131178812Y-87157633D01*
X131728958Y-86607487D01*
X131753978Y-86667890D01*
X131825112Y-86774351D01*
X131915649Y-86864888D01*
X132022110Y-86936022D01*
X132082511Y-86961041D01*
X131531201Y-87512351D01*
X131561649Y-87536050D01*
X131765697Y-87646476D01*
X131765706Y-87646479D01*
X131985139Y-87721811D01*
X132213993Y-87760000D01*
X132446007Y-87760000D01*
X132674860Y-87721811D01*
X132894293Y-87646479D01*
X132894301Y-87646476D01*
X133098355Y-87536047D01*
X133128797Y-87512351D01*
X133128798Y-87512350D01*
X132577489Y-86961041D01*
X132637890Y-86936022D01*
X132744351Y-86864888D01*
X132834888Y-86774351D01*
X132906022Y-86667890D01*
X132931041Y-86607488D01*
X133481186Y-87157633D01*
X133565482Y-87028611D01*
X133658682Y-86816135D01*
X133715638Y-86591218D01*
X133734798Y-86360005D01*
X133734798Y-86359994D01*
X133715638Y-86128781D01*
X133658682Y-85903864D01*
X133565484Y-85691393D01*
X133481186Y-85562365D01*
X132931041Y-86112510D01*
X132906022Y-86052110D01*
X132834888Y-85945649D01*
X132744351Y-85855112D01*
X132637890Y-85783978D01*
X132577487Y-85758958D01*
X133128797Y-85207647D01*
X133128797Y-85207645D01*
X133098360Y-85183955D01*
X133098354Y-85183951D01*
X132894302Y-85073523D01*
X132894293Y-85073520D01*
X132674860Y-84998188D01*
X132446007Y-84960000D01*
X132213993Y-84960000D01*
X131985139Y-84998188D01*
X131765706Y-85073520D01*
X131765697Y-85073523D01*
X131561650Y-85183949D01*
X131531200Y-85207647D01*
X132082511Y-85758958D01*
X132022110Y-85783978D01*
X131915649Y-85855112D01*
X131825112Y-85945649D01*
X131753978Y-86052110D01*
X131728958Y-86112512D01*
X131178811Y-85562365D01*
X131094516Y-85691390D01*
X131001317Y-85903864D01*
X130944361Y-86128781D01*
X130925202Y-86359994D01*
X125710160Y-86359994D01*
X125554120Y-86164326D01*
X125335674Y-85945880D01*
X125335384Y-85945649D01*
X125221855Y-85855112D01*
X125094143Y-85753265D01*
X124832565Y-85588905D01*
X124832562Y-85588903D01*
X124554236Y-85454868D01*
X124554222Y-85454862D01*
X124262647Y-85352835D01*
X124262635Y-85352831D01*
X123961455Y-85284089D01*
X123961437Y-85284086D01*
X123654471Y-85249500D01*
X123654465Y-85249500D01*
X123345535Y-85249500D01*
X123345528Y-85249500D01*
X123038562Y-85284086D01*
X123038544Y-85284089D01*
X122737364Y-85352831D01*
X122737352Y-85352835D01*
X122445777Y-85454862D01*
X122445763Y-85454868D01*
X122167437Y-85588903D01*
X121905858Y-85753264D01*
X121664326Y-85945879D01*
X121445879Y-86164326D01*
X121253264Y-86405858D01*
X121088903Y-86667437D01*
X120954868Y-86945763D01*
X120954862Y-86945777D01*
X120852835Y-87237352D01*
X120852831Y-87237364D01*
X120784089Y-87538544D01*
X120784086Y-87538562D01*
X120749500Y-87845528D01*
X120380500Y-87845528D01*
X120380500Y-84444500D01*
X120400185Y-84377461D01*
X120452989Y-84331706D01*
X120504500Y-84320500D01*
X164411500Y-84320500D01*
X164478539Y-84340185D01*
G37*
%TD.AperFunction*%
%TD*%
M02*
