%TF.GenerationSoftware,KiCad,Pcbnew,8.0.4*%
%TF.CreationDate,2024-07-29T14:13:33-07:00*%
%TF.ProjectId,hdmi,68646d69-2e6b-4696-9361-645f70636258,rev?*%
%TF.SameCoordinates,Original*%
%TF.FileFunction,Legend,Bot*%
%TF.FilePolarity,Positive*%
%FSLAX46Y46*%
G04 Gerber Fmt 4.6, Leading zero omitted, Abs format (unit mm)*
G04 Created by KiCad (PCBNEW 8.0.4) date 2024-07-29 14:13:33*
%MOMM*%
%LPD*%
G01*
G04 APERTURE LIST*
%ADD10C,0.150000*%
%ADD11C,0.120000*%
G04 APERTURE END LIST*
D10*
X140513333Y-106844819D02*
X140513333Y-107559104D01*
X140513333Y-107559104D02*
X140560952Y-107701961D01*
X140560952Y-107701961D02*
X140656190Y-107797200D01*
X140656190Y-107797200D02*
X140799047Y-107844819D01*
X140799047Y-107844819D02*
X140894285Y-107844819D01*
X140084761Y-106940057D02*
X140037142Y-106892438D01*
X140037142Y-106892438D02*
X139941904Y-106844819D01*
X139941904Y-106844819D02*
X139703809Y-106844819D01*
X139703809Y-106844819D02*
X139608571Y-106892438D01*
X139608571Y-106892438D02*
X139560952Y-106940057D01*
X139560952Y-106940057D02*
X139513333Y-107035295D01*
X139513333Y-107035295D02*
X139513333Y-107130533D01*
X139513333Y-107130533D02*
X139560952Y-107273390D01*
X139560952Y-107273390D02*
X140132380Y-107844819D01*
X140132380Y-107844819D02*
X139513333Y-107844819D01*
D11*
%TO.C,J2*%
X132560000Y-114290000D02*
X132560000Y-111590000D01*
X134030000Y-109870000D02*
X135080000Y-109870000D01*
X135080000Y-109870000D02*
X135080000Y-108540000D01*
X144780000Y-109870000D02*
X146330000Y-109870000D01*
X147800000Y-111590000D02*
X147800000Y-114290000D01*
%TD*%
M02*
