%TF.GenerationSoftware,KiCad,Pcbnew,8.0.4*%
%TF.CreationDate,2024-08-19T09:36:31-07:00*%
%TF.ProjectId,hdmi,68646d69-2e6b-4696-9361-645f70636258,rev?*%
%TF.SameCoordinates,Original*%
%TF.FileFunction,Legend,Top*%
%TF.FilePolarity,Positive*%
%FSLAX46Y46*%
G04 Gerber Fmt 4.6, Leading zero omitted, Abs format (unit mm)*
G04 Created by KiCad (PCBNEW 8.0.4) date 2024-08-19 09:36:31*
%MOMM*%
%LPD*%
G01*
G04 APERTURE LIST*
%ADD10C,0.250000*%
%ADD11C,0.300000*%
%ADD12C,0.100000*%
%ADD13C,0.150000*%
%ADD14C,0.120000*%
G04 APERTURE END LIST*
D10*
X124864619Y-102599336D02*
X125864619Y-102266003D01*
X125864619Y-102266003D02*
X124864619Y-101932670D01*
X125864619Y-101075527D02*
X125864619Y-101646955D01*
X125864619Y-101361241D02*
X124864619Y-101361241D01*
X124864619Y-101361241D02*
X125007476Y-101456479D01*
X125007476Y-101456479D02*
X125102714Y-101551717D01*
X125102714Y-101551717D02*
X125150333Y-101646955D01*
X125769380Y-100646955D02*
X125817000Y-100599336D01*
X125817000Y-100599336D02*
X125864619Y-100646955D01*
X125864619Y-100646955D02*
X125817000Y-100694574D01*
X125817000Y-100694574D02*
X125769380Y-100646955D01*
X125769380Y-100646955D02*
X125864619Y-100646955D01*
X124864619Y-99980289D02*
X124864619Y-99885051D01*
X124864619Y-99885051D02*
X124912238Y-99789813D01*
X124912238Y-99789813D02*
X124959857Y-99742194D01*
X124959857Y-99742194D02*
X125055095Y-99694575D01*
X125055095Y-99694575D02*
X125245571Y-99646956D01*
X125245571Y-99646956D02*
X125483666Y-99646956D01*
X125483666Y-99646956D02*
X125674142Y-99694575D01*
X125674142Y-99694575D02*
X125769380Y-99742194D01*
X125769380Y-99742194D02*
X125817000Y-99789813D01*
X125817000Y-99789813D02*
X125864619Y-99885051D01*
X125864619Y-99885051D02*
X125864619Y-99980289D01*
X125864619Y-99980289D02*
X125817000Y-100075527D01*
X125817000Y-100075527D02*
X125769380Y-100123146D01*
X125769380Y-100123146D02*
X125674142Y-100170765D01*
X125674142Y-100170765D02*
X125483666Y-100218384D01*
X125483666Y-100218384D02*
X125245571Y-100218384D01*
X125245571Y-100218384D02*
X125055095Y-100170765D01*
X125055095Y-100170765D02*
X124959857Y-100123146D01*
X124959857Y-100123146D02*
X124912238Y-100075527D01*
X124912238Y-100075527D02*
X124864619Y-99980289D01*
D11*
G36*
X124245000Y-102697170D02*
G01*
X123893290Y-102829061D01*
X123893290Y-103433196D01*
X124245000Y-103557760D01*
X124245000Y-103881260D01*
X122720924Y-103292878D01*
X122720924Y-103135342D01*
X123096081Y-103135342D01*
X123635369Y-103339407D01*
X123635369Y-102927247D01*
X123096081Y-103135342D01*
X122720924Y-103135342D01*
X122720924Y-102970478D01*
X124245000Y-102365611D01*
X124245000Y-102697170D01*
G37*
G36*
X123142976Y-102236284D02*
G01*
X123142976Y-101969204D01*
X123292452Y-101969204D01*
X123233685Y-101913567D01*
X123187077Y-101854092D01*
X123148068Y-101779852D01*
X123125608Y-101700389D01*
X123119528Y-101628119D01*
X123125350Y-101553175D01*
X123144797Y-101480822D01*
X123160928Y-101445670D01*
X123204966Y-101383359D01*
X123260426Y-101335044D01*
X123285491Y-101318908D01*
X123228820Y-101263180D01*
X123184100Y-101204259D01*
X123160928Y-101163203D01*
X123134123Y-101093520D01*
X123120984Y-101020209D01*
X123119528Y-100985150D01*
X123125373Y-100906655D01*
X123145079Y-100830998D01*
X123168988Y-100781085D01*
X123216494Y-100720230D01*
X123279238Y-100673403D01*
X123313335Y-100656521D01*
X123384879Y-100637070D01*
X123459497Y-100628856D01*
X123541214Y-100626479D01*
X124245000Y-100626479D01*
X124245000Y-100916273D01*
X123607892Y-100916273D01*
X123532261Y-100918151D01*
X123458394Y-100925779D01*
X123393569Y-100946315D01*
X123344400Y-101001049D01*
X123330554Y-101069780D01*
X123345295Y-101143082D01*
X123368290Y-101184452D01*
X123421986Y-101235238D01*
X123479298Y-101261755D01*
X123552502Y-101276936D01*
X123627821Y-101283348D01*
X123709741Y-101285202D01*
X124245000Y-101285202D01*
X124245000Y-101574630D01*
X123633904Y-101574630D01*
X123559784Y-101575592D01*
X123481423Y-101580055D01*
X123423977Y-101590017D01*
X123361438Y-101628242D01*
X123353635Y-101638011D01*
X123331118Y-101709109D01*
X123330554Y-101725938D01*
X123343599Y-101800775D01*
X123367557Y-101846472D01*
X123422558Y-101899400D01*
X123473436Y-101923409D01*
X123551485Y-101939187D01*
X123628615Y-101945047D01*
X123703147Y-101946490D01*
X124245000Y-101946490D01*
X124245000Y-102236284D01*
X123142976Y-102236284D01*
G37*
G36*
X122978845Y-100347676D02*
G01*
X122720924Y-100347676D01*
X122720924Y-100057882D01*
X122978845Y-100057882D01*
X122978845Y-100347676D01*
G37*
G36*
X124245000Y-100347676D02*
G01*
X123142976Y-100347676D01*
X123142976Y-100057882D01*
X124245000Y-100057882D01*
X124245000Y-100347676D01*
G37*
G36*
X123142976Y-99262505D02*
G01*
X123354002Y-99262505D01*
X123354002Y-99460342D01*
X123832473Y-99460342D01*
X123911535Y-99459805D01*
X123985718Y-99456988D01*
X124002100Y-99454846D01*
X124042034Y-99428835D01*
X124057421Y-99380108D01*
X124044261Y-99307725D01*
X124029577Y-99263604D01*
X124230345Y-99238691D01*
X124252038Y-99311326D01*
X124264726Y-99390195D01*
X124268447Y-99467303D01*
X124261669Y-99541858D01*
X124241336Y-99608719D01*
X124201293Y-99674150D01*
X124171360Y-99701043D01*
X124102005Y-99731780D01*
X124055223Y-99741710D01*
X123976729Y-99748579D01*
X123900787Y-99750547D01*
X123845296Y-99750869D01*
X123354002Y-99750869D01*
X123354002Y-99883859D01*
X123142976Y-99883859D01*
X123142976Y-99750869D01*
X122931950Y-99750869D01*
X122767819Y-99460342D01*
X123142976Y-99460342D01*
X123142976Y-99262505D01*
G37*
G36*
X123142976Y-99202421D02*
G01*
X123142976Y-98894309D01*
X123923332Y-98632359D01*
X123142976Y-98377003D01*
X123142976Y-98076950D01*
X124205066Y-98463465D01*
X124408032Y-98532341D01*
X124475552Y-98562755D01*
X124542134Y-98600884D01*
X124548349Y-98605248D01*
X124603933Y-98654866D01*
X124626751Y-98684382D01*
X124660501Y-98752040D01*
X124673646Y-98794658D01*
X124686795Y-98869092D01*
X124690498Y-98942669D01*
X124686956Y-99020255D01*
X124676330Y-99096392D01*
X124674378Y-99106434D01*
X124464452Y-99132079D01*
X124476598Y-99059707D01*
X124479473Y-99009347D01*
X124468529Y-98936134D01*
X124428703Y-98873146D01*
X124413161Y-98860237D01*
X124348516Y-98822019D01*
X124276056Y-98794443D01*
X124245000Y-98785865D01*
X123142976Y-99202421D01*
G37*
D12*
X155762475Y-97338972D02*
X156762475Y-97005639D01*
X156762475Y-97005639D02*
X155762475Y-96672306D01*
X156762475Y-96338972D02*
X155762475Y-96338972D01*
X155762475Y-96338972D02*
X155762475Y-96100877D01*
X155762475Y-96100877D02*
X155810094Y-95958020D01*
X155810094Y-95958020D02*
X155905332Y-95862782D01*
X155905332Y-95862782D02*
X156000570Y-95815163D01*
X156000570Y-95815163D02*
X156191046Y-95767544D01*
X156191046Y-95767544D02*
X156333903Y-95767544D01*
X156333903Y-95767544D02*
X156524379Y-95815163D01*
X156524379Y-95815163D02*
X156619617Y-95862782D01*
X156619617Y-95862782D02*
X156714856Y-95958020D01*
X156714856Y-95958020D02*
X156762475Y-96100877D01*
X156762475Y-96100877D02*
X156762475Y-96338972D01*
X156762475Y-95338972D02*
X155762475Y-95338972D01*
X155762475Y-95338972D02*
X155762475Y-95100877D01*
X155762475Y-95100877D02*
X155810094Y-94958020D01*
X155810094Y-94958020D02*
X155905332Y-94862782D01*
X155905332Y-94862782D02*
X156000570Y-94815163D01*
X156000570Y-94815163D02*
X156191046Y-94767544D01*
X156191046Y-94767544D02*
X156333903Y-94767544D01*
X156333903Y-94767544D02*
X156524379Y-94815163D01*
X156524379Y-94815163D02*
X156619617Y-94862782D01*
X156619617Y-94862782D02*
X156714856Y-94958020D01*
X156714856Y-94958020D02*
X156762475Y-95100877D01*
X156762475Y-95100877D02*
X156762475Y-95338972D01*
X157372419Y-97291353D02*
X157372419Y-96672306D01*
X157372419Y-96672306D02*
X157753371Y-97005639D01*
X157753371Y-97005639D02*
X157753371Y-96862782D01*
X157753371Y-96862782D02*
X157800990Y-96767544D01*
X157800990Y-96767544D02*
X157848609Y-96719925D01*
X157848609Y-96719925D02*
X157943847Y-96672306D01*
X157943847Y-96672306D02*
X158181942Y-96672306D01*
X158181942Y-96672306D02*
X158277180Y-96719925D01*
X158277180Y-96719925D02*
X158324800Y-96767544D01*
X158324800Y-96767544D02*
X158372419Y-96862782D01*
X158372419Y-96862782D02*
X158372419Y-97148496D01*
X158372419Y-97148496D02*
X158324800Y-97243734D01*
X158324800Y-97243734D02*
X158277180Y-97291353D01*
X158277180Y-96243734D02*
X158324800Y-96196115D01*
X158324800Y-96196115D02*
X158372419Y-96243734D01*
X158372419Y-96243734D02*
X158324800Y-96291353D01*
X158324800Y-96291353D02*
X158277180Y-96243734D01*
X158277180Y-96243734D02*
X158372419Y-96243734D01*
X157372419Y-95862782D02*
X157372419Y-95243735D01*
X157372419Y-95243735D02*
X157753371Y-95577068D01*
X157753371Y-95577068D02*
X157753371Y-95434211D01*
X157753371Y-95434211D02*
X157800990Y-95338973D01*
X157800990Y-95338973D02*
X157848609Y-95291354D01*
X157848609Y-95291354D02*
X157943847Y-95243735D01*
X157943847Y-95243735D02*
X158181942Y-95243735D01*
X158181942Y-95243735D02*
X158277180Y-95291354D01*
X158277180Y-95291354D02*
X158324800Y-95338973D01*
X158324800Y-95338973D02*
X158372419Y-95434211D01*
X158372419Y-95434211D02*
X158372419Y-95719925D01*
X158372419Y-95719925D02*
X158324800Y-95815163D01*
X158324800Y-95815163D02*
X158277180Y-95862782D01*
X157372419Y-94958020D02*
X158372419Y-94624687D01*
X158372419Y-94624687D02*
X157372419Y-94291354D01*
D13*
X155817438Y-106739411D02*
X155769819Y-106834649D01*
X155769819Y-106834649D02*
X155769819Y-106977506D01*
X155769819Y-106977506D02*
X155817438Y-107120363D01*
X155817438Y-107120363D02*
X155912676Y-107215601D01*
X155912676Y-107215601D02*
X156007914Y-107263220D01*
X156007914Y-107263220D02*
X156198390Y-107310839D01*
X156198390Y-107310839D02*
X156341247Y-107310839D01*
X156341247Y-107310839D02*
X156531723Y-107263220D01*
X156531723Y-107263220D02*
X156626961Y-107215601D01*
X156626961Y-107215601D02*
X156722200Y-107120363D01*
X156722200Y-107120363D02*
X156769819Y-106977506D01*
X156769819Y-106977506D02*
X156769819Y-106882268D01*
X156769819Y-106882268D02*
X156722200Y-106739411D01*
X156722200Y-106739411D02*
X156674580Y-106691792D01*
X156674580Y-106691792D02*
X156341247Y-106691792D01*
X156341247Y-106691792D02*
X156341247Y-106882268D01*
X156769819Y-106263220D02*
X155769819Y-106263220D01*
X155769819Y-106263220D02*
X156769819Y-105691792D01*
X156769819Y-105691792D02*
X155769819Y-105691792D01*
X156769819Y-105215601D02*
X155769819Y-105215601D01*
X155769819Y-105215601D02*
X155769819Y-104977506D01*
X155769819Y-104977506D02*
X155817438Y-104834649D01*
X155817438Y-104834649D02*
X155912676Y-104739411D01*
X155912676Y-104739411D02*
X156007914Y-104691792D01*
X156007914Y-104691792D02*
X156198390Y-104644173D01*
X156198390Y-104644173D02*
X156341247Y-104644173D01*
X156341247Y-104644173D02*
X156531723Y-104691792D01*
X156531723Y-104691792D02*
X156626961Y-104739411D01*
X156626961Y-104739411D02*
X156722200Y-104834649D01*
X156722200Y-104834649D02*
X156769819Y-104977506D01*
X156769819Y-104977506D02*
X156769819Y-105215601D01*
D12*
X151877180Y-101124687D02*
X151924800Y-101172306D01*
X151924800Y-101172306D02*
X151972419Y-101315163D01*
X151972419Y-101315163D02*
X151972419Y-101410401D01*
X151972419Y-101410401D02*
X151924800Y-101553258D01*
X151924800Y-101553258D02*
X151829561Y-101648496D01*
X151829561Y-101648496D02*
X151734323Y-101696115D01*
X151734323Y-101696115D02*
X151543847Y-101743734D01*
X151543847Y-101743734D02*
X151400990Y-101743734D01*
X151400990Y-101743734D02*
X151210514Y-101696115D01*
X151210514Y-101696115D02*
X151115276Y-101648496D01*
X151115276Y-101648496D02*
X151020038Y-101553258D01*
X151020038Y-101553258D02*
X150972419Y-101410401D01*
X150972419Y-101410401D02*
X150972419Y-101315163D01*
X150972419Y-101315163D02*
X151020038Y-101172306D01*
X151020038Y-101172306D02*
X151067657Y-101124687D01*
X151448609Y-100696115D02*
X151448609Y-100362782D01*
X151972419Y-100219925D02*
X151972419Y-100696115D01*
X151972419Y-100696115D02*
X150972419Y-100696115D01*
X150972419Y-100696115D02*
X150972419Y-100219925D01*
X151877180Y-99219925D02*
X151924800Y-99267544D01*
X151924800Y-99267544D02*
X151972419Y-99410401D01*
X151972419Y-99410401D02*
X151972419Y-99505639D01*
X151972419Y-99505639D02*
X151924800Y-99648496D01*
X151924800Y-99648496D02*
X151829561Y-99743734D01*
X151829561Y-99743734D02*
X151734323Y-99791353D01*
X151734323Y-99791353D02*
X151543847Y-99838972D01*
X151543847Y-99838972D02*
X151400990Y-99838972D01*
X151400990Y-99838972D02*
X151210514Y-99791353D01*
X151210514Y-99791353D02*
X151115276Y-99743734D01*
X151115276Y-99743734D02*
X151020038Y-99648496D01*
X151020038Y-99648496D02*
X150972419Y-99505639D01*
X150972419Y-99505639D02*
X150972419Y-99410401D01*
X150972419Y-99410401D02*
X151020038Y-99267544D01*
X151020038Y-99267544D02*
X151067657Y-99219925D01*
D13*
X152745619Y-92464166D02*
X152269428Y-92797499D01*
X152745619Y-93035594D02*
X151745619Y-93035594D01*
X151745619Y-93035594D02*
X151745619Y-92654642D01*
X151745619Y-92654642D02*
X151793238Y-92559404D01*
X151793238Y-92559404D02*
X151840857Y-92511785D01*
X151840857Y-92511785D02*
X151936095Y-92464166D01*
X151936095Y-92464166D02*
X152078952Y-92464166D01*
X152078952Y-92464166D02*
X152174190Y-92511785D01*
X152174190Y-92511785D02*
X152221809Y-92559404D01*
X152221809Y-92559404D02*
X152269428Y-92654642D01*
X152269428Y-92654642D02*
X152269428Y-93035594D01*
X152745619Y-91511785D02*
X152745619Y-92083213D01*
X152745619Y-91797499D02*
X151745619Y-91797499D01*
X151745619Y-91797499D02*
X151888476Y-91892737D01*
X151888476Y-91892737D02*
X151983714Y-91987975D01*
X151983714Y-91987975D02*
X152031333Y-92083213D01*
X153387466Y-106404819D02*
X153387466Y-107119104D01*
X153387466Y-107119104D02*
X153339847Y-107261961D01*
X153339847Y-107261961D02*
X153244609Y-107357200D01*
X153244609Y-107357200D02*
X153101752Y-107404819D01*
X153101752Y-107404819D02*
X153006514Y-107404819D01*
X153768419Y-106404819D02*
X154387466Y-106404819D01*
X154387466Y-106404819D02*
X154054133Y-106785771D01*
X154054133Y-106785771D02*
X154196990Y-106785771D01*
X154196990Y-106785771D02*
X154292228Y-106833390D01*
X154292228Y-106833390D02*
X154339847Y-106881009D01*
X154339847Y-106881009D02*
X154387466Y-106976247D01*
X154387466Y-106976247D02*
X154387466Y-107214342D01*
X154387466Y-107214342D02*
X154339847Y-107309580D01*
X154339847Y-107309580D02*
X154292228Y-107357200D01*
X154292228Y-107357200D02*
X154196990Y-107404819D01*
X154196990Y-107404819D02*
X153911276Y-107404819D01*
X153911276Y-107404819D02*
X153816038Y-107357200D01*
X153816038Y-107357200D02*
X153768419Y-107309580D01*
X155605619Y-89025594D02*
X154605619Y-89025594D01*
X154605619Y-89025594D02*
X154605619Y-88787499D01*
X154605619Y-88787499D02*
X154653238Y-88644642D01*
X154653238Y-88644642D02*
X154748476Y-88549404D01*
X154748476Y-88549404D02*
X154843714Y-88501785D01*
X154843714Y-88501785D02*
X155034190Y-88454166D01*
X155034190Y-88454166D02*
X155177047Y-88454166D01*
X155177047Y-88454166D02*
X155367523Y-88501785D01*
X155367523Y-88501785D02*
X155462761Y-88549404D01*
X155462761Y-88549404D02*
X155558000Y-88644642D01*
X155558000Y-88644642D02*
X155605619Y-88787499D01*
X155605619Y-88787499D02*
X155605619Y-89025594D01*
X155605619Y-87501785D02*
X155605619Y-88073213D01*
X155605619Y-87787499D02*
X154605619Y-87787499D01*
X154605619Y-87787499D02*
X154748476Y-87882737D01*
X154748476Y-87882737D02*
X154843714Y-87977975D01*
X154843714Y-87977975D02*
X154891333Y-88073213D01*
X140513333Y-94905180D02*
X140513333Y-94190895D01*
X140513333Y-94190895D02*
X140560952Y-94048038D01*
X140560952Y-94048038D02*
X140656190Y-93952800D01*
X140656190Y-93952800D02*
X140799047Y-93905180D01*
X140799047Y-93905180D02*
X140894285Y-93905180D01*
X139513333Y-93905180D02*
X140084761Y-93905180D01*
X139799047Y-93905180D02*
X139799047Y-94905180D01*
X139799047Y-94905180D02*
X139894285Y-94762323D01*
X139894285Y-94762323D02*
X139989523Y-94667085D01*
X139989523Y-94667085D02*
X140084761Y-94619466D01*
D14*
%TO.C,R1*%
X153198300Y-92534758D02*
X153198300Y-92060242D01*
X154243300Y-92534758D02*
X154243300Y-92060242D01*
%TO.C,J3*%
X155050800Y-105950000D02*
X153720800Y-105950000D01*
X155050800Y-104620000D02*
X155050800Y-105950000D01*
X155050800Y-103350000D02*
X155050800Y-95670000D01*
X155050800Y-103350000D02*
X152390800Y-103350000D01*
X155050800Y-95670000D02*
X152390800Y-95670000D01*
X152390800Y-103350000D02*
X152390800Y-95670000D01*
%TO.C,D1*%
X154455800Y-89087500D02*
X154455800Y-86802500D01*
X152985800Y-86802500D02*
X152985800Y-89087500D01*
X154455800Y-86802500D02*
X152985800Y-86802500D01*
%TO.C,J1*%
X132560000Y-90160000D02*
X132560000Y-87460000D01*
X135080000Y-91880000D02*
X134030000Y-91880000D01*
X135080000Y-93210000D02*
X135080000Y-91880000D01*
X146330000Y-91880000D02*
X144780000Y-91880000D01*
X147800000Y-87460000D02*
X147800000Y-90160000D01*
%TD*%
M02*
