%TF.GenerationSoftware,KiCad,Pcbnew,8.0.5*%
%TF.CreationDate,2024-10-07T21:11:13-07:00*%
%TF.ProjectId,hdmi,68646d69-2e6b-4696-9361-645f70636258,rev?*%
%TF.SameCoordinates,Original*%
%TF.FileFunction,Copper,L2,Inr*%
%TF.FilePolarity,Positive*%
%FSLAX46Y46*%
G04 Gerber Fmt 4.6, Leading zero omitted, Abs format (unit mm)*
G04 Created by KiCad (PCBNEW 8.0.5) date 2024-10-07 21:11:13*
%MOMM*%
%LPD*%
G01*
G04 APERTURE LIST*
%TA.AperFunction,ComponentPad*%
%ADD10C,5.000000*%
%TD*%
%TA.AperFunction,ComponentPad*%
%ADD11R,1.700000X1.700000*%
%TD*%
%TA.AperFunction,ComponentPad*%
%ADD12O,1.700000X1.700000*%
%TD*%
%TA.AperFunction,ComponentPad*%
%ADD13C,1.800000*%
%TD*%
%TA.AperFunction,ViaPad*%
%ADD14C,0.600000*%
%TD*%
G04 APERTURE END LIST*
D10*
%TO.N,GND*%
%TO.C,H2*%
X150000000Y-80000000D03*
%TD*%
D11*
%TO.N,GND*%
%TO.C,J3*%
X147000000Y-86200000D03*
D12*
%TO.N,Net-(D2-K)*%
X147000000Y-88740000D03*
%TO.N,Net-(D1-K)*%
X147000000Y-91280000D03*
%TO.N,VDD*%
X147000000Y-93820000D03*
%TD*%
D10*
%TO.N,GND*%
%TO.C,H4*%
X150000000Y-100000000D03*
%TD*%
%TO.N,GND*%
%TO.C,H1*%
X120000000Y-80000000D03*
%TD*%
D13*
%TO.N,GND*%
%TO.C,J1*%
X142100000Y-77600000D03*
X141500000Y-82500000D03*
X127000000Y-82500000D03*
X126400000Y-77600000D03*
%TD*%
D10*
%TO.N,GND*%
%TO.C,H3*%
X120000000Y-100000000D03*
%TD*%
D13*
%TO.N,GND*%
%TO.C,J2*%
X142100000Y-102400000D03*
X141500000Y-97500000D03*
X127000000Y-97500000D03*
X126400000Y-102400000D03*
%TD*%
D14*
%TO.N,Net-(J1-HPD)*%
X138600000Y-92500000D03*
%TO.N,Net-(J1-SDA)*%
X137200000Y-90000000D03*
%TO.N,Net-(J1-UTILITY)*%
X135900000Y-85750000D03*
%TO.N,Net-(J1-SCL)*%
X136600000Y-92500000D03*
%TO.N,/D0+*%
X132600000Y-85750000D03*
%TO.N,/D1+*%
X131100000Y-94250000D03*
%TO.N,/D2+*%
X129600000Y-85750000D03*
%TO.N,/D1-*%
X131900000Y-94250000D03*
%TO.N,/D0-*%
X133400000Y-85750000D03*
%TO.N,/D2-*%
X130400000Y-85750000D03*
%TO.N,/CK+*%
X134100000Y-94250000D03*
%TO.N,/CK-*%
X134900000Y-94250000D03*
%TO.N,GND*%
X125000000Y-90000000D03*
X132500000Y-100000000D03*
X129000000Y-89500000D03*
X150000000Y-92500000D03*
X130000000Y-80000000D03*
X130000000Y-82000000D03*
X129000000Y-92500000D03*
X150000000Y-95000000D03*
X129000000Y-90500000D03*
X130000000Y-98000000D03*
X125000000Y-87500000D03*
X125000000Y-92500000D03*
X120000000Y-87500000D03*
X133000000Y-98000000D03*
X139250000Y-89000000D03*
X129000000Y-91500000D03*
X129000000Y-88500000D03*
X137500000Y-82000000D03*
X120000000Y-92500000D03*
X134500000Y-98000000D03*
X120000000Y-95000000D03*
X132500000Y-80000000D03*
X150000000Y-85000000D03*
X150000000Y-87500000D03*
X120000000Y-85000000D03*
X139250000Y-88000000D03*
X130000000Y-100000000D03*
X139250000Y-90000000D03*
X139250000Y-86000000D03*
X131500000Y-82000000D03*
X139250000Y-87000000D03*
X134500000Y-82000000D03*
X139250000Y-91000000D03*
X129000000Y-86500000D03*
X150000000Y-90000000D03*
X135000000Y-80000000D03*
X129000000Y-87500000D03*
X129000000Y-94500000D03*
X137500000Y-98000000D03*
X133000000Y-82000000D03*
X129000000Y-93500000D03*
X135000000Y-100000000D03*
X120000000Y-90000000D03*
X131500000Y-98000000D03*
X139250000Y-94000000D03*
%TO.N,Net-(J1-+5V)*%
X138000000Y-87500000D03*
%TD*%
%TA.AperFunction,Conductor*%
%TO.N,GND*%
G36*
X154442539Y-75520185D02*
G01*
X154488294Y-75572989D01*
X154499500Y-75624500D01*
X154499500Y-104375500D01*
X154479815Y-104442539D01*
X154427011Y-104488294D01*
X154375500Y-104499500D01*
X115624500Y-104499500D01*
X115557461Y-104479815D01*
X115511706Y-104427011D01*
X115500500Y-104375500D01*
X115500500Y-99999996D01*
X116994916Y-99999996D01*
X116994916Y-100000003D01*
X117015235Y-100348869D01*
X117015236Y-100348880D01*
X117075914Y-100693002D01*
X117075916Y-100693011D01*
X117176145Y-101027800D01*
X117314555Y-101348670D01*
X117314561Y-101348683D01*
X117489289Y-101651322D01*
X117697967Y-101931625D01*
X117706148Y-101940296D01*
X118956319Y-100690124D01*
X119046554Y-100814320D01*
X119185680Y-100953446D01*
X119309873Y-101043678D01*
X118062818Y-102290733D01*
X118062819Y-102290734D01*
X118205484Y-102410445D01*
X118497461Y-102602480D01*
X118809739Y-102759314D01*
X118809745Y-102759316D01*
X119138130Y-102878838D01*
X119138133Y-102878839D01*
X119478171Y-102959429D01*
X119825276Y-102999999D01*
X119825277Y-103000000D01*
X120174723Y-103000000D01*
X120174723Y-102999999D01*
X120521827Y-102959429D01*
X120521829Y-102959429D01*
X120861866Y-102878839D01*
X120861869Y-102878838D01*
X121190254Y-102759316D01*
X121190260Y-102759314D01*
X121502538Y-102602480D01*
X121794509Y-102410449D01*
X121794510Y-102410448D01*
X121806969Y-102399994D01*
X124995202Y-102399994D01*
X124995202Y-102400005D01*
X125014361Y-102631218D01*
X125071317Y-102856135D01*
X125164515Y-103068606D01*
X125248812Y-103197633D01*
X125798958Y-102647487D01*
X125823978Y-102707890D01*
X125895112Y-102814351D01*
X125985649Y-102904888D01*
X126092110Y-102976022D01*
X126152511Y-103001041D01*
X125601201Y-103552351D01*
X125631649Y-103576050D01*
X125835697Y-103686476D01*
X125835706Y-103686479D01*
X126055139Y-103761811D01*
X126283993Y-103800000D01*
X126516007Y-103800000D01*
X126744860Y-103761811D01*
X126964293Y-103686479D01*
X126964301Y-103686476D01*
X127168355Y-103576047D01*
X127198797Y-103552351D01*
X127198798Y-103552350D01*
X126647489Y-103001041D01*
X126707890Y-102976022D01*
X126814351Y-102904888D01*
X126904888Y-102814351D01*
X126976022Y-102707890D01*
X127001041Y-102647488D01*
X127551186Y-103197633D01*
X127635482Y-103068611D01*
X127728682Y-102856135D01*
X127785638Y-102631218D01*
X127804798Y-102400005D01*
X127804798Y-102399994D01*
X140695202Y-102399994D01*
X140695202Y-102400005D01*
X140714361Y-102631218D01*
X140771317Y-102856135D01*
X140864515Y-103068606D01*
X140948812Y-103197633D01*
X141498958Y-102647487D01*
X141523978Y-102707890D01*
X141595112Y-102814351D01*
X141685649Y-102904888D01*
X141792110Y-102976022D01*
X141852511Y-103001041D01*
X141301201Y-103552351D01*
X141331649Y-103576050D01*
X141535697Y-103686476D01*
X141535706Y-103686479D01*
X141755139Y-103761811D01*
X141983993Y-103800000D01*
X142216007Y-103800000D01*
X142444860Y-103761811D01*
X142664293Y-103686479D01*
X142664301Y-103686476D01*
X142868355Y-103576047D01*
X142898797Y-103552351D01*
X142898798Y-103552350D01*
X142347489Y-103001041D01*
X142407890Y-102976022D01*
X142514351Y-102904888D01*
X142604888Y-102814351D01*
X142676022Y-102707890D01*
X142701041Y-102647488D01*
X143251186Y-103197633D01*
X143335482Y-103068611D01*
X143428682Y-102856135D01*
X143485638Y-102631218D01*
X143504798Y-102400005D01*
X143504798Y-102399994D01*
X143485638Y-102168781D01*
X143428682Y-101943864D01*
X143335484Y-101731393D01*
X143251186Y-101602365D01*
X142701041Y-102152510D01*
X142676022Y-102092110D01*
X142604888Y-101985649D01*
X142514351Y-101895112D01*
X142407890Y-101823978D01*
X142347487Y-101798958D01*
X142898797Y-101247647D01*
X142898797Y-101247645D01*
X142868360Y-101223955D01*
X142868354Y-101223951D01*
X142664302Y-101113523D01*
X142664293Y-101113520D01*
X142444860Y-101038188D01*
X142216007Y-101000000D01*
X141983993Y-101000000D01*
X141755139Y-101038188D01*
X141535706Y-101113520D01*
X141535697Y-101113523D01*
X141331650Y-101223949D01*
X141301200Y-101247647D01*
X141852511Y-101798958D01*
X141792110Y-101823978D01*
X141685649Y-101895112D01*
X141595112Y-101985649D01*
X141523978Y-102092110D01*
X141498958Y-102152512D01*
X140948811Y-101602365D01*
X140864516Y-101731390D01*
X140771317Y-101943864D01*
X140714361Y-102168781D01*
X140695202Y-102399994D01*
X127804798Y-102399994D01*
X127785638Y-102168781D01*
X127728682Y-101943864D01*
X127635484Y-101731393D01*
X127551186Y-101602365D01*
X127001041Y-102152510D01*
X126976022Y-102092110D01*
X126904888Y-101985649D01*
X126814351Y-101895112D01*
X126707890Y-101823978D01*
X126647487Y-101798958D01*
X127198797Y-101247647D01*
X127198797Y-101247645D01*
X127168360Y-101223955D01*
X127168354Y-101223951D01*
X126964302Y-101113523D01*
X126964293Y-101113520D01*
X126744860Y-101038188D01*
X126516007Y-101000000D01*
X126283993Y-101000000D01*
X126055139Y-101038188D01*
X125835706Y-101113520D01*
X125835697Y-101113523D01*
X125631650Y-101223949D01*
X125601200Y-101247647D01*
X126152511Y-101798958D01*
X126092110Y-101823978D01*
X125985649Y-101895112D01*
X125895112Y-101985649D01*
X125823978Y-102092110D01*
X125798958Y-102152512D01*
X125248811Y-101602365D01*
X125164516Y-101731390D01*
X125071317Y-101943864D01*
X125014361Y-102168781D01*
X124995202Y-102399994D01*
X121806969Y-102399994D01*
X121937179Y-102290734D01*
X121937180Y-102290733D01*
X120690126Y-101043678D01*
X120814320Y-100953446D01*
X120953446Y-100814320D01*
X121043678Y-100690126D01*
X122293849Y-101940297D01*
X122293851Y-101940296D01*
X122302022Y-101931636D01*
X122302033Y-101931623D01*
X122510710Y-101651322D01*
X122685438Y-101348683D01*
X122685444Y-101348670D01*
X122823854Y-101027800D01*
X122924083Y-100693011D01*
X122924085Y-100693002D01*
X122984763Y-100348880D01*
X122984764Y-100348869D01*
X123005084Y-100000003D01*
X123005084Y-99999996D01*
X146994916Y-99999996D01*
X146994916Y-100000003D01*
X147015235Y-100348869D01*
X147015236Y-100348880D01*
X147075914Y-100693002D01*
X147075916Y-100693011D01*
X147176145Y-101027800D01*
X147314555Y-101348670D01*
X147314561Y-101348683D01*
X147489289Y-101651322D01*
X147697967Y-101931625D01*
X147706148Y-101940296D01*
X148956319Y-100690124D01*
X149046554Y-100814320D01*
X149185680Y-100953446D01*
X149309873Y-101043678D01*
X148062818Y-102290733D01*
X148062819Y-102290734D01*
X148205484Y-102410445D01*
X148497461Y-102602480D01*
X148809739Y-102759314D01*
X148809745Y-102759316D01*
X149138130Y-102878838D01*
X149138133Y-102878839D01*
X149478171Y-102959429D01*
X149825276Y-102999999D01*
X149825277Y-103000000D01*
X150174723Y-103000000D01*
X150174723Y-102999999D01*
X150521827Y-102959429D01*
X150521829Y-102959429D01*
X150861866Y-102878839D01*
X150861869Y-102878838D01*
X151190254Y-102759316D01*
X151190260Y-102759314D01*
X151502538Y-102602480D01*
X151794509Y-102410449D01*
X151794510Y-102410448D01*
X151937179Y-102290734D01*
X151937180Y-102290733D01*
X150690126Y-101043678D01*
X150814320Y-100953446D01*
X150953446Y-100814320D01*
X151043679Y-100690126D01*
X152293850Y-101940297D01*
X152293851Y-101940296D01*
X152302022Y-101931636D01*
X152302033Y-101931623D01*
X152510710Y-101651322D01*
X152685438Y-101348683D01*
X152685444Y-101348670D01*
X152823854Y-101027800D01*
X152924083Y-100693011D01*
X152924085Y-100693002D01*
X152984763Y-100348880D01*
X152984764Y-100348869D01*
X153005084Y-100000003D01*
X153005084Y-99999996D01*
X152984764Y-99651130D01*
X152984763Y-99651119D01*
X152924085Y-99306997D01*
X152924083Y-99306988D01*
X152823854Y-98972199D01*
X152685444Y-98651329D01*
X152685438Y-98651316D01*
X152510710Y-98348677D01*
X152302032Y-98068374D01*
X152293850Y-98059702D01*
X151043678Y-99309873D01*
X150953446Y-99185680D01*
X150814320Y-99046554D01*
X150690125Y-98956320D01*
X151937180Y-97709265D01*
X151937179Y-97709264D01*
X151794519Y-97589557D01*
X151502538Y-97397519D01*
X151190260Y-97240685D01*
X151190254Y-97240683D01*
X150861869Y-97121161D01*
X150861866Y-97121160D01*
X150521828Y-97040570D01*
X150174723Y-97000000D01*
X149825277Y-97000000D01*
X149478172Y-97040570D01*
X149478170Y-97040570D01*
X149138133Y-97121160D01*
X149138130Y-97121161D01*
X148809745Y-97240683D01*
X148809739Y-97240685D01*
X148497461Y-97397519D01*
X148205480Y-97589557D01*
X148062819Y-97709264D01*
X148062818Y-97709265D01*
X149309874Y-98956320D01*
X149185680Y-99046554D01*
X149046554Y-99185680D01*
X148956320Y-99309873D01*
X147706148Y-98059701D01*
X147706147Y-98059702D01*
X147697976Y-98068363D01*
X147697972Y-98068368D01*
X147489289Y-98348677D01*
X147314561Y-98651316D01*
X147314555Y-98651329D01*
X147176145Y-98972199D01*
X147075916Y-99306988D01*
X147075914Y-99306997D01*
X147015236Y-99651119D01*
X147015235Y-99651130D01*
X146994916Y-99999996D01*
X123005084Y-99999996D01*
X122984764Y-99651130D01*
X122984763Y-99651119D01*
X122924085Y-99306997D01*
X122924083Y-99306988D01*
X122823854Y-98972199D01*
X122685444Y-98651329D01*
X122685438Y-98651316D01*
X122510710Y-98348677D01*
X122302032Y-98068374D01*
X122293850Y-98059702D01*
X121043678Y-99309873D01*
X120953446Y-99185680D01*
X120814320Y-99046554D01*
X120690125Y-98956320D01*
X121937180Y-97709265D01*
X121937179Y-97709264D01*
X121794519Y-97589557D01*
X121658344Y-97499994D01*
X125595202Y-97499994D01*
X125595202Y-97500005D01*
X125614361Y-97731218D01*
X125671317Y-97956135D01*
X125764515Y-98168606D01*
X125848812Y-98297633D01*
X126398958Y-97747487D01*
X126423978Y-97807890D01*
X126495112Y-97914351D01*
X126585649Y-98004888D01*
X126692110Y-98076022D01*
X126752511Y-98101041D01*
X126201201Y-98652351D01*
X126231649Y-98676050D01*
X126435697Y-98786476D01*
X126435706Y-98786479D01*
X126655139Y-98861811D01*
X126883993Y-98900000D01*
X127116007Y-98900000D01*
X127344860Y-98861811D01*
X127564293Y-98786479D01*
X127564301Y-98786476D01*
X127768355Y-98676047D01*
X127798797Y-98652351D01*
X127798798Y-98652350D01*
X127247489Y-98101041D01*
X127307890Y-98076022D01*
X127414351Y-98004888D01*
X127504888Y-97914351D01*
X127576022Y-97807890D01*
X127601041Y-97747488D01*
X128151186Y-98297633D01*
X128235482Y-98168611D01*
X128328682Y-97956135D01*
X128385638Y-97731218D01*
X128404798Y-97500005D01*
X128404798Y-97499994D01*
X140095202Y-97499994D01*
X140095202Y-97500005D01*
X140114361Y-97731218D01*
X140171317Y-97956135D01*
X140264515Y-98168606D01*
X140348812Y-98297633D01*
X140898958Y-97747487D01*
X140923978Y-97807890D01*
X140995112Y-97914351D01*
X141085649Y-98004888D01*
X141192110Y-98076022D01*
X141252511Y-98101041D01*
X140701201Y-98652351D01*
X140731649Y-98676050D01*
X140935697Y-98786476D01*
X140935706Y-98786479D01*
X141155139Y-98861811D01*
X141383993Y-98900000D01*
X141616007Y-98900000D01*
X141844860Y-98861811D01*
X142064293Y-98786479D01*
X142064301Y-98786476D01*
X142268355Y-98676047D01*
X142298797Y-98652351D01*
X142298798Y-98652350D01*
X141747489Y-98101041D01*
X141807890Y-98076022D01*
X141914351Y-98004888D01*
X142004888Y-97914351D01*
X142076022Y-97807890D01*
X142101041Y-97747488D01*
X142651186Y-98297633D01*
X142735482Y-98168611D01*
X142828682Y-97956135D01*
X142885638Y-97731218D01*
X142904798Y-97500005D01*
X142904798Y-97499994D01*
X142885638Y-97268781D01*
X142828682Y-97043864D01*
X142735484Y-96831393D01*
X142651186Y-96702365D01*
X142101041Y-97252510D01*
X142076022Y-97192110D01*
X142004888Y-97085649D01*
X141914351Y-96995112D01*
X141807890Y-96923978D01*
X141747487Y-96898958D01*
X142298797Y-96347647D01*
X142298797Y-96347645D01*
X142268360Y-96323955D01*
X142268354Y-96323951D01*
X142064302Y-96213523D01*
X142064293Y-96213520D01*
X141844860Y-96138188D01*
X141616007Y-96100000D01*
X141383993Y-96100000D01*
X141155139Y-96138188D01*
X140935706Y-96213520D01*
X140935697Y-96213523D01*
X140731650Y-96323949D01*
X140701200Y-96347647D01*
X141252511Y-96898958D01*
X141192110Y-96923978D01*
X141085649Y-96995112D01*
X140995112Y-97085649D01*
X140923978Y-97192110D01*
X140898958Y-97252512D01*
X140348811Y-96702365D01*
X140264516Y-96831390D01*
X140171317Y-97043864D01*
X140114361Y-97268781D01*
X140095202Y-97499994D01*
X128404798Y-97499994D01*
X128385638Y-97268781D01*
X128328682Y-97043864D01*
X128235484Y-96831393D01*
X128151186Y-96702365D01*
X127601041Y-97252510D01*
X127576022Y-97192110D01*
X127504888Y-97085649D01*
X127414351Y-96995112D01*
X127307890Y-96923978D01*
X127247487Y-96898958D01*
X127798797Y-96347647D01*
X127798797Y-96347645D01*
X127768360Y-96323955D01*
X127768354Y-96323951D01*
X127564302Y-96213523D01*
X127564293Y-96213520D01*
X127344860Y-96138188D01*
X127116007Y-96100000D01*
X126883993Y-96100000D01*
X126655139Y-96138188D01*
X126435706Y-96213520D01*
X126435697Y-96213523D01*
X126231650Y-96323949D01*
X126201200Y-96347647D01*
X126752511Y-96898958D01*
X126692110Y-96923978D01*
X126585649Y-96995112D01*
X126495112Y-97085649D01*
X126423978Y-97192110D01*
X126398958Y-97252512D01*
X125848811Y-96702365D01*
X125764516Y-96831390D01*
X125671317Y-97043864D01*
X125614361Y-97268781D01*
X125595202Y-97499994D01*
X121658344Y-97499994D01*
X121502538Y-97397519D01*
X121190260Y-97240685D01*
X121190254Y-97240683D01*
X120861869Y-97121161D01*
X120861866Y-97121160D01*
X120521828Y-97040570D01*
X120174723Y-97000000D01*
X119825277Y-97000000D01*
X119478172Y-97040570D01*
X119478170Y-97040570D01*
X119138133Y-97121160D01*
X119138130Y-97121161D01*
X118809745Y-97240683D01*
X118809739Y-97240685D01*
X118497461Y-97397519D01*
X118205480Y-97589557D01*
X118062819Y-97709264D01*
X118062818Y-97709265D01*
X119309874Y-98956320D01*
X119185680Y-99046554D01*
X119046554Y-99185680D01*
X118956320Y-99309873D01*
X117706148Y-98059701D01*
X117706147Y-98059702D01*
X117697976Y-98068363D01*
X117697972Y-98068368D01*
X117489289Y-98348677D01*
X117314561Y-98651316D01*
X117314555Y-98651329D01*
X117176145Y-98972199D01*
X117075916Y-99306988D01*
X117075914Y-99306997D01*
X117015236Y-99651119D01*
X117015235Y-99651130D01*
X116994916Y-99999996D01*
X115500500Y-99999996D01*
X115500500Y-94250000D01*
X130594353Y-94250000D01*
X130614834Y-94392456D01*
X130621225Y-94406450D01*
X130674623Y-94523373D01*
X130768872Y-94632143D01*
X130889947Y-94709953D01*
X130889950Y-94709954D01*
X130889949Y-94709954D01*
X131028036Y-94750499D01*
X131028038Y-94750500D01*
X131028039Y-94750500D01*
X131171962Y-94750500D01*
X131171962Y-94750499D01*
X131310050Y-94709954D01*
X131310051Y-94709954D01*
X131329147Y-94697682D01*
X131431128Y-94632143D01*
X131431129Y-94632141D01*
X131432960Y-94630965D01*
X131500000Y-94611280D01*
X131567039Y-94630964D01*
X131567040Y-94630965D01*
X131568870Y-94632141D01*
X131568872Y-94632143D01*
X131646251Y-94681871D01*
X131689948Y-94709954D01*
X131828036Y-94750499D01*
X131828038Y-94750500D01*
X131828039Y-94750500D01*
X131971962Y-94750500D01*
X131971962Y-94750499D01*
X132110053Y-94709953D01*
X132231128Y-94632143D01*
X132325377Y-94523373D01*
X132385165Y-94392457D01*
X132405647Y-94250000D01*
X133594353Y-94250000D01*
X133614834Y-94392456D01*
X133621225Y-94406450D01*
X133674623Y-94523373D01*
X133768872Y-94632143D01*
X133889947Y-94709953D01*
X133889950Y-94709954D01*
X133889949Y-94709954D01*
X134028036Y-94750499D01*
X134028038Y-94750500D01*
X134028039Y-94750500D01*
X134171962Y-94750500D01*
X134171962Y-94750499D01*
X134310050Y-94709954D01*
X134310051Y-94709954D01*
X134329147Y-94697682D01*
X134431128Y-94632143D01*
X134431129Y-94632141D01*
X134432960Y-94630965D01*
X134500000Y-94611280D01*
X134567039Y-94630964D01*
X134567040Y-94630965D01*
X134568870Y-94632141D01*
X134568872Y-94632143D01*
X134646251Y-94681871D01*
X134689948Y-94709954D01*
X134828036Y-94750499D01*
X134828038Y-94750500D01*
X134828039Y-94750500D01*
X134971962Y-94750500D01*
X134971962Y-94750499D01*
X135110053Y-94709953D01*
X135231128Y-94632143D01*
X135325377Y-94523373D01*
X135385165Y-94392457D01*
X135405647Y-94250000D01*
X135385165Y-94107543D01*
X135325377Y-93976627D01*
X135231128Y-93867857D01*
X135156661Y-93820000D01*
X145944417Y-93820000D01*
X145964699Y-94025932D01*
X145994734Y-94124944D01*
X146024768Y-94223954D01*
X146122315Y-94406450D01*
X146122317Y-94406452D01*
X146253589Y-94566410D01*
X146332250Y-94630964D01*
X146413550Y-94697685D01*
X146596046Y-94795232D01*
X146794066Y-94855300D01*
X146794065Y-94855300D01*
X146812529Y-94857118D01*
X147000000Y-94875583D01*
X147205934Y-94855300D01*
X147403954Y-94795232D01*
X147586450Y-94697685D01*
X147746410Y-94566410D01*
X147877685Y-94406450D01*
X147975232Y-94223954D01*
X148035300Y-94025934D01*
X148055583Y-93820000D01*
X148035300Y-93614066D01*
X147975232Y-93416046D01*
X147877685Y-93233550D01*
X147825702Y-93170209D01*
X147746410Y-93073589D01*
X147586452Y-92942317D01*
X147586453Y-92942317D01*
X147586450Y-92942315D01*
X147403954Y-92844768D01*
X147205934Y-92784700D01*
X147205932Y-92784699D01*
X147205934Y-92784699D01*
X147000000Y-92764417D01*
X146794067Y-92784699D01*
X146596043Y-92844769D01*
X146485898Y-92903643D01*
X146413550Y-92942315D01*
X146413548Y-92942316D01*
X146413547Y-92942317D01*
X146253589Y-93073589D01*
X146122317Y-93233547D01*
X146024769Y-93416043D01*
X145964699Y-93614067D01*
X145944417Y-93820000D01*
X135156661Y-93820000D01*
X135110053Y-93790047D01*
X135110051Y-93790046D01*
X135110049Y-93790045D01*
X135110050Y-93790045D01*
X134971963Y-93749500D01*
X134971961Y-93749500D01*
X134828039Y-93749500D01*
X134828036Y-93749500D01*
X134689949Y-93790045D01*
X134567039Y-93869035D01*
X134500000Y-93888719D01*
X134432961Y-93869035D01*
X134431126Y-93867856D01*
X134310053Y-93790047D01*
X134310051Y-93790046D01*
X134310049Y-93790045D01*
X134310050Y-93790045D01*
X134171963Y-93749500D01*
X134171961Y-93749500D01*
X134028039Y-93749500D01*
X134028036Y-93749500D01*
X133889949Y-93790045D01*
X133768873Y-93867856D01*
X133674623Y-93976626D01*
X133674622Y-93976628D01*
X133614834Y-94107543D01*
X133594353Y-94250000D01*
X132405647Y-94250000D01*
X132385165Y-94107543D01*
X132325377Y-93976627D01*
X132231128Y-93867857D01*
X132110053Y-93790047D01*
X132110051Y-93790046D01*
X132110049Y-93790045D01*
X132110050Y-93790045D01*
X131971963Y-93749500D01*
X131971961Y-93749500D01*
X131828039Y-93749500D01*
X131828036Y-93749500D01*
X131689949Y-93790045D01*
X131567039Y-93869035D01*
X131500000Y-93888719D01*
X131432961Y-93869035D01*
X131431126Y-93867856D01*
X131310053Y-93790047D01*
X131310051Y-93790046D01*
X131310049Y-93790045D01*
X131310050Y-93790045D01*
X131171963Y-93749500D01*
X131171961Y-93749500D01*
X131028039Y-93749500D01*
X131028036Y-93749500D01*
X130889949Y-93790045D01*
X130768873Y-93867856D01*
X130674623Y-93976626D01*
X130674622Y-93976628D01*
X130614834Y-94107543D01*
X130594353Y-94250000D01*
X115500500Y-94250000D01*
X115500500Y-92500000D01*
X136094353Y-92500000D01*
X136114834Y-92642456D01*
X136170533Y-92764417D01*
X136174623Y-92773373D01*
X136268872Y-92882143D01*
X136389947Y-92959953D01*
X136389950Y-92959954D01*
X136389949Y-92959954D01*
X136528036Y-93000499D01*
X136528038Y-93000500D01*
X136528039Y-93000500D01*
X136671962Y-93000500D01*
X136671962Y-93000499D01*
X136810053Y-92959953D01*
X136931128Y-92882143D01*
X137025377Y-92773373D01*
X137085165Y-92642457D01*
X137105647Y-92500000D01*
X138094353Y-92500000D01*
X138114834Y-92642456D01*
X138170533Y-92764417D01*
X138174623Y-92773373D01*
X138268872Y-92882143D01*
X138389947Y-92959953D01*
X138389950Y-92959954D01*
X138389949Y-92959954D01*
X138528036Y-93000499D01*
X138528038Y-93000500D01*
X138528039Y-93000500D01*
X138671962Y-93000500D01*
X138671962Y-93000499D01*
X138810053Y-92959953D01*
X138931128Y-92882143D01*
X139025377Y-92773373D01*
X139085165Y-92642457D01*
X139105647Y-92500000D01*
X139085165Y-92357543D01*
X139025377Y-92226627D01*
X138931128Y-92117857D01*
X138810053Y-92040047D01*
X138810051Y-92040046D01*
X138810049Y-92040045D01*
X138810050Y-92040045D01*
X138671963Y-91999500D01*
X138671961Y-91999500D01*
X138528039Y-91999500D01*
X138528036Y-91999500D01*
X138389949Y-92040045D01*
X138268873Y-92117856D01*
X138174623Y-92226626D01*
X138174622Y-92226628D01*
X138114834Y-92357543D01*
X138094353Y-92500000D01*
X137105647Y-92500000D01*
X137085165Y-92357543D01*
X137025377Y-92226627D01*
X136931128Y-92117857D01*
X136810053Y-92040047D01*
X136810051Y-92040046D01*
X136810049Y-92040045D01*
X136810050Y-92040045D01*
X136671963Y-91999500D01*
X136671961Y-91999500D01*
X136528039Y-91999500D01*
X136528036Y-91999500D01*
X136389949Y-92040045D01*
X136268873Y-92117856D01*
X136174623Y-92226626D01*
X136174622Y-92226628D01*
X136114834Y-92357543D01*
X136094353Y-92500000D01*
X115500500Y-92500000D01*
X115500500Y-91280000D01*
X145944417Y-91280000D01*
X145964699Y-91485932D01*
X145964700Y-91485934D01*
X146024768Y-91683954D01*
X146122315Y-91866450D01*
X146122317Y-91866452D01*
X146253589Y-92026410D01*
X146350209Y-92105702D01*
X146413550Y-92157685D01*
X146596046Y-92255232D01*
X146794066Y-92315300D01*
X146794065Y-92315300D01*
X146812529Y-92317118D01*
X147000000Y-92335583D01*
X147205934Y-92315300D01*
X147403954Y-92255232D01*
X147586450Y-92157685D01*
X147746410Y-92026410D01*
X147877685Y-91866450D01*
X147975232Y-91683954D01*
X148035300Y-91485934D01*
X148055583Y-91280000D01*
X148035300Y-91074066D01*
X147975232Y-90876046D01*
X147877685Y-90693550D01*
X147825702Y-90630209D01*
X147746410Y-90533589D01*
X147586452Y-90402317D01*
X147586453Y-90402317D01*
X147586450Y-90402315D01*
X147403954Y-90304768D01*
X147205934Y-90244700D01*
X147205932Y-90244699D01*
X147205934Y-90244699D01*
X147000000Y-90224417D01*
X146794067Y-90244699D01*
X146596043Y-90304769D01*
X146485898Y-90363643D01*
X146413550Y-90402315D01*
X146413548Y-90402316D01*
X146413547Y-90402317D01*
X146253589Y-90533589D01*
X146122317Y-90693547D01*
X146024769Y-90876043D01*
X145964699Y-91074067D01*
X145944417Y-91280000D01*
X115500500Y-91280000D01*
X115500500Y-90000000D01*
X136694353Y-90000000D01*
X136714834Y-90142456D01*
X136752265Y-90224417D01*
X136774623Y-90273373D01*
X136868872Y-90382143D01*
X136989947Y-90459953D01*
X136989950Y-90459954D01*
X136989949Y-90459954D01*
X137128036Y-90500499D01*
X137128038Y-90500500D01*
X137128039Y-90500500D01*
X137271962Y-90500500D01*
X137271962Y-90500499D01*
X137410053Y-90459953D01*
X137531128Y-90382143D01*
X137625377Y-90273373D01*
X137685165Y-90142457D01*
X137705647Y-90000000D01*
X137685165Y-89857543D01*
X137625377Y-89726627D01*
X137531128Y-89617857D01*
X137410053Y-89540047D01*
X137410051Y-89540046D01*
X137410049Y-89540045D01*
X137410050Y-89540045D01*
X137271963Y-89499500D01*
X137271961Y-89499500D01*
X137128039Y-89499500D01*
X137128036Y-89499500D01*
X136989949Y-89540045D01*
X136868873Y-89617856D01*
X136774623Y-89726626D01*
X136774622Y-89726628D01*
X136714834Y-89857543D01*
X136694353Y-90000000D01*
X115500500Y-90000000D01*
X115500500Y-87500000D01*
X137494353Y-87500000D01*
X137514834Y-87642456D01*
X137556822Y-87734395D01*
X137574623Y-87773373D01*
X137668872Y-87882143D01*
X137789947Y-87959953D01*
X137789950Y-87959954D01*
X137789949Y-87959954D01*
X137897107Y-87991417D01*
X137904505Y-87993590D01*
X137928036Y-88000499D01*
X137928038Y-88000500D01*
X137928039Y-88000500D01*
X138071962Y-88000500D01*
X138071962Y-88000499D01*
X138210053Y-87959953D01*
X138331128Y-87882143D01*
X138425377Y-87773373D01*
X138485165Y-87642457D01*
X138505647Y-87500000D01*
X138485165Y-87357543D01*
X138425377Y-87226627D01*
X138331128Y-87117857D01*
X138210053Y-87040047D01*
X138210051Y-87040046D01*
X138210049Y-87040045D01*
X138210050Y-87040045D01*
X138071963Y-86999500D01*
X138071961Y-86999500D01*
X137928039Y-86999500D01*
X137928036Y-86999500D01*
X137789949Y-87040045D01*
X137668873Y-87117856D01*
X137574623Y-87226626D01*
X137574622Y-87226628D01*
X137514834Y-87357543D01*
X137494353Y-87500000D01*
X115500500Y-87500000D01*
X115500500Y-85750000D01*
X129094353Y-85750000D01*
X129114834Y-85892456D01*
X129141114Y-85950000D01*
X129174623Y-86023373D01*
X129268872Y-86132143D01*
X129389947Y-86209953D01*
X129389950Y-86209954D01*
X129389949Y-86209954D01*
X129528036Y-86250499D01*
X129528038Y-86250500D01*
X129528039Y-86250500D01*
X129671962Y-86250500D01*
X129671962Y-86250499D01*
X129810050Y-86209954D01*
X129810051Y-86209954D01*
X129810053Y-86209953D01*
X129931128Y-86132143D01*
X129931129Y-86132141D01*
X129932960Y-86130965D01*
X130000000Y-86111280D01*
X130067039Y-86130964D01*
X130067040Y-86130965D01*
X130068870Y-86132141D01*
X130068872Y-86132143D01*
X130146251Y-86181871D01*
X130189948Y-86209954D01*
X130328036Y-86250499D01*
X130328038Y-86250500D01*
X130328039Y-86250500D01*
X130471962Y-86250500D01*
X130471962Y-86250499D01*
X130610053Y-86209953D01*
X130731128Y-86132143D01*
X130825377Y-86023373D01*
X130885165Y-85892457D01*
X130905647Y-85750000D01*
X132094353Y-85750000D01*
X132114834Y-85892456D01*
X132141114Y-85950000D01*
X132174623Y-86023373D01*
X132268872Y-86132143D01*
X132389947Y-86209953D01*
X132389950Y-86209954D01*
X132389949Y-86209954D01*
X132528036Y-86250499D01*
X132528038Y-86250500D01*
X132528039Y-86250500D01*
X132671962Y-86250500D01*
X132671962Y-86250499D01*
X132810050Y-86209954D01*
X132810051Y-86209954D01*
X132810053Y-86209953D01*
X132931128Y-86132143D01*
X132931129Y-86132141D01*
X132932960Y-86130965D01*
X133000000Y-86111280D01*
X133067039Y-86130964D01*
X133067040Y-86130965D01*
X133068870Y-86132141D01*
X133068872Y-86132143D01*
X133146251Y-86181871D01*
X133189948Y-86209954D01*
X133328036Y-86250499D01*
X133328038Y-86250500D01*
X133328039Y-86250500D01*
X133471962Y-86250500D01*
X133471962Y-86250499D01*
X133610053Y-86209953D01*
X133731128Y-86132143D01*
X133825377Y-86023373D01*
X133885165Y-85892457D01*
X133905647Y-85750000D01*
X135394353Y-85750000D01*
X135414834Y-85892456D01*
X135441114Y-85950000D01*
X135474623Y-86023373D01*
X135568872Y-86132143D01*
X135689947Y-86209953D01*
X135689950Y-86209954D01*
X135689949Y-86209954D01*
X135828036Y-86250499D01*
X135828038Y-86250500D01*
X135828039Y-86250500D01*
X135971962Y-86250500D01*
X135971962Y-86250499D01*
X136110053Y-86209953D01*
X136231128Y-86132143D01*
X136325377Y-86023373D01*
X136385165Y-85892457D01*
X136405647Y-85750000D01*
X136385165Y-85607543D01*
X136325377Y-85476627D01*
X136231128Y-85367857D01*
X136128893Y-85302155D01*
X145650000Y-85302155D01*
X145650000Y-85950000D01*
X146566988Y-85950000D01*
X146534075Y-86007007D01*
X146500000Y-86134174D01*
X146500000Y-86265826D01*
X146534075Y-86392993D01*
X146566988Y-86450000D01*
X145650000Y-86450000D01*
X145650000Y-87097844D01*
X145656401Y-87157372D01*
X145656403Y-87157379D01*
X145706645Y-87292086D01*
X145706649Y-87292093D01*
X145792809Y-87407187D01*
X145792812Y-87407190D01*
X145907906Y-87493350D01*
X145907913Y-87493354D01*
X146042620Y-87543596D01*
X146042627Y-87543598D01*
X146102155Y-87549999D01*
X146102172Y-87550000D01*
X146502813Y-87550000D01*
X146569852Y-87569685D01*
X146615607Y-87622489D01*
X146625551Y-87691647D01*
X146596526Y-87755203D01*
X146561267Y-87783357D01*
X146413550Y-87862315D01*
X146413548Y-87862316D01*
X146413547Y-87862317D01*
X146253589Y-87993589D01*
X146122317Y-88153547D01*
X146024769Y-88336043D01*
X145964699Y-88534067D01*
X145944417Y-88740000D01*
X145964699Y-88945932D01*
X145964700Y-88945934D01*
X146024768Y-89143954D01*
X146122315Y-89326450D01*
X146122317Y-89326452D01*
X146253589Y-89486410D01*
X146318945Y-89540045D01*
X146413550Y-89617685D01*
X146596046Y-89715232D01*
X146794066Y-89775300D01*
X146794065Y-89775300D01*
X146812529Y-89777118D01*
X147000000Y-89795583D01*
X147205934Y-89775300D01*
X147403954Y-89715232D01*
X147586450Y-89617685D01*
X147746410Y-89486410D01*
X147877685Y-89326450D01*
X147975232Y-89143954D01*
X148035300Y-88945934D01*
X148055583Y-88740000D01*
X148035300Y-88534066D01*
X147975232Y-88336046D01*
X147877685Y-88153550D01*
X147825702Y-88090209D01*
X147746410Y-87993589D01*
X147628677Y-87896969D01*
X147586450Y-87862315D01*
X147438732Y-87783357D01*
X147388889Y-87734395D01*
X147373429Y-87666257D01*
X147397261Y-87600578D01*
X147452819Y-87558209D01*
X147497187Y-87550000D01*
X147897828Y-87550000D01*
X147897844Y-87549999D01*
X147957372Y-87543598D01*
X147957379Y-87543596D01*
X148092086Y-87493354D01*
X148092093Y-87493350D01*
X148207187Y-87407190D01*
X148207190Y-87407187D01*
X148293350Y-87292093D01*
X148293354Y-87292086D01*
X148343596Y-87157379D01*
X148343598Y-87157372D01*
X148349999Y-87097844D01*
X148350000Y-87097827D01*
X148350000Y-86450000D01*
X147433012Y-86450000D01*
X147465925Y-86392993D01*
X147500000Y-86265826D01*
X147500000Y-86134174D01*
X147465925Y-86007007D01*
X147433012Y-85950000D01*
X148350000Y-85950000D01*
X148350000Y-85302172D01*
X148349999Y-85302155D01*
X148343598Y-85242627D01*
X148343596Y-85242620D01*
X148293354Y-85107913D01*
X148293350Y-85107906D01*
X148207190Y-84992812D01*
X148207187Y-84992809D01*
X148092093Y-84906649D01*
X148092086Y-84906645D01*
X147957379Y-84856403D01*
X147957372Y-84856401D01*
X147897844Y-84850000D01*
X147250000Y-84850000D01*
X147250000Y-85766988D01*
X147192993Y-85734075D01*
X147065826Y-85700000D01*
X146934174Y-85700000D01*
X146807007Y-85734075D01*
X146750000Y-85766988D01*
X146750000Y-84850000D01*
X146102155Y-84850000D01*
X146042627Y-84856401D01*
X146042620Y-84856403D01*
X145907913Y-84906645D01*
X145907906Y-84906649D01*
X145792812Y-84992809D01*
X145792809Y-84992812D01*
X145706649Y-85107906D01*
X145706645Y-85107913D01*
X145656403Y-85242620D01*
X145656401Y-85242627D01*
X145650000Y-85302155D01*
X136128893Y-85302155D01*
X136110053Y-85290047D01*
X136110051Y-85290046D01*
X136110049Y-85290045D01*
X136110050Y-85290045D01*
X135971963Y-85249500D01*
X135971961Y-85249500D01*
X135828039Y-85249500D01*
X135828036Y-85249500D01*
X135689949Y-85290045D01*
X135568873Y-85367856D01*
X135474623Y-85476626D01*
X135474622Y-85476628D01*
X135414834Y-85607543D01*
X135394353Y-85750000D01*
X133905647Y-85750000D01*
X133885165Y-85607543D01*
X133825377Y-85476627D01*
X133731128Y-85367857D01*
X133610053Y-85290047D01*
X133610051Y-85290046D01*
X133610049Y-85290045D01*
X133610050Y-85290045D01*
X133471963Y-85249500D01*
X133471961Y-85249500D01*
X133328039Y-85249500D01*
X133328036Y-85249500D01*
X133189949Y-85290045D01*
X133067039Y-85369035D01*
X133000000Y-85388719D01*
X132932961Y-85369035D01*
X132931126Y-85367856D01*
X132810053Y-85290047D01*
X132810051Y-85290046D01*
X132810049Y-85290045D01*
X132810050Y-85290045D01*
X132671963Y-85249500D01*
X132671961Y-85249500D01*
X132528039Y-85249500D01*
X132528036Y-85249500D01*
X132389949Y-85290045D01*
X132268873Y-85367856D01*
X132174623Y-85476626D01*
X132174622Y-85476628D01*
X132114834Y-85607543D01*
X132094353Y-85750000D01*
X130905647Y-85750000D01*
X130885165Y-85607543D01*
X130825377Y-85476627D01*
X130731128Y-85367857D01*
X130610053Y-85290047D01*
X130610051Y-85290046D01*
X130610049Y-85290045D01*
X130610050Y-85290045D01*
X130471963Y-85249500D01*
X130471961Y-85249500D01*
X130328039Y-85249500D01*
X130328036Y-85249500D01*
X130189949Y-85290045D01*
X130067039Y-85369035D01*
X130000000Y-85388719D01*
X129932961Y-85369035D01*
X129931126Y-85367856D01*
X129810053Y-85290047D01*
X129810051Y-85290046D01*
X129810049Y-85290045D01*
X129810050Y-85290045D01*
X129671963Y-85249500D01*
X129671961Y-85249500D01*
X129528039Y-85249500D01*
X129528036Y-85249500D01*
X129389949Y-85290045D01*
X129268873Y-85367856D01*
X129174623Y-85476626D01*
X129174622Y-85476628D01*
X129114834Y-85607543D01*
X129094353Y-85750000D01*
X115500500Y-85750000D01*
X115500500Y-79999996D01*
X116994916Y-79999996D01*
X116994916Y-80000003D01*
X117015235Y-80348869D01*
X117015236Y-80348880D01*
X117075914Y-80693002D01*
X117075916Y-80693011D01*
X117176145Y-81027800D01*
X117314555Y-81348670D01*
X117314561Y-81348683D01*
X117489289Y-81651322D01*
X117697967Y-81931625D01*
X117706148Y-81940296D01*
X118956319Y-80690124D01*
X119046554Y-80814320D01*
X119185680Y-80953446D01*
X119309873Y-81043678D01*
X118062818Y-82290733D01*
X118062819Y-82290734D01*
X118205484Y-82410445D01*
X118497461Y-82602480D01*
X118809739Y-82759314D01*
X118809745Y-82759316D01*
X119138130Y-82878838D01*
X119138133Y-82878839D01*
X119478171Y-82959429D01*
X119825276Y-82999999D01*
X119825277Y-83000000D01*
X120174723Y-83000000D01*
X120174723Y-82999999D01*
X120521827Y-82959429D01*
X120521829Y-82959429D01*
X120861866Y-82878839D01*
X120861869Y-82878838D01*
X121190254Y-82759316D01*
X121190260Y-82759314D01*
X121502538Y-82602480D01*
X121658361Y-82499994D01*
X125595202Y-82499994D01*
X125595202Y-82500005D01*
X125614361Y-82731218D01*
X125671317Y-82956135D01*
X125764515Y-83168606D01*
X125848812Y-83297633D01*
X126398958Y-82747487D01*
X126423978Y-82807890D01*
X126495112Y-82914351D01*
X126585649Y-83004888D01*
X126692110Y-83076022D01*
X126752511Y-83101041D01*
X126201201Y-83652351D01*
X126231649Y-83676050D01*
X126435697Y-83786476D01*
X126435706Y-83786479D01*
X126655139Y-83861811D01*
X126883993Y-83900000D01*
X127116007Y-83900000D01*
X127344860Y-83861811D01*
X127564293Y-83786479D01*
X127564301Y-83786476D01*
X127768355Y-83676047D01*
X127798797Y-83652351D01*
X127798798Y-83652350D01*
X127247489Y-83101041D01*
X127307890Y-83076022D01*
X127414351Y-83004888D01*
X127504888Y-82914351D01*
X127576022Y-82807890D01*
X127601041Y-82747488D01*
X128151186Y-83297633D01*
X128235482Y-83168611D01*
X128328682Y-82956135D01*
X128385638Y-82731218D01*
X128404798Y-82500005D01*
X128404798Y-82499994D01*
X140095202Y-82499994D01*
X140095202Y-82500005D01*
X140114361Y-82731218D01*
X140171317Y-82956135D01*
X140264515Y-83168606D01*
X140348812Y-83297633D01*
X140898958Y-82747487D01*
X140923978Y-82807890D01*
X140995112Y-82914351D01*
X141085649Y-83004888D01*
X141192110Y-83076022D01*
X141252511Y-83101041D01*
X140701201Y-83652351D01*
X140731649Y-83676050D01*
X140935697Y-83786476D01*
X140935706Y-83786479D01*
X141155139Y-83861811D01*
X141383993Y-83900000D01*
X141616007Y-83900000D01*
X141844860Y-83861811D01*
X142064293Y-83786479D01*
X142064301Y-83786476D01*
X142268355Y-83676047D01*
X142298797Y-83652351D01*
X142298798Y-83652350D01*
X141747489Y-83101041D01*
X141807890Y-83076022D01*
X141914351Y-83004888D01*
X142004888Y-82914351D01*
X142076022Y-82807890D01*
X142101041Y-82747488D01*
X142651186Y-83297633D01*
X142735482Y-83168611D01*
X142828682Y-82956135D01*
X142885638Y-82731218D01*
X142904798Y-82500005D01*
X142904798Y-82499994D01*
X142885638Y-82268781D01*
X142828682Y-82043864D01*
X142735484Y-81831393D01*
X142651186Y-81702365D01*
X142101041Y-82252510D01*
X142076022Y-82192110D01*
X142004888Y-82085649D01*
X141914351Y-81995112D01*
X141807890Y-81923978D01*
X141747487Y-81898958D01*
X142298797Y-81347647D01*
X142298797Y-81347645D01*
X142268360Y-81323955D01*
X142268354Y-81323951D01*
X142064302Y-81213523D01*
X142064293Y-81213520D01*
X141844860Y-81138188D01*
X141616007Y-81100000D01*
X141383993Y-81100000D01*
X141155139Y-81138188D01*
X140935706Y-81213520D01*
X140935697Y-81213523D01*
X140731650Y-81323949D01*
X140701200Y-81347647D01*
X141252511Y-81898958D01*
X141192110Y-81923978D01*
X141085649Y-81995112D01*
X140995112Y-82085649D01*
X140923978Y-82192110D01*
X140898958Y-82252512D01*
X140348811Y-81702365D01*
X140264516Y-81831390D01*
X140171317Y-82043864D01*
X140114361Y-82268781D01*
X140095202Y-82499994D01*
X128404798Y-82499994D01*
X128385638Y-82268781D01*
X128328682Y-82043864D01*
X128235484Y-81831393D01*
X128151186Y-81702365D01*
X127601041Y-82252510D01*
X127576022Y-82192110D01*
X127504888Y-82085649D01*
X127414351Y-81995112D01*
X127307890Y-81923978D01*
X127247487Y-81898958D01*
X127798797Y-81347647D01*
X127798797Y-81347645D01*
X127768360Y-81323955D01*
X127768354Y-81323951D01*
X127564302Y-81213523D01*
X127564293Y-81213520D01*
X127344860Y-81138188D01*
X127116007Y-81100000D01*
X126883993Y-81100000D01*
X126655139Y-81138188D01*
X126435706Y-81213520D01*
X126435697Y-81213523D01*
X126231650Y-81323949D01*
X126201200Y-81347647D01*
X126752511Y-81898958D01*
X126692110Y-81923978D01*
X126585649Y-81995112D01*
X126495112Y-82085649D01*
X126423978Y-82192110D01*
X126398958Y-82252512D01*
X125848811Y-81702365D01*
X125764516Y-81831390D01*
X125671317Y-82043864D01*
X125614361Y-82268781D01*
X125595202Y-82499994D01*
X121658361Y-82499994D01*
X121794509Y-82410449D01*
X121794510Y-82410448D01*
X121937179Y-82290734D01*
X121937180Y-82290733D01*
X120690126Y-81043678D01*
X120814320Y-80953446D01*
X120953446Y-80814320D01*
X121043678Y-80690126D01*
X122293849Y-81940297D01*
X122293851Y-81940296D01*
X122302022Y-81931636D01*
X122302033Y-81931623D01*
X122510710Y-81651322D01*
X122685438Y-81348683D01*
X122685444Y-81348670D01*
X122823854Y-81027800D01*
X122924083Y-80693011D01*
X122924085Y-80693002D01*
X122984763Y-80348880D01*
X122984764Y-80348869D01*
X123005084Y-80000003D01*
X123005084Y-79999996D01*
X146994916Y-79999996D01*
X146994916Y-80000003D01*
X147015235Y-80348869D01*
X147015236Y-80348880D01*
X147075914Y-80693002D01*
X147075916Y-80693011D01*
X147176145Y-81027800D01*
X147314555Y-81348670D01*
X147314561Y-81348683D01*
X147489289Y-81651322D01*
X147697967Y-81931625D01*
X147706148Y-81940296D01*
X148956319Y-80690124D01*
X149046554Y-80814320D01*
X149185680Y-80953446D01*
X149309873Y-81043678D01*
X148062818Y-82290733D01*
X148062819Y-82290734D01*
X148205484Y-82410445D01*
X148497461Y-82602480D01*
X148809739Y-82759314D01*
X148809745Y-82759316D01*
X149138130Y-82878838D01*
X149138133Y-82878839D01*
X149478171Y-82959429D01*
X149825276Y-82999999D01*
X149825277Y-83000000D01*
X150174723Y-83000000D01*
X150174723Y-82999999D01*
X150521827Y-82959429D01*
X150521829Y-82959429D01*
X150861866Y-82878839D01*
X150861869Y-82878838D01*
X151190254Y-82759316D01*
X151190260Y-82759314D01*
X151502538Y-82602480D01*
X151794509Y-82410449D01*
X151794510Y-82410448D01*
X151937179Y-82290734D01*
X151937180Y-82290733D01*
X150690126Y-81043678D01*
X150814320Y-80953446D01*
X150953446Y-80814320D01*
X151043679Y-80690126D01*
X152293850Y-81940297D01*
X152293851Y-81940296D01*
X152302022Y-81931636D01*
X152302033Y-81931623D01*
X152510710Y-81651322D01*
X152685438Y-81348683D01*
X152685444Y-81348670D01*
X152823854Y-81027800D01*
X152924083Y-80693011D01*
X152924085Y-80693002D01*
X152984763Y-80348880D01*
X152984764Y-80348869D01*
X153005084Y-80000003D01*
X153005084Y-79999996D01*
X152984764Y-79651130D01*
X152984763Y-79651119D01*
X152924085Y-79306997D01*
X152924083Y-79306988D01*
X152823854Y-78972199D01*
X152685444Y-78651329D01*
X152685438Y-78651316D01*
X152510710Y-78348677D01*
X152302032Y-78068374D01*
X152293850Y-78059702D01*
X151043678Y-79309873D01*
X150953446Y-79185680D01*
X150814320Y-79046554D01*
X150690125Y-78956320D01*
X151937180Y-77709265D01*
X151937179Y-77709264D01*
X151794519Y-77589557D01*
X151502538Y-77397519D01*
X151190260Y-77240685D01*
X151190254Y-77240683D01*
X150861869Y-77121161D01*
X150861866Y-77121160D01*
X150521828Y-77040570D01*
X150174723Y-77000000D01*
X149825277Y-77000000D01*
X149478172Y-77040570D01*
X149478170Y-77040570D01*
X149138133Y-77121160D01*
X149138130Y-77121161D01*
X148809745Y-77240683D01*
X148809739Y-77240685D01*
X148497461Y-77397519D01*
X148205480Y-77589557D01*
X148062819Y-77709264D01*
X148062818Y-77709265D01*
X149309874Y-78956320D01*
X149185680Y-79046554D01*
X149046554Y-79185680D01*
X148956320Y-79309873D01*
X147706148Y-78059701D01*
X147706147Y-78059702D01*
X147697976Y-78068363D01*
X147697972Y-78068368D01*
X147489289Y-78348677D01*
X147314561Y-78651316D01*
X147314555Y-78651329D01*
X147176145Y-78972199D01*
X147075916Y-79306988D01*
X147075914Y-79306997D01*
X147015236Y-79651119D01*
X147015235Y-79651130D01*
X146994916Y-79999996D01*
X123005084Y-79999996D01*
X122984764Y-79651130D01*
X122984763Y-79651119D01*
X122924085Y-79306997D01*
X122924083Y-79306988D01*
X122823854Y-78972199D01*
X122685444Y-78651329D01*
X122685438Y-78651316D01*
X122510710Y-78348677D01*
X122302032Y-78068374D01*
X122293850Y-78059702D01*
X121043678Y-79309873D01*
X120953446Y-79185680D01*
X120814320Y-79046554D01*
X120690125Y-78956320D01*
X121937180Y-77709265D01*
X121937179Y-77709264D01*
X121806957Y-77599994D01*
X124995202Y-77599994D01*
X124995202Y-77600005D01*
X125014361Y-77831218D01*
X125071317Y-78056135D01*
X125164515Y-78268606D01*
X125248812Y-78397633D01*
X125798958Y-77847487D01*
X125823978Y-77907890D01*
X125895112Y-78014351D01*
X125985649Y-78104888D01*
X126092110Y-78176022D01*
X126152511Y-78201041D01*
X125601201Y-78752351D01*
X125631649Y-78776050D01*
X125835697Y-78886476D01*
X125835706Y-78886479D01*
X126055139Y-78961811D01*
X126283993Y-79000000D01*
X126516007Y-79000000D01*
X126744860Y-78961811D01*
X126964293Y-78886479D01*
X126964301Y-78886476D01*
X127168355Y-78776047D01*
X127198797Y-78752351D01*
X127198798Y-78752350D01*
X126647489Y-78201041D01*
X126707890Y-78176022D01*
X126814351Y-78104888D01*
X126904888Y-78014351D01*
X126976022Y-77907890D01*
X127001041Y-77847488D01*
X127551186Y-78397633D01*
X127635482Y-78268611D01*
X127728682Y-78056135D01*
X127785638Y-77831218D01*
X127804798Y-77600005D01*
X127804798Y-77599994D01*
X140695202Y-77599994D01*
X140695202Y-77600005D01*
X140714361Y-77831218D01*
X140771317Y-78056135D01*
X140864515Y-78268606D01*
X140948812Y-78397633D01*
X141498958Y-77847487D01*
X141523978Y-77907890D01*
X141595112Y-78014351D01*
X141685649Y-78104888D01*
X141792110Y-78176022D01*
X141852511Y-78201041D01*
X141301201Y-78752351D01*
X141331649Y-78776050D01*
X141535697Y-78886476D01*
X141535706Y-78886479D01*
X141755139Y-78961811D01*
X141983993Y-79000000D01*
X142216007Y-79000000D01*
X142444860Y-78961811D01*
X142664293Y-78886479D01*
X142664301Y-78886476D01*
X142868355Y-78776047D01*
X142898797Y-78752351D01*
X142898798Y-78752350D01*
X142347489Y-78201041D01*
X142407890Y-78176022D01*
X142514351Y-78104888D01*
X142604888Y-78014351D01*
X142676022Y-77907890D01*
X142701041Y-77847488D01*
X143251186Y-78397633D01*
X143335482Y-78268611D01*
X143428682Y-78056135D01*
X143485638Y-77831218D01*
X143504798Y-77600005D01*
X143504798Y-77599994D01*
X143485638Y-77368781D01*
X143428682Y-77143864D01*
X143335484Y-76931393D01*
X143251186Y-76802365D01*
X142701041Y-77352510D01*
X142676022Y-77292110D01*
X142604888Y-77185649D01*
X142514351Y-77095112D01*
X142407890Y-77023978D01*
X142347487Y-76998958D01*
X142898797Y-76447647D01*
X142898797Y-76447645D01*
X142868360Y-76423955D01*
X142868354Y-76423951D01*
X142664302Y-76313523D01*
X142664293Y-76313520D01*
X142444860Y-76238188D01*
X142216007Y-76200000D01*
X141983993Y-76200000D01*
X141755139Y-76238188D01*
X141535706Y-76313520D01*
X141535697Y-76313523D01*
X141331650Y-76423949D01*
X141301200Y-76447647D01*
X141852511Y-76998958D01*
X141792110Y-77023978D01*
X141685649Y-77095112D01*
X141595112Y-77185649D01*
X141523978Y-77292110D01*
X141498958Y-77352512D01*
X140948811Y-76802365D01*
X140864516Y-76931390D01*
X140771317Y-77143864D01*
X140714361Y-77368781D01*
X140695202Y-77599994D01*
X127804798Y-77599994D01*
X127785638Y-77368781D01*
X127728682Y-77143864D01*
X127635484Y-76931393D01*
X127551186Y-76802365D01*
X127001041Y-77352510D01*
X126976022Y-77292110D01*
X126904888Y-77185649D01*
X126814351Y-77095112D01*
X126707890Y-77023978D01*
X126647487Y-76998958D01*
X127198797Y-76447647D01*
X127198797Y-76447645D01*
X127168360Y-76423955D01*
X127168354Y-76423951D01*
X126964302Y-76313523D01*
X126964293Y-76313520D01*
X126744860Y-76238188D01*
X126516007Y-76200000D01*
X126283993Y-76200000D01*
X126055139Y-76238188D01*
X125835706Y-76313520D01*
X125835697Y-76313523D01*
X125631650Y-76423949D01*
X125601200Y-76447647D01*
X126152511Y-76998958D01*
X126092110Y-77023978D01*
X125985649Y-77095112D01*
X125895112Y-77185649D01*
X125823978Y-77292110D01*
X125798958Y-77352512D01*
X125248811Y-76802365D01*
X125164516Y-76931390D01*
X125071317Y-77143864D01*
X125014361Y-77368781D01*
X124995202Y-77599994D01*
X121806957Y-77599994D01*
X121794519Y-77589557D01*
X121502538Y-77397519D01*
X121190260Y-77240685D01*
X121190254Y-77240683D01*
X120861869Y-77121161D01*
X120861866Y-77121160D01*
X120521828Y-77040570D01*
X120174723Y-77000000D01*
X119825277Y-77000000D01*
X119478172Y-77040570D01*
X119478170Y-77040570D01*
X119138133Y-77121160D01*
X119138130Y-77121161D01*
X118809745Y-77240683D01*
X118809739Y-77240685D01*
X118497461Y-77397519D01*
X118205480Y-77589557D01*
X118062819Y-77709264D01*
X118062818Y-77709265D01*
X119309874Y-78956320D01*
X119185680Y-79046554D01*
X119046554Y-79185680D01*
X118956320Y-79309873D01*
X117706148Y-78059701D01*
X117706147Y-78059702D01*
X117697976Y-78068363D01*
X117697972Y-78068368D01*
X117489289Y-78348677D01*
X117314561Y-78651316D01*
X117314555Y-78651329D01*
X117176145Y-78972199D01*
X117075916Y-79306988D01*
X117075914Y-79306997D01*
X117015236Y-79651119D01*
X117015235Y-79651130D01*
X116994916Y-79999996D01*
X115500500Y-79999996D01*
X115500500Y-75624500D01*
X115520185Y-75557461D01*
X115572989Y-75511706D01*
X115624500Y-75500500D01*
X154375500Y-75500500D01*
X154442539Y-75520185D01*
G37*
%TD.AperFunction*%
%TD*%
M02*
