M48
; DRILL file {KiCad 8.0.4} date 2024-07-29T14:14:17-0700
; FORMAT={-:-/ absolute / inch / decimal}
; #@! TF.CreationDate,2024-07-29T14:14:17-07:00
; #@! TF.GenerationSoftware,Kicad,Pcbnew,8.0.4
; #@! TF.FileFunction,Plated,1,2,PTH
FMAT,2
INCH
; #@! TA.AperFunction,Plated,PTH,ViaDrill
T1C0.0118
; #@! TA.AperFunction,Plated,PTH,ComponentDrill
T2C0.0394
; #@! TA.AperFunction,Plated,PTH,ComponentDrill
T3C0.0512
; #@! TA.AperFunction,Plated,PTH,ComponentDrill
T4C0.0866
%
G90
G05
T1
X5.2208Y-3.9756
X5.2477Y-3.9756
X5.3224Y-3.9756
X5.3493Y-3.9756
X5.4263Y-3.9756
X5.4532Y-3.9756
X5.5531Y-3.9756
X5.58Y-3.9756
X5.635Y-3.915
X5.675Y-3.89
X5.72Y-3.85
X5.7515Y-3.85
X5.78Y-3.82
T2
X6.052Y-3.8744
X6.052Y-3.9744
X6.052Y-4.0744
T3
X5.2098Y-3.4
X5.2098Y-4.5429
X5.2335Y-3.5929
X5.2335Y-4.35
X5.8043Y-3.5929
X5.8043Y-4.35
X5.828Y-3.4
X5.828Y-4.5429
T4
X4.85Y-3.45
X4.85Y-4.55
X6.2Y-3.45
X6.2Y-4.55
M30
